<?xml version="1.0" standalone="no"?>
<!DOCTYPE svg PUBLIC "-//W3C//DTD SVG 1.1//EN" "http://www.w3.org/Graphics/SVG/1.1/DTD/svg11.dtd" >
<svg xmlns="http://www.w3.org/2000/svg" xmlns:xlink="http://www.w3.org/1999/xlink" version="1.1">
<metadata>
Created by FontForge 20230101 at Fri Jan 27 14:48:52 2023
 By Unknown
Copyright 2022 PT Dompet Anak Bangsa. All rights reserved
</metadata>
<defs>
<font id="RupaSans-Bold" horiz-adv-x="0" >
  <font-face 
    font-family="Rupa Sans"
    font-weight="700"
    font-stretch="normal"
    units-per-em="1000"
    panose-1="0 0 0 0 0 0 0 0 0 0"
    ascent="800"
    descent="-200"
    x-height="518"
    cap-height="700"
    bbox="-173 -348 1360 1181"
    underline-thickness="50"
    underline-position="-125"
    unicode-range="U+0020-FB02"
  />
<missing-glyph horiz-adv-x="500" 
d="M50 -254v1200h400v-1200h-400zM100 -204h300v1100h-300v-1100z" />
    <glyph glyph-name="f_f" unicode="ff" horiz-adv-x="784" 
d="M112 0h136v403h233v-403h137v403h141v115h-141v33q0 39 20 61t61 22q28 0 60 -9l29 109q-43 17 -95 17q-96 0 -154 -54.5t-58 -145.5v-33h-233v33q0 39 20.5 61t61.5 22q28 0 60 -9l29 109q-43 17 -95 17q-96 0 -154 -54.5t-58 -145.5v-33h-118v-115h118v-403z" />
    <glyph glyph-name="f_f_i" unicode="ffi" horiz-adv-x="1061" 
d="M112 0h136v403h233v-403h137v403h141v115h-141v27q0 44 27 66.5t89 22.5q47 0 87.5 -11t88.5 -37l42 108q-102 57 -218 57q-119 0 -186 -55.5t-67 -150.5v-27h-233v33q0 39 20.5 61t61.5 22q28 0 60 -9l29 109q-43 17 -95 17q-96 0 -154 -54.5t-58 -145.5v-33h-118v-115
h118v-403zM850 0h137v518h-137v-518z" />
    <glyph glyph-name="f_f_l" unicode="ffl" horiz-adv-x="1072" 
d="M112 0h136v403h233v-403h137v403h141v115h-141v27q0 44 27 66.5t89 22.5t116 -20v-471q0 -83 33.5 -118t118.5 -35q21 0 45 4v95q-5 0 -9.5 -0.5t-8.5 -0.5q-25 0 -33.5 15t-8.5 48v561h-71q-86 39 -182 39q-119 0 -186 -55.5t-67 -150.5v-27h-233v33q0 39 20.5 61
t61.5 22q28 0 60 -9l29 109q-43 17 -95 17q-96 0 -154 -54.5t-58 -145.5v-33h-118v-115h118v-403z" />
    <glyph glyph-name="fi" unicode="fi" horiz-adv-x="700" 
d="M112 0h136v403h142v115h-142v27q0 44 27.5 66.5t89.5 22.5q47 0 87.5 -11t88.5 -37l41 108q-101 57 -217 57q-119 0 -186 -55.5t-67 -150.5v-27h-118v-115h118v-403zM489 0h137v518h-137v-518z" />
    <glyph glyph-name="fl" unicode="fl" horiz-adv-x="706" 
d="M112 0h136v403h142v115h-142v27q0 44 27.5 66.5t89.5 22.5q47 0 87.5 -11t88.5 -37l41 108q-101 57 -217 57q-119 0 -186 -55.5t-67 -150.5v-27h-118v-115h118v-403zM636 -10q21 0 45 4v95q-5 0 -9.5 -0.5t-8.5 -0.5q-25 0 -33.5 15t-8.5 48v561h-137v-569
q0 -83 33.5 -118t118.5 -35z" />
    <glyph glyph-name=".notdef" horiz-adv-x="500" 
d="M50 -254v1200h400v-1200h-400zM100 -204h300v1100h-300v-1100z" />
    <glyph glyph-name="A" unicode="A" horiz-adv-x="728" 
d="M-6 0h156l69 176h291l68 -176h156l-283 700h-170zM332 468q12 31 17.5 56.5t5.5 39.5h19q0 -13 5.5 -39t17.5 -57l67 -175h-199z" />
    <glyph glyph-name="Aacute" unicode="&#xc1;" horiz-adv-x="728" 
d="M-6 0h156l69 176h291l68 -176h156l-283 700h-170zM332 468q12 31 17.5 56.5t5.5 39.5h19q0 -13 5.5 -39t17.5 -57l67 -175h-199zM308 782h112l94 136h-137z" />
    <glyph glyph-name="Abreve" unicode="&#x102;" horiz-adv-x="728" 
d="M-6 0h156l69 176h291l68 -176h156l-283 700h-170zM332 468q12 31 17.5 56.5t5.5 39.5h19q0 -13 5.5 -39t17.5 -57l67 -175h-199zM365 782q68 0 110 37t42 99h-91q0 -30 -17 -47.5t-44 -17.5q-28 0 -45 18t-17 47h-91q0 -62 42 -99t111 -37z" />
    <glyph glyph-name="uni1EAE" unicode="&#x1eae;" horiz-adv-x="728" 
d="M-6 0h156l69 176h291l68 -176h156l-283 700h-170zM332 468q12 31 17.5 56.5t5.5 39.5h19q0 -13 5.5 -39t17.5 -57l67 -175h-199zM365 782q68 0 110 37t42 99h-91q0 -30 -17 -47.5t-44 -17.5q-28 0 -45 18t-17 47h-91q0 -62 42 -99t111 -37zM308 1000h112l94 136h-137z
" />
    <glyph glyph-name="uni1EB6" unicode="&#x1eb6;" horiz-adv-x="728" 
d="M-6 0h156l69 176h291l68 -176h156l-283 700h-170zM332 468q12 31 17.5 56.5t5.5 39.5h19q0 -13 5.5 -39t17.5 -57l67 -175h-199zM371 -243q34 0 58 24t24 58t-24 58t-58 24t-58 -24t-24 -58t24 -58t58 -24zM365 782q68 0 110 37t42 99h-91q0 -30 -17 -47.5t-44 -17.5
q-28 0 -45 18t-17 47h-91q0 -62 42 -99t111 -37z" />
    <glyph glyph-name="uni1EB0" unicode="&#x1eb0;" horiz-adv-x="728" 
d="M-6 0h156l69 176h291l68 -176h156l-283 700h-170zM332 468q12 31 17.5 56.5t5.5 39.5h19q0 -13 5.5 -39t17.5 -57l67 -175h-199zM308 1000h112l-68 136h-138zM364 782q69 0 111 37t42 99h-91q0 -30 -17 -47.5t-45 -17.5t-44.5 18t-16.5 47h-91q0 -62 42 -99t110 -37z" />
    <glyph glyph-name="uni1EB2" unicode="&#x1eb2;" horiz-adv-x="728" 
d="M-6 0h156l69 176h291l68 -176h156l-283 700h-170zM332 468q12 31 17.5 56.5t5.5 39.5h19q0 -13 5.5 -39t17.5 -57l67 -175h-199zM365 782q68 0 110 37t42 99h-91q0 -30 -17 -47.5t-44 -17.5q-28 0 -45 18t-17 47h-91q0 -62 42 -99t111 -37zM355 1000q57 11 79.5 38
t22.5 54q0 40 -28 64.5t-76 24.5q-46 0 -83 -20l20 -62q8 6 19.5 8.5t21.5 2.5q24 0 35 -9.5t11 -24.5q0 -17 -13.5 -29t-40.5 -21z" />
    <glyph glyph-name="uni1EB4" unicode="&#x1eb4;" horiz-adv-x="728" 
d="M-6 0h156l69 176h291l68 -176h156l-283 700h-170zM332 468q12 31 17.5 56.5t5.5 39.5h19q0 -13 5.5 -39t17.5 -57l67 -175h-199zM412 1003q35 0 62 33.5t26 97.5h-65q-3 -25 -10 -35.5t-16 -10.5q-13 0 -25.5 13.5t-29 27t-39.5 13.5q-35 0 -61.5 -34.5t-26.5 -97.5h65
q3 24 11 35.5t15 11.5q13 0 26 -13.5t29 -27t39 -13.5zM364 782q69 0 111 37t42 99h-91q0 -30 -17 -47.5t-45 -17.5t-44.5 18t-16.5 47h-91q0 -62 42 -99t110 -37z" />
    <glyph glyph-name="Acircumflex" unicode="&#xc2;" horiz-adv-x="728" 
d="M-6 0h156l69 176h291l68 -176h156l-283 700h-170zM332 468q12 31 17.5 56.5t5.5 39.5h19q0 -13 5.5 -39t17.5 -57l67 -175h-199zM198 782h110l56 72l56 -72h110l-103 136h-127z" />
    <glyph glyph-name="uni1EA4" unicode="&#x1ea4;" horiz-adv-x="728" 
d="M-6 0h156l69 176h291l68 -176h156l-283 700h-170zM332 468q12 31 17.5 56.5t5.5 39.5h19q0 -13 5.5 -39t17.5 -57l67 -175h-199zM198 782h110l56 72l56 -72h110l-103 136h-127zM511 856h112l94 136h-137z" />
    <glyph glyph-name="uni1EAC" unicode="&#x1eac;" horiz-adv-x="728" 
d="M-6 0h156l69 176h291l68 -176h156l-283 700h-170zM332 468q12 31 17.5 56.5t5.5 39.5h19q0 -13 5.5 -39t17.5 -57l67 -175h-199zM371 -243q34 0 58 24t24 58t-24 58t-58 24t-58 -24t-24 -58t24 -58t58 -24zM198 782h110l56 72l56 -72h110l-103 136h-127z" />
    <glyph glyph-name="uni1EA6" unicode="&#x1ea6;" horiz-adv-x="728" 
d="M-6 0h156l69 176h291l68 -176h156l-283 700h-170zM332 468q12 31 17.5 56.5t5.5 39.5h19q0 -13 5.5 -39t17.5 -57l67 -175h-199zM198 782h110l56 72l56 -72h110l-103 136h-127zM511 856h112l-68 136h-138z" />
    <glyph glyph-name="uni1EA8" unicode="&#x1ea8;" horiz-adv-x="728" 
d="M-6 0h156l69 176h291l68 -176h156l-283 700h-170zM332 468q12 31 17.5 56.5t5.5 39.5h19q0 -13 5.5 -39t17.5 -57l67 -175h-199zM198 782h110l56 72l56 -72h110l-103 136h-127zM558 856q57 11 79.5 38t22.5 54q0 40 -28 64.5t-76 24.5q-46 0 -83 -20l20 -62q8 6 19.5 8.5
t21.5 2.5q24 0 35 -9.5t11 -24.5q0 -17 -13.5 -29t-40.5 -21z" />
    <glyph glyph-name="uni1EAA" unicode="&#x1eaa;" horiz-adv-x="728" 
d="M-6 0h156l69 176h291l68 -176h156l-283 700h-170zM332 468q12 31 17.5 56.5t5.5 39.5h19q0 -13 5.5 -39t17.5 -57l67 -175h-199zM419 1003q40 0 70 33.5t29 97.5h-73q-3 -25 -11.5 -35.5t-17.5 -10.5q-14 0 -28.5 13.5t-33 27t-44.5 13.5q-40 0 -70 -34.5t-28 -97.5h72
q3 24 11.5 35.5t17.5 11.5q15 0 29.5 -13.5t32.5 -27t44 -13.5zM198 782h110l56 72l56 -72h110l-103 136h-127z" />
    <glyph glyph-name="uni0200" unicode="&#x200;" horiz-adv-x="728" 
d="M-6 0h156l69 176h291l68 -176h156l-283 700h-170zM332 468q12 31 17.5 56.5t5.5 39.5h19q0 -13 5.5 -39t17.5 -57l67 -175h-199zM400 782h112l-69 136h-137zM217 782h112l-68 136h-138z" />
    <glyph glyph-name="Adieresis" unicode="&#xc4;" horiz-adv-x="728" 
d="M-6 0h156l69 176h291l68 -176h156l-283 700h-170zM332 468q12 31 17.5 56.5t5.5 39.5h19q0 -13 5.5 -39t17.5 -57l67 -175h-199zM271 782q31 0 53 22t22 53t-22 53t-53 22t-53 -22t-22 -53t22 -53t53 -22zM467 782q31 0 53 22t22 53t-22 53t-53 22t-53 -22t-22 -53
t22 -53t53 -22z" />
    <glyph glyph-name="uni1EA0" unicode="&#x1ea0;" horiz-adv-x="728" 
d="M-6 0h156l69 176h291l68 -176h156l-283 700h-170zM332 468q12 31 17.5 56.5t5.5 39.5h19q0 -13 5.5 -39t17.5 -57l67 -175h-199zM371 -243q34 0 58 24t24 58t-24 58t-58 24t-58 -24t-24 -58t24 -58t58 -24z" />
    <glyph glyph-name="Agrave" unicode="&#xc0;" horiz-adv-x="728" 
d="M-6 0h156l69 176h291l68 -176h156l-283 700h-170zM332 468q12 31 17.5 56.5t5.5 39.5h19q0 -13 5.5 -39t17.5 -57l67 -175h-199zM308 782h112l-68 136h-138z" />
    <glyph glyph-name="uni1EA2" unicode="&#x1ea2;" horiz-adv-x="728" 
d="M-6 0h156l69 176h291l68 -176h156l-283 700h-170zM332 468q12 31 17.5 56.5t5.5 39.5h19q0 -13 5.5 -39t17.5 -57l67 -175h-199zM355 782q57 11 79.5 38t22.5 54q0 40 -28 64.5t-76 24.5q-46 0 -83 -20l20 -62q8 6 19.5 8.5t21.5 2.5q24 0 35 -9.5t11 -24.5
q0 -17 -13.5 -29t-40.5 -21z" />
    <glyph glyph-name="uni0202" unicode="&#x202;" horiz-adv-x="728" 
d="M-6 0h156l69 176h291l68 -176h156l-283 700h-170zM332 468q12 31 17.5 56.5t5.5 39.5h19q0 -13 5.5 -39t17.5 -57l67 -175h-199zM212 782h91q0 29 17 47t45 18q27 0 44 -17.5t17 -47.5h91q0 62 -42 99t-110 37q-69 0 -111 -37t-42 -99z" />
    <glyph glyph-name="Amacron" unicode="&#x100;" horiz-adv-x="728" 
d="M-6 0h156l69 176h291l68 -176h156l-283 700h-170zM332 468q12 31 17.5 56.5t5.5 39.5h19q0 -13 5.5 -39t17.5 -57l67 -175h-199zM211 796h307v95h-307v-95z" />
    <glyph glyph-name="Aogonek" unicode="&#x104;" horiz-adv-x="728" 
d="M-6 0h156l69 176h291l68 -176h156l-283 700h-170zM332 468q12 31 17.5 56.5t5.5 39.5h19q0 -13 5.5 -39t17.5 -57l67 -175h-199zM624 -206q32 0 66.5 11t65.5 37l-37 66q-14 -14 -36.5 -22.5t-46.5 -8.5t-40 12t-16 36q0 25 24 48t85 38l-37 26q-78 -12 -120 -48.5
t-42 -86.5q0 -38 20 -61.5t50.5 -35t63.5 -11.5z" />
    <glyph glyph-name="Aring" unicode="&#xc5;" horiz-adv-x="728" 
d="M-6 0h156l69 176h291l68 -176h156l-283 700h-170zM332 468q12 31 17.5 56.5t5.5 39.5h19q0 -13 5.5 -39t17.5 -57l67 -175h-199zM364 782q54 0 89 34.5t35 81.5q0 49 -35 83t-89 34t-89 -34t-35 -83q0 -47 35 -81.5t89 -34.5zM364 849q-19 0 -34 13t-15 36q0 24 15 36.5
t34 12.5q20 0 35 -13.5t15 -35.5q0 -21 -15 -35t-35 -14z" />
    <glyph glyph-name="Aringacute" unicode="&#x1fa;" horiz-adv-x="728" 
d="M-6 0h156l69 176h291l68 -176h156l-283 700h-170zM332 468q12 31 17.5 56.5t5.5 39.5h19q0 -13 5.5 -39t17.5 -57l67 -175h-199zM364 782q54 0 89 34.5t35 81.5q0 38 -21 67l85 123h-138l-36 -74q-7 1 -14 1q-54 0 -89 -34t-35 -83q0 -47 35 -81.5t89 -34.5zM364 849
q-19 0 -34 13t-15 36q0 24 15 36.5t34 12.5q20 0 35 -13.5t15 -35.5q0 -21 -15 -35t-35 -14z" />
    <glyph glyph-name="Atilde" unicode="&#xc3;" horiz-adv-x="728" 
d="M-6 0h156l69 176h291l68 -176h156l-283 700h-170zM332 468q12 31 17.5 56.5t5.5 39.5h19q0 -13 5.5 -39t17.5 -57l67 -175h-199zM425 785q43 0 77 33.5t32 97.5h-81q-3 -25 -12.5 -35.5t-19.5 -10.5q-16 0 -32 13.5t-36.5 27t-49.5 13.5q-44 0 -77.5 -34.5t-32.5 -97.5
h82q3 24 12.5 35.5t19.5 11.5q16 0 32 -13.5t36 -27t50 -13.5z" />
    <glyph glyph-name="AE" unicode="&#xc6;" horiz-adv-x="945" 
d="M-6 0h156l69 176h291l68 -176h333v127h-228l-70 172h221v122h-270l-62 152h407v127h-628zM332 468q12 31 17.5 56.5t5.5 39.5h19q0 -13 5.5 -39t17.5 -57l67 -175h-199z" />
    <glyph glyph-name="AEacute" unicode="&#x1fc;" horiz-adv-x="945" 
d="M-6 0h156l69 176h291l68 -176h333v127h-228l-70 172h221v122h-270l-62 152h407v127h-628zM332 468q12 31 17.5 56.5t5.5 39.5h19q0 -13 5.5 -39t17.5 -57l67 -175h-199zM540 782h112l94 136h-137z" />
    <glyph glyph-name="B" unicode="B" horiz-adv-x="720" 
d="M84 0h351q73 0 127 24t84 68t30 102q0 74 -37 109.5t-109 45.5v19q64 15 93 47t29 93q0 92 -60 142t-161 50h-347v-700zM229 408v173h188q42 0 67.5 -24t25.5 -64q0 -38 -25.5 -61.5t-67.5 -23.5h-188zM229 119v173h206q42 0 68.5 -24t26.5 -62q0 -39 -26 -63t-69 -24
h-206z" />
    <glyph glyph-name="C" unicode="C" horiz-adv-x="735" 
d="M393 -12q82 0 150 26t114 74t64 113l-143 27q-19 -47 -65.5 -77t-119.5 -30q-63 0 -112.5 29.5t-78 81t-28.5 118.5t28.5 118.5t78 81t112.5 29.5q73 0 119.5 -30t65.5 -77l143 27q-18 65 -64 113t-114 74t-150 26q-81 0 -148 -26.5t-116.5 -75.5t-77 -115t-27.5 -145
t27.5 -145t77 -115t116.5 -75.5t148 -26.5z" />
    <glyph glyph-name="Cacute" unicode="&#x106;" horiz-adv-x="735" 
d="M393 -12q82 0 150 26t114 74t64 113l-143 27q-19 -47 -65.5 -77t-119.5 -30q-63 0 -112.5 29.5t-78 81t-28.5 118.5t28.5 118.5t78 81t112.5 29.5q73 0 119.5 -30t65.5 -77l143 27q-18 65 -64 113t-114 74t-150 26q-81 0 -148 -26.5t-116.5 -75.5t-77 -115t-27.5 -145
t27.5 -145t77 -115t116.5 -75.5t148 -26.5zM313 782h112l94 136h-137z" />
    <glyph glyph-name="Ccaron" unicode="&#x10c;" horiz-adv-x="735" 
d="M393 -12q82 0 150 26t114 74t64 113l-143 27q-19 -47 -65.5 -77t-119.5 -30q-63 0 -112.5 29.5t-78 81t-28.5 118.5t28.5 118.5t78 81t112.5 29.5q73 0 119.5 -30t65.5 -77l143 27q-18 65 -64 113t-114 74t-150 26q-81 0 -148 -26.5t-116.5 -75.5t-77 -115t-27.5 -145
t27.5 -145t77 -115t116.5 -75.5t148 -26.5zM305 782h127l103 136h-110l-56 -72l-56 72h-110z" />
    <glyph glyph-name="Ccedilla" unicode="&#xc7;" horiz-adv-x="735" 
d="M393 -12q82 0 150 26t114 74t64 113l-143 27q-19 -47 -65.5 -77t-119.5 -30q-63 0 -112.5 29.5t-78 81t-28.5 118.5t28.5 118.5t78 81t112.5 29.5q73 0 119.5 -30t65.5 -77l143 27q-18 65 -64 113t-114 74t-150 26q-81 0 -148 -26.5t-116.5 -75.5t-77 -115t-27.5 -145
t27.5 -145t77 -115t116.5 -75.5t148 -26.5zM372 -226q58 0 91.5 28t33.5 80q0 42 -27.5 66t-71.5 24h-5l12 46h-72l-28 -107q25 9 54 9q49 0 49 -33q0 -17 -14 -24.5t-39 -7.5q-16 0 -35 5.5t-34 17.5l-40 -56q23 -23 56.5 -35.5t69.5 -12.5z" />
    <glyph glyph-name="uni1E08" unicode="&#x1e08;" horiz-adv-x="735" 
d="M393 -12q82 0 150 26t114 74t64 113l-143 27q-19 -47 -65.5 -77t-119.5 -30q-63 0 -112.5 29.5t-78 81t-28.5 118.5t28.5 118.5t78 81t112.5 29.5q73 0 119.5 -30t65.5 -77l143 27q-18 65 -64 113t-114 74t-150 26q-81 0 -148 -26.5t-116.5 -75.5t-77 -115t-27.5 -145
t27.5 -145t77 -115t116.5 -75.5t148 -26.5zM372 -226q58 0 91.5 28t33.5 80q0 42 -27.5 66t-71.5 24h-5l12 46h-72l-28 -107q25 9 54 9q49 0 49 -33q0 -17 -14 -24.5t-39 -7.5q-16 0 -35 5.5t-34 17.5l-40 -56q23 -23 56.5 -35.5t69.5 -12.5zM313 782h112l94 136h-137z" />
    <glyph glyph-name="Ccircumflex" unicode="&#x108;" horiz-adv-x="735" 
d="M393 -12q82 0 150 26t114 74t64 113l-143 27q-19 -47 -65.5 -77t-119.5 -30q-63 0 -112.5 29.5t-78 81t-28.5 118.5t28.5 118.5t78 81t112.5 29.5q73 0 119.5 -30t65.5 -77l143 27q-18 65 -64 113t-114 74t-150 26q-81 0 -148 -26.5t-116.5 -75.5t-77 -115t-27.5 -145
t27.5 -145t77 -115t116.5 -75.5t148 -26.5zM203 782h110l56 72l56 -72h110l-103 136h-127z" />
    <glyph glyph-name="Cdotaccent" unicode="&#x10a;" horiz-adv-x="735" 
d="M393 -12q82 0 150 26t114 74t64 113l-143 27q-19 -47 -65.5 -77t-119.5 -30q-63 0 -112.5 29.5t-78 81t-28.5 118.5t28.5 118.5t78 81t112.5 29.5q73 0 119.5 -30t65.5 -77l143 27q-18 65 -64 113t-114 74t-150 26q-81 0 -148 -26.5t-116.5 -75.5t-77 -115t-27.5 -145
t27.5 -145t77 -115t116.5 -75.5t148 -26.5zM376 782q32 0 55 22.5t23 55.5q0 32 -23 55t-55 23q-33 0 -56 -23t-23 -55q0 -33 23 -55.5t56 -22.5z" />
    <glyph glyph-name="D" unicode="D" horiz-adv-x="747" 
d="M84 0h268q108 0 191.5 45t131 124t47.5 181t-47.5 181t-131 124t-191.5 45h-268v-700zM221 127v446h131q64 0 113.5 -29t78 -79.5t28.5 -114.5t-28.5 -114.5t-78 -79.5t-113.5 -29h-131z" />
    <glyph glyph-name="uni01C4" unicode="&#x1c4;" horiz-adv-x="1345" 
d="M84 0h268q108 0 191.5 45t131 124t47.5 181t-47.5 181t-131 124t-191.5 45h-268v-700zM221 127v446h131q64 0 113.5 -29t78 -79.5t28.5 -114.5t-28.5 -114.5t-78 -79.5t-113.5 -29h-131zM755 0h595v127h-353q-22 0 -36.5 -6.5t-24.5 -10.5l-8 19q12 6 25 13.5t26 22.5
l349 426v109h-554v-127h313q22 0 36 6t24 10l8 -19q-10 -5 -23.5 -11.5t-27.5 -23.5l-349 -426v-109zM988 782h127l103 136h-110l-56 -72l-56 72h-110z" />
    <glyph glyph-name="Eth" unicode="&#xd0;" horiz-adv-x="747" 
d="M84 0h268q108 0 191.5 45t131 124t47.5 181t-47.5 181t-131 124t-191.5 45h-268v-298h-88v-104h88v-298zM221 127v171h88v104h-88v171h131q64 0 113.5 -29t78 -79.5t28.5 -114.5t-28.5 -114.5t-78 -79.5t-113.5 -29h-131z" />
    <glyph glyph-name="Dcaron" unicode="&#x10e;" horiz-adv-x="747" 
d="M84 0h268q108 0 191.5 45t131 124t47.5 181t-47.5 181t-131 124t-191.5 45h-268v-700zM221 127v446h131q64 0 113.5 -29t78 -79.5t28.5 -114.5t-28.5 -114.5t-78 -79.5t-113.5 -29h-131zM318 782h127l103 136h-110l-56 -72l-56 72h-110z" />
    <glyph glyph-name="Dcroat" unicode="&#x110;" horiz-adv-x="747" 
d="M84 0h268q108 0 191.5 45t131 124t47.5 181t-47.5 181t-131 124t-191.5 45h-268v-298h-88v-104h88v-298zM221 127v171h88v104h-88v171h131q64 0 113.5 -29t78 -79.5t28.5 -114.5t-28.5 -114.5t-78 -79.5t-113.5 -29h-131z" />
    <glyph glyph-name="uni1E0C" unicode="&#x1e0c;" horiz-adv-x="747" 
d="M84 0h268q108 0 191.5 45t131 124t47.5 181t-47.5 181t-131 124t-191.5 45h-268v-700zM221 127v446h131q64 0 113.5 -29t78 -79.5t28.5 -114.5t-28.5 -114.5t-78 -79.5t-113.5 -29h-131zM388 -243q34 0 58 24t24 58t-24 58t-58 24t-58 -24t-24 -58t24 -58t58 -24z" />
    <glyph glyph-name="Dmacronbelow" unicode="&#x1e0e;" horiz-adv-x="747" 
d="M84 0h268q108 0 191.5 45t131 124t47.5 181t-47.5 181t-131 124t-191.5 45h-268v-700zM221 127v446h131q64 0 113.5 -29t78 -79.5t28.5 -114.5t-28.5 -114.5t-78 -79.5t-113.5 -29h-131zM213 -173h307v95h-307v-95z" />
    <glyph glyph-name="uni01C5" unicode="&#x1c5;" horiz-adv-x="1201" 
d="M84 0h268q108 0 191.5 45t131 124t47.5 181t-47.5 181t-131 124t-191.5 45h-268v-700zM221 127v446h131q64 0 113.5 -29t78 -79.5t28.5 -114.5t-28.5 -114.5t-78 -79.5t-113.5 -29h-131zM755 0h451v115h-220q-22 0 -36.5 -6t-23.5 -11l-8 20q14 5 26.5 13t23.5 22
l229 268v97h-428v-114h200q22 0 37 5.5t24 10.5l8 -20q-10 -5 -23.5 -11.5t-27.5 -22.5l-232 -269v-97zM917 600h127l103 136h-110l-56 -72l-56 72h-110z" />
    <glyph glyph-name="E" unicode="E" horiz-adv-x="660" 
d="M84 0h541v127h-404v172h327v122h-327v152h403v127h-540v-700z" />
    <glyph glyph-name="Eacute" unicode="&#xc9;" horiz-adv-x="660" 
d="M84 0h541v127h-404v172h327v122h-327v152h403v127h-540v-700zM282 782h112l94 136h-137z" />
    <glyph glyph-name="Ebreve" unicode="&#x114;" horiz-adv-x="660" 
d="M84 0h541v127h-404v172h327v122h-327v152h403v127h-540v-700zM338 782q68 0 110 37t42 99h-91q0 -30 -17 -47.5t-44 -17.5q-28 0 -45 18t-17 47h-91q0 -62 42 -99t111 -37z" />
    <glyph glyph-name="Ecaron" unicode="&#x11a;" horiz-adv-x="660" 
d="M84 0h541v127h-404v172h327v122h-327v152h403v127h-540v-700zM274 782h127l103 136h-110l-56 -72l-56 72h-110z" />
    <glyph glyph-name="uni1E1C" unicode="&#x1e1c;" horiz-adv-x="660" 
d="M84 0h541v127h-404v172h327v122h-327v152h403v127h-540v-700zM341 -226q58 0 91.5 28t33.5 80q0 42 -27.5 66t-71.5 24h-5l12 46h-72l-28 -107q25 9 54 9q49 0 49 -33q0 -17 -14 -24.5t-39 -7.5q-16 0 -35 5.5t-34 17.5l-40 -56q23 -23 56.5 -35.5t69.5 -12.5zM338 782
q68 0 110 37t42 99h-91q0 -30 -17 -47.5t-44 -17.5q-28 0 -45 18t-17 47h-91q0 -62 42 -99t111 -37z" />
    <glyph glyph-name="Ecircumflex" unicode="&#xca;" horiz-adv-x="660" 
d="M84 0h541v127h-404v172h327v122h-327v152h403v127h-540v-700zM172 782h110l56 72l56 -72h110l-103 136h-127z" />
    <glyph glyph-name="uni1EBE" unicode="&#x1ebe;" horiz-adv-x="660" 
d="M84 0h541v127h-404v172h327v122h-327v152h403v127h-540v-700zM172 782h110l56 72l56 -72h110l-103 136h-127zM485 856h112l94 136h-137z" />
    <glyph glyph-name="uni1EC6" unicode="&#x1ec6;" horiz-adv-x="660" 
d="M84 0h541v127h-404v172h327v122h-327v152h403v127h-540v-700zM344 -243q34 0 58 24t24 58t-24 58t-58 24t-58 -24t-24 -58t24 -58t58 -24zM172 782h110l56 72l56 -72h110l-103 136h-127z" />
    <glyph glyph-name="uni1EC0" unicode="&#x1ec0;" horiz-adv-x="660" 
d="M84 0h541v127h-404v172h327v122h-327v152h403v127h-540v-700zM172 782h110l56 72l56 -72h110l-103 136h-127zM485 856h112l-68 136h-138z" />
    <glyph glyph-name="uni1EC2" unicode="&#x1ec2;" horiz-adv-x="660" 
d="M84 0h541v127h-404v172h327v122h-327v152h403v127h-540v-700zM172 782h110l56 72l56 -72h110l-103 136h-127zM532 856q57 11 79.5 38t22.5 54q0 40 -28 64.5t-76 24.5q-46 0 -83 -20l20 -62q8 6 19.5 8.5t21.5 2.5q24 0 35 -9.5t11 -24.5q0 -17 -13.5 -29t-40.5 -21z" />
    <glyph glyph-name="uni1EC4" unicode="&#x1ec4;" horiz-adv-x="660" 
d="M84 0h541v127h-404v172h327v122h-327v152h403v127h-540v-700zM392 1003q40 0 70 33.5t29 97.5h-73q-3 -25 -11.5 -35.5t-17.5 -10.5q-14 0 -28.5 13.5t-33 27t-44.5 13.5q-40 0 -70 -34.5t-28 -97.5h72q3 24 11.5 35.5t17.5 11.5q15 0 29.5 -13.5t32.5 -27t44 -13.5z
M171 782h110l56 72l56 -72h110l-103 136h-127z" />
    <glyph glyph-name="uni0204" unicode="&#x204;" horiz-adv-x="660" 
d="M84 0h541v127h-404v172h327v122h-327v152h403v127h-540v-700zM373 782h112l-69 136h-137zM190 782h112l-68 136h-138z" />
    <glyph glyph-name="Edieresis" unicode="&#xcb;" horiz-adv-x="660" 
d="M84 0h541v127h-404v172h327v122h-327v152h403v127h-540v-700zM244 782q31 0 53 22t22 53t-22 53t-53 22t-53 -22t-22 -53t22 -53t53 -22zM440 782q31 0 53 22t22 53t-22 53t-53 22t-53 -22t-22 -53t22 -53t53 -22z" />
    <glyph glyph-name="Edotaccent" unicode="&#x116;" horiz-adv-x="660" 
d="M84 0h541v127h-404v172h327v122h-327v152h403v127h-540v-700zM345 782q32 0 55 22.5t23 55.5q0 32 -23 55t-55 23q-33 0 -56 -23t-23 -55q0 -33 23 -55.5t56 -22.5z" />
    <glyph glyph-name="uni1EB8" unicode="&#x1eb8;" horiz-adv-x="660" 
d="M84 0h541v127h-404v172h327v122h-327v152h403v127h-540v-700zM344 -243q34 0 58 24t24 58t-24 58t-58 24t-58 -24t-24 -58t24 -58t58 -24z" />
    <glyph glyph-name="Egrave" unicode="&#xc8;" horiz-adv-x="660" 
d="M84 0h541v127h-404v172h327v122h-327v152h403v127h-540v-700zM282 782h112l-68 136h-138z" />
    <glyph glyph-name="uni1EBA" unicode="&#x1eba;" horiz-adv-x="660" 
d="M84 0h541v127h-404v172h327v122h-327v152h403v127h-540v-700zM329 782q57 11 79.5 38t22.5 54q0 40 -28 64.5t-76 24.5q-46 0 -83 -20l20 -62q8 6 19.5 8.5t21.5 2.5q24 0 35 -9.5t11 -24.5q0 -17 -13.5 -29t-40.5 -21z" />
    <glyph glyph-name="uni0206" unicode="&#x206;" horiz-adv-x="660" 
d="M84 0h541v127h-404v172h327v122h-327v152h403v127h-540v-700zM185 782h91q0 29 17 47t45 18q27 0 44 -17.5t17 -47.5h91q0 62 -42 99t-110 37q-69 0 -111 -37t-42 -99z" />
    <glyph glyph-name="Emacron" unicode="&#x112;" horiz-adv-x="660" 
d="M84 0h541v127h-404v172h327v122h-327v152h403v127h-540v-700zM184 796h307v95h-307v-95z" />
    <glyph glyph-name="uni1E16" unicode="&#x1e16;" horiz-adv-x="660" 
d="M84 0h541v127h-404v172h327v122h-327v152h403v127h-540v-700zM184 796h307v95h-307v-95zM282 974h112l94 136h-137z" />
    <glyph glyph-name="uni1E14" unicode="&#x1e14;" horiz-adv-x="660" 
d="M84 0h541v127h-404v172h327v122h-327v152h403v127h-540v-700zM184 796h307v95h-307v-95zM282 974h112l-68 136h-138z" />
    <glyph glyph-name="Eogonek" unicode="&#x118;" horiz-adv-x="660" 
d="M84 0h541v127h-404v172h327v122h-327v152h403v127h-540v-700zM497 -208q32 0 66.5 11t65.5 37l-37 66q-14 -14 -36.5 -22.5t-46.5 -8.5t-40 12t-16 36q0 25 24 48t85 38l-37 26q-78 -12 -120 -48.5t-42 -86.5q0 -38 20 -61.5t50.5 -35t63.5 -11.5z" />
    <glyph glyph-name="uni1EBC" unicode="&#x1ebc;" horiz-adv-x="660" 
d="M84 0h541v127h-404v172h327v122h-327v152h403v127h-540v-700zM399 785q43 0 77 33.5t32 97.5h-81q-3 -25 -12.5 -35.5t-19.5 -10.5q-16 0 -32 13.5t-36.5 27t-49.5 13.5q-44 0 -77.5 -34.5t-32.5 -97.5h82q3 24 12.5 35.5t19.5 11.5q16 0 32 -13.5t36 -27t50 -13.5z" />
    <glyph glyph-name="uni018F" unicode="&#x18f;" horiz-adv-x="745" 
d="M360 -12q79 0 145 26.5t114.5 75.5t75 115t26.5 145t-27.5 145t-76.5 115t-116.5 75.5t-147.5 26.5q-83 0 -151 -26t-114 -74t-63 -113l142 -27q20 47 66.5 77t119.5 30q58 0 104.5 -25t76 -70t35.5 -104l-542 2l-13 -38q0 -171 91.5 -263.5t254.5 -92.5zM360 121
q-47 0 -88 14.5t-69 47.5t-35 89h393q-20 -71 -74 -111t-127 -40z" />
    <glyph glyph-name="F" unicode="F" horiz-adv-x="620" 
d="M84 0h137v299h343v122h-343v152h395v127h-532v-700z" />
    <glyph glyph-name="G" unicode="G" horiz-adv-x="745" 
d="M393 -12q78 0 142.5 24t111 66.5t72 97t25.5 115.5v94h-351v-125h207q-16 -52 -47.5 -82.5t-71 -43.5t-80.5 -13q-66 0 -117 29.5t-80.5 81t-29.5 118.5t28.5 118.5t78 81t112.5 29.5q73 0 119.5 -34t65.5 -89l143 43q-18 65 -64 113t-114 74t-150 26q-81 0 -148 -26.5
t-116.5 -75.5t-77 -115t-27.5 -145t27.5 -145t77 -115t116.5 -75.5t148 -26.5z" />
    <glyph glyph-name="Gbreve" unicode="&#x11e;" horiz-adv-x="745" 
d="M393 -12q78 0 142.5 24t111 66.5t72 97t25.5 115.5v94h-351v-125h207q-16 -52 -47.5 -82.5t-71 -43.5t-80.5 -13q-66 0 -117 29.5t-80.5 81t-29.5 118.5t28.5 118.5t78 81t112.5 29.5q73 0 119.5 -34t65.5 -89l143 43q-18 65 -64 113t-114 74t-150 26q-81 0 -148 -26.5
t-116.5 -75.5t-77 -115t-27.5 -145t27.5 -145t77 -115t116.5 -75.5t148 -26.5zM378 782q68 0 110 37t42 99h-91q0 -30 -17 -47.5t-44 -17.5q-28 0 -45 18t-17 47h-91q0 -62 42 -99t111 -37z" />
    <glyph glyph-name="Gcaron" unicode="&#x1e6;" horiz-adv-x="745" 
d="M393 -12q78 0 142.5 24t111 66.5t72 97t25.5 115.5v94h-351v-125h207q-16 -52 -47.5 -82.5t-71 -43.5t-80.5 -13q-66 0 -117 29.5t-80.5 81t-29.5 118.5t28.5 118.5t78 81t112.5 29.5q73 0 119.5 -34t65.5 -89l143 43q-18 65 -64 113t-114 74t-150 26q-81 0 -148 -26.5
t-116.5 -75.5t-77 -115t-27.5 -145t27.5 -145t77 -115t116.5 -75.5t148 -26.5zM313 782h127l103 136h-110l-56 -72l-56 72h-110z" />
    <glyph glyph-name="Gcircumflex" unicode="&#x11c;" horiz-adv-x="745" 
d="M393 -12q78 0 142.5 24t111 66.5t72 97t25.5 115.5v94h-351v-125h207q-16 -52 -47.5 -82.5t-71 -43.5t-80.5 -13q-66 0 -117 29.5t-80.5 81t-29.5 118.5t28.5 118.5t78 81t112.5 29.5q73 0 119.5 -34t65.5 -89l143 43q-18 65 -64 113t-114 74t-150 26q-81 0 -148 -26.5
t-116.5 -75.5t-77 -115t-27.5 -145t27.5 -145t77 -115t116.5 -75.5t148 -26.5zM211 782h110l56 72l56 -72h110l-103 136h-127z" />
    <glyph glyph-name="uni0122" unicode="&#x122;" horiz-adv-x="745" 
d="M393 -12q78 0 142.5 24t111 66.5t72 97t25.5 115.5v94h-351v-125h207q-16 -52 -47.5 -82.5t-71 -43.5t-80.5 -13q-66 0 -117 29.5t-80.5 81t-29.5 118.5t28.5 118.5t78 81t112.5 29.5q73 0 119.5 -34t65.5 -89l143 43q-18 65 -64 113t-114 74t-150 26q-81 0 -148 -26.5
t-116.5 -75.5t-77 -115t-27.5 -145t27.5 -145t77 -115t116.5 -75.5t148 -26.5zM312 -348h14q70 0 105 47t35 120q0 47 -22 74.5t-60 27.5q-34 0 -58 -22.5t-24 -59.5q0 -32 21.5 -55t53.5 -26q-2 -21 -15.5 -34t-39.5 -13h-10v-59z" />
    <glyph glyph-name="Gdotaccent" unicode="&#x120;" horiz-adv-x="745" 
d="M393 -12q78 0 142.5 24t111 66.5t72 97t25.5 115.5v94h-351v-125h207q-16 -52 -47.5 -82.5t-71 -43.5t-80.5 -13q-66 0 -117 29.5t-80.5 81t-29.5 118.5t28.5 118.5t78 81t112.5 29.5q73 0 119.5 -34t65.5 -89l143 43q-18 65 -64 113t-114 74t-150 26q-81 0 -148 -26.5
t-116.5 -75.5t-77 -115t-27.5 -145t27.5 -145t77 -115t116.5 -75.5t148 -26.5zM385 782q32 0 55 22.5t23 55.5q0 32 -23 55t-55 23q-33 0 -56 -23t-23 -55q0 -33 23 -55.5t56 -22.5z" />
    <glyph glyph-name="uni1E20" unicode="&#x1e20;" horiz-adv-x="745" 
d="M393 -12q78 0 142.5 24t111 66.5t72 97t25.5 115.5v94h-351v-125h207q-16 -52 -47.5 -82.5t-71 -43.5t-80.5 -13q-66 0 -117 29.5t-80.5 81t-29.5 118.5t28.5 118.5t78 81t112.5 29.5q73 0 119.5 -34t65.5 -89l143 43q-18 65 -64 113t-114 74t-150 26q-81 0 -148 -26.5
t-116.5 -75.5t-77 -115t-27.5 -145t27.5 -145t77 -115t116.5 -75.5t148 -26.5zM224 796h307v95h-307v-95z" />
    <glyph glyph-name="H" unicode="H" horiz-adv-x="782" 
d="M84 0h145v287h324v-287h145v700h-145v-280h-324v280h-145v-700z" />
    <glyph glyph-name="Hbar" unicode="&#x126;" horiz-adv-x="782" 
d="M84 0h145v287h324v-287h145v506h81v103h-81v91h-145v-91h-324v91h-145v-91h-67v-103h67v-506zM229 420v86h324v-86h-324z" />
    <glyph glyph-name="uni1E2A" unicode="&#x1e2a;" horiz-adv-x="782" 
d="M84 0h145v287h324v-287h145v700h-145v-280h-324v280h-145v-700zM386 -215q68 0 110 37t42 99h-91q0 -30 -17 -47.5t-44 -17.5q-28 0 -45 18t-17 47h-91q0 -62 42 -99t111 -37z" />
    <glyph glyph-name="Hcircumflex" unicode="&#x124;" horiz-adv-x="782" 
d="M84 0h145v287h324v-287h145v700h-145v-280h-324v280h-145v-700zM233 782h110l56 72l56 -72h110l-103 136h-127z" />
    <glyph glyph-name="uni1E24" unicode="&#x1e24;" horiz-adv-x="782" 
d="M84 0h145v287h324v-287h145v700h-145v-280h-324v280h-145v-700zM405 -243q34 0 58 24t24 58t-24 58t-58 24t-58 -24t-24 -58t24 -58t58 -24z" />
    <glyph glyph-name="I" unicode="I" horiz-adv-x="313" 
d="M84 0h145v700h-145v-700z" />
    <glyph glyph-name="Iacute" unicode="&#xcd;" horiz-adv-x="313" 
d="M84 0h145v700h-145v-700zM100 782h112l94 136h-137z" />
    <glyph glyph-name="Ibreve" unicode="&#x12c;" horiz-adv-x="313" 
d="M84 0h145v700h-145v-700zM157 782q68 0 110 37t42 99h-91q0 -30 -17 -47.5t-44 -17.5q-28 0 -45 18t-17 47h-91q0 -62 42 -99t111 -37z" />
    <glyph glyph-name="Icircumflex" unicode="&#xce;" horiz-adv-x="313" 
d="M84 0h145v700h-145v-700zM-10 782h110l56 72l56 -72h110l-103 136h-127z" />
    <glyph glyph-name="uni0208" unicode="&#x208;" horiz-adv-x="313" 
d="M84 0h145v700h-145v-700zM192 782h112l-69 136h-137zM9 782h112l-68 136h-138z" />
    <glyph glyph-name="Idieresis" unicode="&#xcf;" horiz-adv-x="313" 
d="M84 0h145v700h-145v-700zM63 782q31 0 53 22t22 53t-22 53t-53 22t-53 -22t-22 -53t22 -53t53 -22zM259 782q31 0 53 22t22 53t-22 53t-53 22t-53 -22t-22 -53t22 -53t53 -22z" />
    <glyph glyph-name="uni1E2E" unicode="&#x1e2e;" horiz-adv-x="313" 
d="M84 0h145v700h-145v-700zM63 782q31 0 53 22t22 53t-22 53t-53 22t-53 -22t-22 -53t22 -53t53 -22zM259 782q31 0 53 22t22 53t-22 53t-53 22t-53 -22t-22 -53t22 -53t53 -22zM100 1029h112l94 136h-137z" />
    <glyph glyph-name="Idotaccent" unicode="&#x130;" horiz-adv-x="313" 
d="M84 0h145v700h-145v-700zM164 782q32 0 55 22.5t23 55.5q0 32 -23 55t-55 23q-33 0 -56 -23t-23 -55q0 -33 23 -55.5t56 -22.5z" />
    <glyph glyph-name="uni1ECA" unicode="&#x1eca;" horiz-adv-x="313" 
d="M84 0h145v700h-145v-700zM163 -243q34 0 58 24t24 58t-24 58t-58 24t-58 -24t-24 -58t24 -58t58 -24z" />
    <glyph glyph-name="Igrave" unicode="&#xcc;" horiz-adv-x="313" 
d="M84 0h145v700h-145v-700zM101 782h112l-68 136h-138z" />
    <glyph glyph-name="uni1EC8" unicode="&#x1ec8;" horiz-adv-x="313" 
d="M84 0h145v700h-145v-700zM148 782q57 11 79.5 38t22.5 54q0 40 -28 64.5t-76 24.5q-46 0 -83 -20l20 -62q8 6 19.5 8.5t21.5 2.5q24 0 35 -9.5t11 -24.5q0 -17 -13.5 -29t-40.5 -21z" />
    <glyph glyph-name="uni020A" unicode="&#x20a;" horiz-adv-x="313" 
d="M84 0h145v700h-145v-700zM4 782h91q0 29 17 47t45 18q27 0 44 -17.5t17 -47.5h91q0 62 -42 99t-110 37q-69 0 -111 -37t-42 -99z" />
    <glyph glyph-name="Imacron" unicode="&#x12a;" horiz-adv-x="313" 
d="M84 0h145v700h-145v-700zM3 796h307v95h-307v-95z" />
    <glyph glyph-name="Iogonek" unicode="&#x12e;" horiz-adv-x="313" 
d="M84 0h145v700h-145v-700zM125 -208q32 0 66.5 11t65.5 37l-37 66q-14 -14 -36.5 -22.5t-46.5 -8.5t-40 12t-16 36q0 25 24 48t85 38l-37 26q-78 -12 -120 -48.5t-42 -86.5q0 -38 20 -61.5t50.5 -35t63.5 -11.5z" />
    <glyph glyph-name="Itilde" unicode="&#x128;" horiz-adv-x="313" 
d="M84 0h145v700h-145v-700zM218 785q43 0 77 33.5t32 97.5h-81q-3 -25 -12.5 -35.5t-19.5 -10.5q-16 0 -32 13.5t-36.5 27t-49.5 13.5q-44 0 -77.5 -34.5t-32.5 -97.5h82q3 24 12.5 35.5t19.5 11.5q16 0 32 -13.5t36 -27t50 -13.5z" />
    <glyph glyph-name="J" unicode="J" horiz-adv-x="621" 
d="M270 -12q80 0 140 33t93.5 93.5t33.5 142.5v443h-145v-443q0 -63 -34 -99.5t-88 -36.5t-88.5 32t-44.5 84l-143 -26q8 -68 45 -118t96.5 -77.5t134.5 -27.5z" />
    <glyph glyph-name="Jcircumflex" unicode="&#x134;" horiz-adv-x="621" 
d="M270 -12q80 0 140 33t93.5 93.5t33.5 142.5v443h-145v-443q0 -63 -34 -99.5t-88 -36.5t-88.5 32t-44.5 84l-143 -26q8 -68 45 -118t96.5 -77.5t134.5 -27.5zM298 782h110l56 72l56 -72h110l-103 136h-127z" />
    <glyph glyph-name="K" unicode="K" horiz-adv-x="726" 
d="M84 0h145v223l85 80l236 -303h182l-315 406l306 294h-183l-263 -245q-18 -17 -29.5 -36t-15.5 -28l-19 8q4 10 10 33t6 51v217h-145v-700z" />
    <glyph glyph-name="uni0136" unicode="&#x136;" horiz-adv-x="726" 
d="M84 0h145v223l85 80l236 -303h182l-315 406l306 294h-183l-263 -245q-18 -17 -29.5 -36t-15.5 -28l-19 8q4 10 10 33t6 51v217h-145v-700zM312 -348h14q70 0 105 47t35 120q0 47 -22 74.5t-60 27.5q-34 0 -58 -22.5t-24 -59.5q0 -32 21.5 -55t53.5 -26q-2 -21 -15.5 -34
t-39.5 -13h-10v-59z" />
    <glyph glyph-name="L" unicode="L" horiz-adv-x="614" 
d="M84 0h525v127h-380v573h-145v-700z" />
    <glyph glyph-name="uni01C7" unicode="&#x1c7;" horiz-adv-x="1235" 
d="M84 0h525v127h-380v573h-145v-700zM884 -12q80 0 140 33t93.5 93.5t33.5 142.5v443h-145v-443q0 -63 -34 -99.5t-88 -36.5t-88.5 32t-44.5 84l-143 -26q8 -68 45 -118t96.5 -77.5t134.5 -27.5z" />
    <glyph glyph-name="Lacute" unicode="&#x139;" horiz-adv-x="614" 
d="M84 0h525v127h-380v573h-145v-700zM100 782h112l94 136h-137z" />
    <glyph glyph-name="Lcaron" unicode="&#x13d;" horiz-adv-x="614" 
d="M84 0h525v127h-380v573h-145v-700zM439 528h106l23 172h-129v-172z" />
    <glyph glyph-name="uni013B" unicode="&#x13b;" horiz-adv-x="614" 
d="M84 0h525v127h-380v573h-145v-700zM254 -348h14q70 0 105 47t35 120q0 47 -22 74.5t-60 27.5q-34 0 -58 -22.5t-24 -59.5q0 -32 21.5 -55t53.5 -26q-2 -21 -15.5 -34t-39.5 -13h-10v-59z" />
    <glyph glyph-name="Ldot" unicode="&#x13f;" horiz-adv-x="614" 
d="M84 0h525v127h-380v573h-145v-700zM419 268q34 0 58 24t24 58t-24 58t-58 24t-58 -24t-24 -58t24 -58t58 -24z" />
    <glyph glyph-name="uni1E36" unicode="&#x1e36;" horiz-adv-x="614" 
d="M84 0h525v127h-380v573h-145v-700zM325 -243q34 0 58 24t24 58t-24 58t-58 24t-58 -24t-24 -58t24 -58t58 -24z" />
    <glyph glyph-name="uni01C8" unicode="&#x1c8;" horiz-adv-x="899" 
d="M84 0h525v127h-380v573h-145v-700zM757 577q33 0 56.5 23.5t23.5 56.5t-23.5 56.5t-56.5 23.5t-56 -23.5t-23 -56.5t23 -56.5t56 -23.5zM637 -214q94 0 141.5 47.5t47.5 134.5v550h-137v-550q0 -35 -14.5 -50t-50.5 -15q-29 0 -57 7v-117q16 -3 34 -5t36 -2z" />
    <glyph glyph-name="Lmacronbelow" unicode="&#x1e3a;" horiz-adv-x="614" 
d="M84 0h525v127h-380v573h-145v-700zM149 -173h307v95h-307v-95z" />
    <glyph glyph-name="Lslash" unicode="&#x141;" horiz-adv-x="614" 
d="M84 0h525v127h-380v195l85 26v104l-85 -27v275h-145v-322l-84 -26v-104l84 27v-275z" />
    <glyph glyph-name="M" unicode="M" horiz-adv-x="931" 
d="M84 0h137v394q0 36 -4.5 64t-7.5 39l20 5q2 -14 7.5 -40t18.5 -59l165 -403h90l167 403q14 34 19 61t7 38l20 -5q-3 -14 -8 -41.5t-5 -61.5v-394h137v700h-196l-154 -388q-14 -37 -18 -62.5t-4 -36.5h-20q0 11 -4 37t-18 62l-152 388h-197v-700z" />
    <glyph glyph-name="uni1E42" unicode="&#x1e42;" horiz-adv-x="931" 
d="M84 0h137v394q0 36 -4.5 64t-7.5 39l20 5q2 -14 7.5 -40t18.5 -59l165 -403h90l167 403q14 34 19 61t7 38l20 -5q-3 -14 -8 -41.5t-5 -61.5v-394h137v700h-196l-154 -388q-14 -37 -18 -62.5t-4 -36.5h-20q0 11 -4 37t-18 62l-152 388h-197v-700zM472 -243q34 0 58 24
t24 58t-24 58t-58 24t-58 -24t-24 -58t24 -58t58 -24z" />
    <glyph glyph-name="N" unicode="N" horiz-adv-x="789" 
d="M84 0h137v386q0 48 -5.5 69.5t-8.5 31.5l19 8q3 -9 11 -29.5t34 -56.5l294 -409h139v700h-136v-372q0 -48 5 -69.5t9 -31.5l-20 -7q-3 7 -10.5 28.5t-32.5 56.5l-288 395h-147v-700z" />
    <glyph glyph-name="uni01CA" unicode="&#x1ca;" horiz-adv-x="1410" 
d="M84 0h137v386q0 48 -5.5 69.5t-8.5 31.5l19 8q3 -9 11 -29.5t34 -56.5l294 -409h139v700h-136v-372q0 -48 5 -69.5t9 -31.5l-20 -7q-3 7 -10.5 28.5t-32.5 56.5l-288 395h-147v-700zM1059 -12q80 0 140 33t93.5 93.5t33.5 142.5v443h-145v-443q0 -63 -34 -99.5t-88 -36.5
t-88.5 32t-44.5 84l-143 -26q8 -68 45 -118t96.5 -77.5t134.5 -27.5z" />
    <glyph glyph-name="Nacute" unicode="&#x143;" horiz-adv-x="789" 
d="M84 0h137v386q0 48 -5.5 69.5t-8.5 31.5l19 8q3 -9 11 -29.5t34 -56.5l294 -409h139v700h-136v-372q0 -48 5 -69.5t9 -31.5l-20 -7q-3 7 -10.5 28.5t-32.5 56.5l-288 395h-147v-700zM338 782h112l94 136h-137z" />
    <glyph glyph-name="Ncaron" unicode="&#x147;" horiz-adv-x="789" 
d="M84 0h137v386q0 48 -5.5 69.5t-8.5 31.5l19 8q3 -9 11 -29.5t34 -56.5l294 -409h139v700h-136v-372q0 -48 5 -69.5t9 -31.5l-20 -7q-3 7 -10.5 28.5t-32.5 56.5l-288 395h-147v-700zM330 782h127l103 136h-110l-56 -72l-56 72h-110z" />
    <glyph glyph-name="uni0145" unicode="&#x145;" horiz-adv-x="789" 
d="M84 0h137v386q0 48 -5.5 69.5t-8.5 31.5l19 8q3 -9 11 -29.5t34 -56.5l294 -409h139v700h-136v-372q0 -48 5 -69.5t9 -31.5l-20 -7q-3 7 -10.5 28.5t-32.5 56.5l-288 395h-147v-700zM329 -348h14q70 0 105 47t35 120q0 47 -22 74.5t-60 27.5q-34 0 -58 -22.5t-24 -59.5
q0 -32 21.5 -55t53.5 -26q-2 -21 -15.5 -34t-39.5 -13h-10v-59z" />
    <glyph glyph-name="uni1E44" unicode="&#x1e44;" horiz-adv-x="789" 
d="M84 0h137v386q0 48 -5.5 69.5t-8.5 31.5l19 8q3 -9 11 -29.5t34 -56.5l294 -409h139v700h-136v-372q0 -48 5 -69.5t9 -31.5l-20 -7q-3 7 -10.5 28.5t-32.5 56.5l-288 395h-147v-700zM401 782q32 0 55 22.5t23 55.5q0 32 -23 55t-55 23q-33 0 -56 -23t-23 -55
q0 -33 23 -55.5t56 -22.5z" />
    <glyph glyph-name="uni1E46" unicode="&#x1e46;" horiz-adv-x="789" 
d="M84 0h137v386q0 48 -5.5 69.5t-8.5 31.5l19 8q3 -9 11 -29.5t34 -56.5l294 -409h139v700h-136v-372q0 -48 5 -69.5t9 -31.5l-20 -7q-3 7 -10.5 28.5t-32.5 56.5l-288 395h-147v-700zM400 -243q34 0 58 24t24 58t-24 58t-58 24t-58 -24t-24 -58t24 -58t58 -24z" />
    <glyph glyph-name="uni01CB" unicode="&#x1cb;" horiz-adv-x="1077" 
d="M84 0h137v386q0 48 -5.5 69.5t-8.5 31.5l19 8q3 -9 11 -29.5t34 -56.5l294 -409h139v700h-136v-372q0 -48 5 -69.5t9 -31.5l-20 -7q-3 7 -10.5 28.5t-32.5 56.5l-288 395h-147v-700zM934 577q33 0 56.5 23.5t23.5 56.5t-23.5 56.5t-56.5 23.5t-56 -23.5t-23 -56.5
t23 -56.5t56 -23.5zM814 -214q94 0 141.5 47.5t47.5 134.5v550h-137v-550q0 -35 -14.5 -50t-50.5 -15q-29 0 -57 7v-117q16 -3 34 -5t36 -2z" />
    <glyph glyph-name="Nmacronbelow" unicode="&#x1e48;" horiz-adv-x="789" 
d="M84 0h137v386q0 48 -5.5 69.5t-8.5 31.5l19 8q3 -9 11 -29.5t34 -56.5l294 -409h139v700h-136v-372q0 -48 5 -69.5t9 -31.5l-20 -7q-3 7 -10.5 28.5t-32.5 56.5l-288 395h-147v-700zM225 -173h307v95h-307v-95z" />
    <glyph glyph-name="Ntilde" unicode="&#xd1;" horiz-adv-x="789" 
d="M84 0h137v386q0 48 -5.5 69.5t-8.5 31.5l19 8q3 -9 11 -29.5t34 -56.5l294 -409h139v700h-136v-372q0 -48 5 -69.5t9 -31.5l-20 -7q-3 7 -10.5 28.5t-32.5 56.5l-288 395h-147v-700zM455 785q43 0 77 33.5t32 97.5h-81q-3 -25 -12.5 -35.5t-19.5 -10.5q-16 0 -32 13.5
t-36.5 27t-49.5 13.5q-44 0 -77.5 -34.5t-32.5 -97.5h82q3 24 12.5 35.5t19.5 11.5q16 0 32 -13.5t36 -27t50 -13.5z" />
    <glyph glyph-name="Eng" unicode="&#x14a;" horiz-adv-x="769" 
d="M506 -214q94 0 141 47.5t47 134.5v732h-136v-372q0 -48 5 -69.5t9 -31.5l-20 -7q-3 7 -10.5 28.5t-32.5 56.5l-288 395h-147v-700h137v386q0 48 -5.5 69.5t-8.5 31.5l19 8q3 -9 11 -29.5t34 -56.5l297 -413v-28q0 -35 -14.5 -50t-51.5 -15q-28 0 -56 7v-117q16 -3 34 -5
t36 -2z" />
    <glyph glyph-name="O" unicode="O" horiz-adv-x="789" 
d="M394 -12q81 0 149 26.5t117.5 75t77 115t27.5 145.5t-27.5 145.5t-77 115t-117.5 75t-149 26.5q-80 0 -148 -26.5t-117.5 -75t-77 -115t-27.5 -145.5t27.5 -145.5t77 -115t117.5 -75t148 -26.5zM394 121q-63 0 -113 29.5t-78.5 81t-28.5 118.5t28.5 118.5t78.5 81
t113 29.5q64 0 114 -29.5t78.5 -81t28.5 -118.5t-28.5 -118.5t-78.5 -81t-114 -29.5z" />
    <glyph glyph-name="Oacute" unicode="&#xd3;" horiz-adv-x="789" 
d="M394 -12q81 0 149 26.5t117.5 75t77 115t27.5 145.5t-27.5 145.5t-77 115t-117.5 75t-149 26.5q-80 0 -148 -26.5t-117.5 -75t-77 -115t-27.5 -145.5t27.5 -145.5t77 -115t117.5 -75t148 -26.5zM394 121q-63 0 -113 29.5t-78.5 81t-28.5 118.5t28.5 118.5t78.5 81
t113 29.5q64 0 114 -29.5t78.5 -81t28.5 -118.5t-28.5 -118.5t-78.5 -81t-114 -29.5zM338 782h112l94 136h-137z" />
    <glyph glyph-name="Obreve" unicode="&#x14e;" horiz-adv-x="789" 
d="M394 -12q81 0 149 26.5t117.5 75t77 115t27.5 145.5t-27.5 145.5t-77 115t-117.5 75t-149 26.5q-80 0 -148 -26.5t-117.5 -75t-77 -115t-27.5 -145.5t27.5 -145.5t77 -115t117.5 -75t148 -26.5zM394 121q-63 0 -113 29.5t-78.5 81t-28.5 118.5t28.5 118.5t78.5 81
t113 29.5q64 0 114 -29.5t78.5 -81t28.5 -118.5t-28.5 -118.5t-78.5 -81t-114 -29.5zM395 782q68 0 110 37t42 99h-91q0 -30 -17 -47.5t-44 -17.5q-28 0 -45 18t-17 47h-91q0 -62 42 -99t111 -37z" />
    <glyph glyph-name="Ocircumflex" unicode="&#xd4;" horiz-adv-x="789" 
d="M394 -12q81 0 149 26.5t117.5 75t77 115t27.5 145.5t-27.5 145.5t-77 115t-117.5 75t-149 26.5q-80 0 -148 -26.5t-117.5 -75t-77 -115t-27.5 -145.5t27.5 -145.5t77 -115t117.5 -75t148 -26.5zM394 121q-63 0 -113 29.5t-78.5 81t-28.5 118.5t28.5 118.5t78.5 81
t113 29.5q64 0 114 -29.5t78.5 -81t28.5 -118.5t-28.5 -118.5t-78.5 -81t-114 -29.5zM228 782h110l56 72l56 -72h110l-103 136h-127z" />
    <glyph glyph-name="uni1ED0" unicode="&#x1ed0;" horiz-adv-x="789" 
d="M394 -12q81 0 149 26.5t117.5 75t77 115t27.5 145.5t-27.5 145.5t-77 115t-117.5 75t-149 26.5q-80 0 -148 -26.5t-117.5 -75t-77 -115t-27.5 -145.5t27.5 -145.5t77 -115t117.5 -75t148 -26.5zM394 121q-63 0 -113 29.5t-78.5 81t-28.5 118.5t28.5 118.5t78.5 81
t113 29.5q64 0 114 -29.5t78.5 -81t28.5 -118.5t-28.5 -118.5t-78.5 -81t-114 -29.5zM228 782h110l56 72l56 -72h110l-103 136h-127zM541 856h112l94 136h-137z" />
    <glyph glyph-name="uni1ED8" unicode="&#x1ed8;" horiz-adv-x="789" 
d="M394 -12q81 0 149 26.5t117.5 75t77 115t27.5 145.5t-27.5 145.5t-77 115t-117.5 75t-149 26.5q-80 0 -148 -26.5t-117.5 -75t-77 -115t-27.5 -145.5t27.5 -145.5t77 -115t117.5 -75t148 -26.5zM394 121q-63 0 -113 29.5t-78.5 81t-28.5 118.5t28.5 118.5t78.5 81
t113 29.5q64 0 114 -29.5t78.5 -81t28.5 -118.5t-28.5 -118.5t-78.5 -81t-114 -29.5zM400 -243q34 0 58 24t24 58t-24 58t-58 24t-58 -24t-24 -58t24 -58t58 -24zM228 782h110l56 72l56 -72h110l-103 136h-127z" />
    <glyph glyph-name="uni1ED2" unicode="&#x1ed2;" horiz-adv-x="789" 
d="M394 -12q81 0 149 26.5t117.5 75t77 115t27.5 145.5t-27.5 145.5t-77 115t-117.5 75t-149 26.5q-80 0 -148 -26.5t-117.5 -75t-77 -115t-27.5 -145.5t27.5 -145.5t77 -115t117.5 -75t148 -26.5zM394 121q-63 0 -113 29.5t-78.5 81t-28.5 118.5t28.5 118.5t78.5 81
t113 29.5q64 0 114 -29.5t78.5 -81t28.5 -118.5t-28.5 -118.5t-78.5 -81t-114 -29.5zM228 782h110l56 72l56 -72h110l-103 136h-127zM541 856h112l-68 136h-138z" />
    <glyph glyph-name="uni1ED4" unicode="&#x1ed4;" horiz-adv-x="789" 
d="M394 -12q81 0 149 26.5t117.5 75t77 115t27.5 145.5t-27.5 145.5t-77 115t-117.5 75t-149 26.5q-80 0 -148 -26.5t-117.5 -75t-77 -115t-27.5 -145.5t27.5 -145.5t77 -115t117.5 -75t148 -26.5zM394 121q-63 0 -113 29.5t-78.5 81t-28.5 118.5t28.5 118.5t78.5 81
t113 29.5q64 0 114 -29.5t78.5 -81t28.5 -118.5t-28.5 -118.5t-78.5 -81t-114 -29.5zM228 782h110l56 72l56 -72h110l-103 136h-127zM588 856q57 11 79.5 38t22.5 54q0 40 -28 64.5t-76 24.5q-46 0 -83 -20l20 -62q8 6 19.5 8.5t21.5 2.5q24 0 35 -9.5t11 -24.5
q0 -17 -13.5 -29t-40.5 -21z" />
    <glyph glyph-name="uni1ED6" unicode="&#x1ed6;" horiz-adv-x="789" 
d="M394 -12q81 0 149 26.5t117.5 75t77 115t27.5 145.5t-27.5 145.5t-77 115t-117.5 75t-149 26.5q-80 0 -148 -26.5t-117.5 -75t-77 -115t-27.5 -145.5t27.5 -145.5t77 -115t117.5 -75t148 -26.5zM394 121q-63 0 -113 29.5t-78.5 81t-28.5 118.5t28.5 118.5t78.5 81
t113 29.5q64 0 114 -29.5t78.5 -81t28.5 -118.5t-28.5 -118.5t-78.5 -81t-114 -29.5zM449 1003q40 0 70 33.5t29 97.5h-73q-3 -25 -11.5 -35.5t-17.5 -10.5q-14 0 -28.5 13.5t-33 27t-44.5 13.5q-40 0 -70 -34.5t-28 -97.5h72q3 24 11.5 35.5t17.5 11.5q15 0 29.5 -13.5
t32.5 -27t44 -13.5zM228 782h110l56 72l56 -72h110l-103 136h-127z" />
    <glyph glyph-name="uni020C" unicode="&#x20c;" horiz-adv-x="789" 
d="M394 -12q81 0 149 26.5t117.5 75t77 115t27.5 145.5t-27.5 145.5t-77 115t-117.5 75t-149 26.5q-80 0 -148 -26.5t-117.5 -75t-77 -115t-27.5 -145.5t27.5 -145.5t77 -115t117.5 -75t148 -26.5zM394 121q-63 0 -113 29.5t-78.5 81t-28.5 118.5t28.5 118.5t78.5 81
t113 29.5q64 0 114 -29.5t78.5 -81t28.5 -118.5t-28.5 -118.5t-78.5 -81t-114 -29.5zM430 782h112l-69 136h-137zM247 782h112l-68 136h-138z" />
    <glyph glyph-name="Odieresis" unicode="&#xd6;" horiz-adv-x="789" 
d="M394 -12q81 0 149 26.5t117.5 75t77 115t27.5 145.5t-27.5 145.5t-77 115t-117.5 75t-149 26.5q-80 0 -148 -26.5t-117.5 -75t-77 -115t-27.5 -145.5t27.5 -145.5t77 -115t117.5 -75t148 -26.5zM394 121q-63 0 -113 29.5t-78.5 81t-28.5 118.5t28.5 118.5t78.5 81
t113 29.5q64 0 114 -29.5t78.5 -81t28.5 -118.5t-28.5 -118.5t-78.5 -81t-114 -29.5zM301 782q31 0 53 22t22 53t-22 53t-53 22t-53 -22t-22 -53t22 -53t53 -22zM497 782q31 0 53 22t22 53t-22 53t-53 22t-53 -22t-22 -53t22 -53t53 -22z" />
    <glyph glyph-name="uni022A" unicode="&#x22a;" horiz-adv-x="789" 
d="M394 -12q81 0 149 26.5t117.5 75t77 115t27.5 145.5t-27.5 145.5t-77 115t-117.5 75t-149 26.5q-80 0 -148 -26.5t-117.5 -75t-77 -115t-27.5 -145.5t27.5 -145.5t77 -115t117.5 -75t148 -26.5zM394 121q-63 0 -113 29.5t-78.5 81t-28.5 118.5t28.5 118.5t78.5 81
t113 29.5q64 0 114 -29.5t78.5 -81t28.5 -118.5t-28.5 -118.5t-78.5 -81t-114 -29.5zM301 782q31 0 53 22t22 53t-22 53t-53 22t-53 -22t-22 -53t22 -53t53 -22zM497 782q31 0 53 22t22 53t-22 53t-53 22t-53 -22t-22 -53t22 -53t53 -22zM241 1043h307v95h-307v-95z" />
    <glyph glyph-name="uni0230" unicode="&#x230;" horiz-adv-x="789" 
d="M394 -12q81 0 149 26.5t117.5 75t77 115t27.5 145.5t-27.5 145.5t-77 115t-117.5 75t-149 26.5q-80 0 -148 -26.5t-117.5 -75t-77 -115t-27.5 -145.5t27.5 -145.5t77 -115t117.5 -75t148 -26.5zM394 121q-63 0 -113 29.5t-78.5 81t-28.5 118.5t28.5 118.5t78.5 81
t113 29.5q64 0 114 -29.5t78.5 -81t28.5 -118.5t-28.5 -118.5t-78.5 -81t-114 -29.5zM401 782q32 0 55 22.5t23 55.5q0 32 -23 55t-55 23q-33 0 -56 -23t-23 -55q0 -33 23 -55.5t56 -22.5zM241 1043h307v95h-307v-95z" />
    <glyph glyph-name="uni1ECC" unicode="&#x1ecc;" horiz-adv-x="789" 
d="M394 -12q81 0 149 26.5t117.5 75t77 115t27.5 145.5t-27.5 145.5t-77 115t-117.5 75t-149 26.5q-80 0 -148 -26.5t-117.5 -75t-77 -115t-27.5 -145.5t27.5 -145.5t77 -115t117.5 -75t148 -26.5zM394 121q-63 0 -113 29.5t-78.5 81t-28.5 118.5t28.5 118.5t78.5 81
t113 29.5q64 0 114 -29.5t78.5 -81t28.5 -118.5t-28.5 -118.5t-78.5 -81t-114 -29.5zM400 -243q34 0 58 24t24 58t-24 58t-58 24t-58 -24t-24 -58t24 -58t58 -24z" />
    <glyph glyph-name="Ograve" unicode="&#xd2;" horiz-adv-x="789" 
d="M394 -12q81 0 149 26.5t117.5 75t77 115t27.5 145.5t-27.5 145.5t-77 115t-117.5 75t-149 26.5q-80 0 -148 -26.5t-117.5 -75t-77 -115t-27.5 -145.5t27.5 -145.5t77 -115t117.5 -75t148 -26.5zM394 121q-63 0 -113 29.5t-78.5 81t-28.5 118.5t28.5 118.5t78.5 81
t113 29.5q64 0 114 -29.5t78.5 -81t28.5 -118.5t-28.5 -118.5t-78.5 -81t-114 -29.5zM338 782h112l-68 136h-138z" />
    <glyph glyph-name="uni1ECE" unicode="&#x1ece;" horiz-adv-x="789" 
d="M394 -12q81 0 149 26.5t117.5 75t77 115t27.5 145.5t-27.5 145.5t-77 115t-117.5 75t-149 26.5q-80 0 -148 -26.5t-117.5 -75t-77 -115t-27.5 -145.5t27.5 -145.5t77 -115t117.5 -75t148 -26.5zM394 121q-63 0 -113 29.5t-78.5 81t-28.5 118.5t28.5 118.5t78.5 81
t113 29.5q64 0 114 -29.5t78.5 -81t28.5 -118.5t-28.5 -118.5t-78.5 -81t-114 -29.5zM385 782q57 11 79.5 38t22.5 54q0 40 -28 64.5t-76 24.5q-46 0 -83 -20l20 -62q8 6 19.5 8.5t21.5 2.5q24 0 35 -9.5t11 -24.5q0 -17 -13.5 -29t-40.5 -21z" />
    <glyph glyph-name="Ohorn" unicode="&#x1a0;" horiz-adv-x="810" 
d="M402 -12q81 0 149 26.5t117.5 75t77 115t27.5 145.5q0 86 -32 156.5t-89 118.5q51 9 81 48.5t30 105.5h-95q0 -37 -18.5 -52t-50.5 -15h-197q-80 0 -148 -26.5t-117.5 -75t-77 -115t-27.5 -145.5t27.5 -145.5t77 -115t117.5 -75t148 -26.5zM402 121q-63 0 -113 29.5
t-78.5 81t-28.5 118.5t28.5 118.5t78.5 81t113 29.5q64 0 114 -29.5t78.5 -81t28.5 -118.5t-28.5 -118.5t-78.5 -81t-114 -29.5z" />
    <glyph glyph-name="uni1EDA" unicode="&#x1eda;" horiz-adv-x="810" 
d="M402 -12q81 0 149 26.5t117.5 75t77 115t27.5 145.5q0 86 -32 156.5t-89 118.5q51 9 81 48.5t30 105.5h-95q0 -37 -18.5 -52t-50.5 -15h-197q-80 0 -148 -26.5t-117.5 -75t-77 -115t-27.5 -145.5t27.5 -145.5t77 -115t117.5 -75t148 -26.5zM402 121q-63 0 -113 29.5
t-78.5 81t-28.5 118.5t28.5 118.5t78.5 81t113 29.5q64 0 114 -29.5t78.5 -81t28.5 -118.5t-28.5 -118.5t-78.5 -81t-114 -29.5zM346 782h112l94 136h-137z" />
    <glyph glyph-name="uni1EE2" unicode="&#x1ee2;" horiz-adv-x="810" 
d="M402 -12q81 0 149 26.5t117.5 75t77 115t27.5 145.5q0 86 -32 156.5t-89 118.5q51 9 81 48.5t30 105.5h-95q0 -37 -18.5 -52t-50.5 -15h-197q-80 0 -148 -26.5t-117.5 -75t-77 -115t-27.5 -145.5t27.5 -145.5t77 -115t117.5 -75t148 -26.5zM402 121q-63 0 -113 29.5
t-78.5 81t-28.5 118.5t28.5 118.5t78.5 81t113 29.5q64 0 114 -29.5t78.5 -81t28.5 -118.5t-28.5 -118.5t-78.5 -81t-114 -29.5zM408 -243q34 0 58 24t24 58t-24 58t-58 24t-58 -24t-24 -58t24 -58t58 -24z" />
    <glyph glyph-name="uni1EDC" unicode="&#x1edc;" horiz-adv-x="810" 
d="M402 -12q81 0 149 26.5t117.5 75t77 115t27.5 145.5q0 86 -32 156.5t-89 118.5q51 9 81 48.5t30 105.5h-95q0 -37 -18.5 -52t-50.5 -15h-197q-80 0 -148 -26.5t-117.5 -75t-77 -115t-27.5 -145.5t27.5 -145.5t77 -115t117.5 -75t148 -26.5zM402 121q-63 0 -113 29.5
t-78.5 81t-28.5 118.5t28.5 118.5t78.5 81t113 29.5q64 0 114 -29.5t78.5 -81t28.5 -118.5t-28.5 -118.5t-78.5 -81t-114 -29.5zM346 782h112l-68 136h-138z" />
    <glyph glyph-name="uni1EDE" unicode="&#x1ede;" horiz-adv-x="810" 
d="M402 -12q81 0 149 26.5t117.5 75t77 115t27.5 145.5q0 86 -32 156.5t-89 118.5q51 9 81 48.5t30 105.5h-95q0 -37 -18.5 -52t-50.5 -15h-197q-80 0 -148 -26.5t-117.5 -75t-77 -115t-27.5 -145.5t27.5 -145.5t77 -115t117.5 -75t148 -26.5zM402 121q-63 0 -113 29.5
t-78.5 81t-28.5 118.5t28.5 118.5t78.5 81t113 29.5q64 0 114 -29.5t78.5 -81t28.5 -118.5t-28.5 -118.5t-78.5 -81t-114 -29.5zM393 782q57 11 79.5 38t22.5 54q0 40 -28 64.5t-76 24.5q-46 0 -83 -20l20 -62q8 6 19.5 8.5t21.5 2.5q24 0 35 -9.5t11 -24.5q0 -17 -13.5 -29
t-40.5 -21z" />
    <glyph glyph-name="uni1EE0" unicode="&#x1ee0;" horiz-adv-x="810" 
d="M402 -12q81 0 149 26.5t117.5 75t77 115t27.5 145.5q0 86 -32 156.5t-89 118.5q51 9 81 48.5t30 105.5h-95q0 -37 -18.5 -52t-50.5 -15h-197q-80 0 -148 -26.5t-117.5 -75t-77 -115t-27.5 -145.5t27.5 -145.5t77 -115t117.5 -75t148 -26.5zM402 121q-63 0 -113 29.5
t-78.5 81t-28.5 118.5t28.5 118.5t78.5 81t113 29.5q64 0 114 -29.5t78.5 -81t28.5 -118.5t-28.5 -118.5t-78.5 -81t-114 -29.5zM463 785q43 0 77 33.5t32 97.5h-81q-3 -25 -12.5 -35.5t-19.5 -10.5q-16 0 -32 13.5t-36.5 27t-49.5 13.5q-44 0 -77.5 -34.5t-32.5 -97.5h82
q3 24 12.5 35.5t19.5 11.5q16 0 32 -13.5t36 -27t50 -13.5z" />
    <glyph glyph-name="Ohungarumlaut" unicode="&#x150;" horiz-adv-x="789" 
d="M394 -12q81 0 149 26.5t117.5 75t77 115t27.5 145.5t-27.5 145.5t-77 115t-117.5 75t-149 26.5q-80 0 -148 -26.5t-117.5 -75t-77 -115t-27.5 -145.5t27.5 -145.5t77 -115t117.5 -75t148 -26.5zM394 121q-63 0 -113 29.5t-78.5 81t-28.5 118.5t28.5 118.5t78.5 81
t113 29.5q64 0 114 -29.5t78.5 -81t28.5 -118.5t-28.5 -118.5t-78.5 -81t-114 -29.5zM430 782h112l94 136h-138zM247 782h112l94 136h-137z" />
    <glyph glyph-name="uni020E" unicode="&#x20e;" horiz-adv-x="789" 
d="M394 -12q81 0 149 26.5t117.5 75t77 115t27.5 145.5t-27.5 145.5t-77 115t-117.5 75t-149 26.5q-80 0 -148 -26.5t-117.5 -75t-77 -115t-27.5 -145.5t27.5 -145.5t77 -115t117.5 -75t148 -26.5zM394 121q-63 0 -113 29.5t-78.5 81t-28.5 118.5t28.5 118.5t78.5 81
t113 29.5q64 0 114 -29.5t78.5 -81t28.5 -118.5t-28.5 -118.5t-78.5 -81t-114 -29.5zM242 782h91q0 29 17 47t45 18q27 0 44 -17.5t17 -47.5h91q0 62 -42 99t-110 37q-69 0 -111 -37t-42 -99z" />
    <glyph glyph-name="Omacron" unicode="&#x14c;" horiz-adv-x="789" 
d="M394 -12q81 0 149 26.5t117.5 75t77 115t27.5 145.5t-27.5 145.5t-77 115t-117.5 75t-149 26.5q-80 0 -148 -26.5t-117.5 -75t-77 -115t-27.5 -145.5t27.5 -145.5t77 -115t117.5 -75t148 -26.5zM394 121q-63 0 -113 29.5t-78.5 81t-28.5 118.5t28.5 118.5t78.5 81
t113 29.5q64 0 114 -29.5t78.5 -81t28.5 -118.5t-28.5 -118.5t-78.5 -81t-114 -29.5zM241 796h307v95h-307v-95z" />
    <glyph glyph-name="uni1E52" unicode="&#x1e52;" horiz-adv-x="789" 
d="M394 -12q81 0 149 26.5t117.5 75t77 115t27.5 145.5t-27.5 145.5t-77 115t-117.5 75t-149 26.5q-80 0 -148 -26.5t-117.5 -75t-77 -115t-27.5 -145.5t27.5 -145.5t77 -115t117.5 -75t148 -26.5zM394 121q-63 0 -113 29.5t-78.5 81t-28.5 118.5t28.5 118.5t78.5 81
t113 29.5q64 0 114 -29.5t78.5 -81t28.5 -118.5t-28.5 -118.5t-78.5 -81t-114 -29.5zM241 796h307v95h-307v-95zM338 974h112l94 136h-137z" />
    <glyph glyph-name="uni1E50" unicode="&#x1e50;" horiz-adv-x="789" 
d="M394 -12q81 0 149 26.5t117.5 75t77 115t27.5 145.5t-27.5 145.5t-77 115t-117.5 75t-149 26.5q-80 0 -148 -26.5t-117.5 -75t-77 -115t-27.5 -145.5t27.5 -145.5t77 -115t117.5 -75t148 -26.5zM394 121q-63 0 -113 29.5t-78.5 81t-28.5 118.5t28.5 118.5t78.5 81
t113 29.5q64 0 114 -29.5t78.5 -81t28.5 -118.5t-28.5 -118.5t-78.5 -81t-114 -29.5zM241 796h307v95h-307v-95zM338 974h112l-68 136h-138z" />
    <glyph glyph-name="uni01EA" unicode="&#x1ea;" horiz-adv-x="789" 
d="M394 -12q81 0 149 26.5t117.5 75t77 115t27.5 145.5t-27.5 145.5t-77 115t-117.5 75t-149 26.5q-80 0 -148 -26.5t-117.5 -75t-77 -115t-27.5 -145.5t27.5 -145.5t77 -115t117.5 -75t148 -26.5zM394 121q-63 0 -113 29.5t-78.5 81t-28.5 118.5t28.5 118.5t78.5 81
t113 29.5q64 0 114 -29.5t78.5 -81t28.5 -118.5t-28.5 -118.5t-78.5 -81t-114 -29.5zM366 -208q32 0 66.5 11t65.5 37l-37 66q-14 -14 -36.5 -22.5t-46.5 -8.5t-40 12t-16 36q0 25 24 48t85 38l-37 26q-78 -12 -120 -48.5t-42 -86.5q0 -38 20 -61.5t50.5 -35t63.5 -11.5z
" />
    <glyph glyph-name="Oslash" unicode="&#xd8;" horiz-adv-x="789" 
d="M-4 0h107l60 61q46 -35 105 -54t126 -19q81 0 149 26.5t117.5 75t77 115t27.5 145.5q0 70 -22 130.5t-62 107.5l111 112h-107l-59 -60q-47 34 -105.5 53t-126.5 19q-80 0 -148 -26.5t-117.5 -75t-77 -115t-27.5 -145.5q0 -70 22 -130.5t61 -106.5zM174 350
q0 67 28.5 118.5t78.5 81t113 29.5q75 0 132 -41l-315 -320q-37 57 -37 132zM394 121q-75 0 -131 41l315 321q17 -28 27 -61.5t10 -71.5q0 -67 -28.5 -118.5t-78.5 -81t-114 -29.5z" />
    <glyph glyph-name="Oslashacute" unicode="&#x1fe;" horiz-adv-x="789" 
d="M-4 0h107l60 61q46 -35 105 -54t126 -19q81 0 149 26.5t117.5 75t77 115t27.5 145.5q0 70 -22 130.5t-62 107.5l111 112h-107l-59 -60q-47 34 -105.5 53t-126.5 19q-80 0 -148 -26.5t-117.5 -75t-77 -115t-27.5 -145.5q0 -70 22 -130.5t61 -106.5zM174 350
q0 67 28.5 118.5t78.5 81t113 29.5q75 0 132 -41l-315 -320q-37 57 -37 132zM394 121q-75 0 -131 41l315 321q17 -28 27 -61.5t10 -71.5q0 -67 -28.5 -118.5t-78.5 -81t-114 -29.5zM338 782h112l94 136h-137z" />
    <glyph glyph-name="Otilde" unicode="&#xd5;" horiz-adv-x="789" 
d="M394 -12q81 0 149 26.5t117.5 75t77 115t27.5 145.5t-27.5 145.5t-77 115t-117.5 75t-149 26.5q-80 0 -148 -26.5t-117.5 -75t-77 -115t-27.5 -145.5t27.5 -145.5t77 -115t117.5 -75t148 -26.5zM394 121q-63 0 -113 29.5t-78.5 81t-28.5 118.5t28.5 118.5t78.5 81
t113 29.5q64 0 114 -29.5t78.5 -81t28.5 -118.5t-28.5 -118.5t-78.5 -81t-114 -29.5zM455 785q43 0 77 33.5t32 97.5h-81q-3 -25 -12.5 -35.5t-19.5 -10.5q-16 0 -32 13.5t-36.5 27t-49.5 13.5q-44 0 -77.5 -34.5t-32.5 -97.5h82q3 24 12.5 35.5t19.5 11.5q16 0 32 -13.5
t36 -27t50 -13.5z" />
    <glyph glyph-name="uni1E4C" unicode="&#x1e4c;" horiz-adv-x="789" 
d="M394 -12q81 0 149 26.5t117.5 75t77 115t27.5 145.5t-27.5 145.5t-77 115t-117.5 75t-149 26.5q-80 0 -148 -26.5t-117.5 -75t-77 -115t-27.5 -145.5t27.5 -145.5t77 -115t117.5 -75t148 -26.5zM394 121q-63 0 -113 29.5t-78.5 81t-28.5 118.5t28.5 118.5t78.5 81
t113 29.5q64 0 114 -29.5t78.5 -81t28.5 -118.5t-28.5 -118.5t-78.5 -81t-114 -29.5zM337 989h112l94 136h-137zM456 785q43 0 76.5 33.5t32.5 97.5h-82q-3 -25 -12 -35.5t-20 -10.5q-16 0 -31.5 13.5t-36 27t-50.5 13.5q-43 0 -76.5 -34.5t-32.5 -97.5h82q3 24 12.5 35.5
t19.5 11.5q16 0 32 -13.5t36 -27t50 -13.5z" />
    <glyph glyph-name="uni1E4E" unicode="&#x1e4e;" horiz-adv-x="789" 
d="M394 -12q81 0 149 26.5t117.5 75t77 115t27.5 145.5t-27.5 145.5t-77 115t-117.5 75t-149 26.5q-80 0 -148 -26.5t-117.5 -75t-77 -115t-27.5 -145.5t27.5 -145.5t77 -115t117.5 -75t148 -26.5zM394 121q-63 0 -113 29.5t-78.5 81t-28.5 118.5t28.5 118.5t78.5 81
t113 29.5q64 0 114 -29.5t78.5 -81t28.5 -118.5t-28.5 -118.5t-78.5 -81t-114 -29.5zM299 989q32 0 53.5 22t21.5 53t-21.5 53t-53.5 22q-31 0 -52.5 -22t-21.5 -53t21.5 -53t52.5 -22zM495 989q31 0 53 22t22 53t-22 53t-53 22t-53 -22t-22 -53t22 -53t53 -22zM455 785
q44 0 77.5 33.5t32.5 97.5h-82q-3 -25 -12 -35.5t-20 -10.5q-16 0 -32 13.5t-36 27t-50 13.5q-43 0 -76.5 -34.5t-32.5 -97.5h81q3 24 13 35.5t19 11.5q17 0 33 -13.5t36 -27t49 -13.5z" />
    <glyph glyph-name="uni022C" unicode="&#x22c;" horiz-adv-x="789" 
d="M394 -12q81 0 149 26.5t117.5 75t77 115t27.5 145.5t-27.5 145.5t-77 115t-117.5 75t-149 26.5q-80 0 -148 -26.5t-117.5 -75t-77 -115t-27.5 -145.5t27.5 -145.5t77 -115t117.5 -75t148 -26.5zM394 121q-63 0 -113 29.5t-78.5 81t-28.5 118.5t28.5 118.5t78.5 81
t113 29.5q64 0 114 -29.5t78.5 -81t28.5 -118.5t-28.5 -118.5t-78.5 -81t-114 -29.5zM239 1003h307v95h-307v-95zM455 785q44 0 77.5 33.5t31.5 97.5h-81q-3 -25 -12 -35.5t-20 -10.5q-16 0 -32 13.5t-36 27t-50 13.5q-44 0 -77 -34.5t-32 -97.5h81q3 24 13 35.5t19 11.5
q17 0 32.5 -13.5t36 -27t49.5 -13.5z" />
    <glyph glyph-name="OE" unicode="&#x152;" horiz-adv-x="1191" 
d="M394 -12q67 0 123.5 22.5t98.5 62.5v-73h541v127h-404v172h326v122h-326v152h402v127h-539v-73q-42 40 -98.5 62.5t-123.5 22.5q-80 0 -148 -26.5t-117.5 -75t-77 -115t-27.5 -145.5t27.5 -145.5t77 -115t117.5 -75t148 -26.5zM394 121q-63 0 -113 29.5t-78.5 81
t-28.5 118.5t28.5 118.5t78.5 81t113 29.5q64 0 114 -29.5t78.5 -81t28.5 -118.5t-28.5 -118.5t-78.5 -81t-114 -29.5z" />
    <glyph glyph-name="P" unicode="P" horiz-adv-x="641" 
d="M84 0h145v264h174q111 0 177.5 58.5t66.5 159.5q0 102 -66.5 160t-177.5 58h-319v-700zM229 390v185h172q45 0 72 -24.5t27 -68.5t-27 -68t-72 -24h-172z" />
    <glyph glyph-name="Thorn" unicode="&#xde;" horiz-adv-x="631" 
d="M74 0h145v132h174q111 0 177.5 58t66.5 160t-66.5 160t-177.5 58h-174v132h-145v-700zM391 442q45 0 72 -24t27 -68t-27 -68t-72 -24h-172v184h172z" />
    <glyph glyph-name="Q" unicode="Q" horiz-adv-x="801" 
d="M394 -12q66 0 124 18l84 -106h153l-127 162q64 48 100.5 122t36.5 166q0 79 -27.5 145.5t-77 115t-117.5 75t-149 26.5q-80 0 -148 -26.5t-117.5 -75t-77 -115t-27.5 -145.5t27.5 -145.5t77 -115t117.5 -75t148 -26.5zM394 121q-63 0 -113 29.5t-78.5 81t-28.5 118.5
t28.5 118.5t78.5 81t113 29.5q64 0 114 -29.5t78.5 -81t28.5 -118.5q0 -55 -20 -100.5t-55 -76.5l-78 99h-154l118 -149q-15 -2 -32 -2z" />
    <glyph glyph-name="R" unicode="R" horiz-adv-x="701" 
d="M84 0h145v264h81l219 -264h177l-226 273q78 18 122.5 72.5t44.5 136.5q0 102 -66.5 160t-177.5 58h-319v-700zM229 390v185h172q45 0 72 -24.5t27 -68.5t-27 -68t-72 -24h-172z" />
    <glyph glyph-name="Racute" unicode="&#x154;" horiz-adv-x="701" 
d="M84 0h145v264h81l219 -264h177l-226 273q78 18 122.5 72.5t44.5 136.5q0 102 -66.5 160t-177.5 58h-319v-700zM229 390v185h172q45 0 72 -24.5t27 -68.5t-27 -68t-72 -24h-172zM300 782h112l94 136h-137z" />
    <glyph glyph-name="Rcaron" unicode="&#x158;" horiz-adv-x="701" 
d="M84 0h145v264h81l219 -264h177l-226 273q78 18 122.5 72.5t44.5 136.5q0 102 -66.5 160t-177.5 58h-319v-700zM229 390v185h172q45 0 72 -24.5t27 -68.5t-27 -68t-72 -24h-172zM292 782h127l103 136h-110l-56 -72l-56 72h-110z" />
    <glyph glyph-name="uni0156" unicode="&#x156;" horiz-adv-x="701" 
d="M84 0h145v264h81l219 -264h177l-226 273q78 18 122.5 72.5t44.5 136.5q0 102 -66.5 160t-177.5 58h-319v-700zM229 390v185h172q45 0 72 -24.5t27 -68.5t-27 -68t-72 -24h-172zM291 -348h14q70 0 105 47t35 120q0 47 -22 74.5t-60 27.5q-34 0 -58 -22.5t-24 -59.5
q0 -32 21.5 -55t53.5 -26q-2 -21 -15.5 -34t-39.5 -13h-10v-59z" />
    <glyph glyph-name="uni0210" unicode="&#x210;" horiz-adv-x="701" 
d="M84 0h145v264h81l219 -264h177l-226 273q78 18 122.5 72.5t44.5 136.5q0 102 -66.5 160t-177.5 58h-319v-700zM229 390v185h172q45 0 72 -24.5t27 -68.5t-27 -68t-72 -24h-172zM392 782h112l-69 136h-137zM209 782h112l-68 136h-138z" />
    <glyph glyph-name="uni1E5A" unicode="&#x1e5a;" horiz-adv-x="701" 
d="M84 0h145v264h81l219 -264h177l-226 273q78 18 122.5 72.5t44.5 136.5q0 102 -66.5 160t-177.5 58h-319v-700zM229 390v185h172q45 0 72 -24.5t27 -68.5t-27 -68t-72 -24h-172zM362 -243q34 0 58 24t24 58t-24 58t-58 24t-58 -24t-24 -58t24 -58t58 -24z" />
    <glyph glyph-name="uni0212" unicode="&#x212;" horiz-adv-x="701" 
d="M84 0h145v264h81l219 -264h177l-226 273q78 18 122.5 72.5t44.5 136.5q0 102 -66.5 160t-177.5 58h-319v-700zM229 390v185h172q45 0 72 -24.5t27 -68.5t-27 -68t-72 -24h-172zM204 782h91q0 29 17 47t45 18q27 0 44 -17.5t17 -47.5h91q0 62 -42 99t-110 37
q-69 0 -111 -37t-42 -99z" />
    <glyph glyph-name="Rmacronbelow" unicode="&#x1e5e;" horiz-adv-x="701" 
d="M84 0h145v264h81l219 -264h177l-226 273q78 18 122.5 72.5t44.5 136.5q0 102 -66.5 160t-177.5 58h-319v-700zM229 390v185h172q45 0 72 -24.5t27 -68.5t-27 -68t-72 -24h-172zM187 -173h307v95h-307v-95z" />
    <glyph glyph-name="S" unicode="S" horiz-adv-x="608" 
d="M306 -12q79 0 139.5 25.5t94.5 72.5t34 113q0 55 -22 91t-57.5 59t-78.5 37.5t-85.5 25.5t-78.5 23.5t-57.5 31t-21.5 47.5q0 35 30.5 55.5t79.5 20.5q58 0 93 -25t49 -63l135 27q-14 56 -52.5 97t-95.5 63.5t-126 22.5q-74 0 -130.5 -25.5t-88 -72.5t-31.5 -111
q0 -55 21.5 -91.5t57 -59.5t78.5 -37t86 -24.5t78.5 -22t57.5 -29.5t22 -48q0 -37 -36 -59t-95 -22q-68 0 -105 26.5t-52 69.5l-135 -27q21 -89 99 -140t193 -51z" />
    <glyph glyph-name="Sacute" unicode="&#x15a;" horiz-adv-x="608" 
d="M306 -12q79 0 139.5 25.5t94.5 72.5t34 113q0 55 -22 91t-57.5 59t-78.5 37.5t-85.5 25.5t-78.5 23.5t-57.5 31t-21.5 47.5q0 35 30.5 55.5t79.5 20.5q58 0 93 -25t49 -63l135 27q-14 56 -52.5 97t-95.5 63.5t-126 22.5q-74 0 -130.5 -25.5t-88 -72.5t-31.5 -111
q0 -55 21.5 -91.5t57 -59.5t78.5 -37t86 -24.5t78.5 -22t57.5 -29.5t22 -48q0 -37 -36 -59t-95 -22q-68 0 -105 26.5t-52 69.5l-135 -27q21 -89 99 -140t193 -51zM246 782h112l94 136h-137z" />
    <glyph glyph-name="uni1E64" unicode="&#x1e64;" horiz-adv-x="608" 
d="M306 -12q79 0 139.5 25.5t94.5 72.5t34 113q0 55 -22 91t-57.5 59t-78.5 37.5t-85.5 25.5t-78.5 23.5t-57.5 31t-21.5 47.5q0 35 30.5 55.5t79.5 20.5q58 0 93 -25t49 -63l135 27q-14 56 -52.5 97t-95.5 63.5t-126 22.5q-74 0 -130.5 -25.5t-88 -72.5t-31.5 -111
q0 -55 21.5 -91.5t57 -59.5t78.5 -37t86 -24.5t78.5 -22t57.5 -29.5t22 -48q0 -37 -36 -59t-95 -22q-68 0 -105 26.5t-52 69.5l-135 -27q21 -89 99 -140t193 -51zM100 692q34 0 58 24t24 58t-24 58t-58 24t-58 -24t-24 -58t24 -58t58 -24zM140 600h112l93 136h-137z" />
    <glyph glyph-name="Scaron" unicode="&#x160;" horiz-adv-x="608" 
d="M306 -12q79 0 139.5 25.5t94.5 72.5t34 113q0 55 -22 91t-57.5 59t-78.5 37.5t-85.5 25.5t-78.5 23.5t-57.5 31t-21.5 47.5q0 35 30.5 55.5t79.5 20.5q58 0 93 -25t49 -63l135 27q-14 56 -52.5 97t-95.5 63.5t-126 22.5q-74 0 -130.5 -25.5t-88 -72.5t-31.5 -111
q0 -55 21.5 -91.5t57 -59.5t78.5 -37t86 -24.5t78.5 -22t57.5 -29.5t22 -48q0 -37 -36 -59t-95 -22q-68 0 -105 26.5t-52 69.5l-135 -27q21 -89 99 -140t193 -51zM238 782h127l103 136h-110l-56 -72l-56 72h-110z" />
    <glyph glyph-name="uni1E66" unicode="&#x1e66;" horiz-adv-x="608" 
d="M306 -12q79 0 139.5 25.5t94.5 72.5t34 113q0 55 -22 91t-57.5 59t-78.5 37.5t-85.5 25.5t-78.5 23.5t-57.5 31t-21.5 47.5q0 35 30.5 55.5t79.5 20.5q58 0 93 -25t49 -63l135 27q-14 56 -52.5 97t-95.5 63.5t-126 22.5q-74 0 -130.5 -25.5t-88 -72.5t-31.5 -111
q0 -55 21.5 -91.5t57 -59.5t78.5 -37t86 -24.5t78.5 -22t57.5 -29.5t22 -48q0 -37 -36 -59t-95 -22q-68 0 -105 26.5t-52 69.5l-135 -27q21 -89 99 -140t193 -51zM238 782h127l103 136h-110l-56 -72l-56 72h-110zM309 1000q32 0 55 22.5t23 55.5q0 32 -23 55t-55 23
q-33 0 -56 -23t-23 -55q0 -33 23 -55.5t56 -22.5z" />
    <glyph glyph-name="Scedilla" unicode="&#x15e;" horiz-adv-x="608" 
d="M306 -12q79 0 139.5 25.5t94.5 72.5t34 113q0 55 -22 91t-57.5 59t-78.5 37.5t-85.5 25.5t-78.5 23.5t-57.5 31t-21.5 47.5q0 35 30.5 55.5t79.5 20.5q58 0 93 -25t49 -63l135 27q-14 56 -52.5 97t-95.5 63.5t-126 22.5q-74 0 -130.5 -25.5t-88 -72.5t-31.5 -111
q0 -55 21.5 -91.5t57 -59.5t78.5 -37t86 -24.5t78.5 -22t57.5 -29.5t22 -48q0 -37 -36 -59t-95 -22q-68 0 -105 26.5t-52 69.5l-135 -27q21 -89 99 -140t193 -51zM305 -226q58 0 91.5 28t33.5 80q0 42 -27.5 66t-71.5 24h-5l12 46h-72l-28 -107q25 9 54 9q49 0 49 -33
q0 -17 -14 -24.5t-39 -7.5q-16 0 -35 5.5t-34 17.5l-40 -56q23 -23 56.5 -35.5t69.5 -12.5z" />
    <glyph glyph-name="Scircumflex" unicode="&#x15c;" horiz-adv-x="608" 
d="M306 -12q79 0 139.5 25.5t94.5 72.5t34 113q0 55 -22 91t-57.5 59t-78.5 37.5t-85.5 25.5t-78.5 23.5t-57.5 31t-21.5 47.5q0 35 30.5 55.5t79.5 20.5q58 0 93 -25t49 -63l135 27q-14 56 -52.5 97t-95.5 63.5t-126 22.5q-74 0 -130.5 -25.5t-88 -72.5t-31.5 -111
q0 -55 21.5 -91.5t57 -59.5t78.5 -37t86 -24.5t78.5 -22t57.5 -29.5t22 -48q0 -37 -36 -59t-95 -22q-68 0 -105 26.5t-52 69.5l-135 -27q21 -89 99 -140t193 -51zM136 782h110l56 72l56 -72h110l-103 136h-127z" />
    <glyph glyph-name="uni0218" unicode="&#x218;" horiz-adv-x="608" 
d="M306 -12q79 0 139.5 25.5t94.5 72.5t34 113q0 55 -22 91t-57.5 59t-78.5 37.5t-85.5 25.5t-78.5 23.5t-57.5 31t-21.5 47.5q0 35 30.5 55.5t79.5 20.5q58 0 93 -25t49 -63l135 27q-14 56 -52.5 97t-95.5 63.5t-126 22.5q-74 0 -130.5 -25.5t-88 -72.5t-31.5 -111
q0 -55 21.5 -91.5t57 -59.5t78.5 -37t86 -24.5t78.5 -22t57.5 -29.5t22 -48q0 -37 -36 -59t-95 -22q-68 0 -105 26.5t-52 69.5l-135 -27q21 -89 99 -140t193 -51zM237 -348h14q70 0 105 47t35 120q0 47 -22 74.5t-60 27.5q-34 0 -58 -22.5t-24 -59.5q0 -32 21.5 -55
t53.5 -26q-2 -21 -15.5 -34t-39.5 -13h-10v-59z" />
    <glyph glyph-name="uni1E60" unicode="&#x1e60;" horiz-adv-x="608" 
d="M306 -12q79 0 139.5 25.5t94.5 72.5t34 113q0 55 -22 91t-57.5 59t-78.5 37.5t-85.5 25.5t-78.5 23.5t-57.5 31t-21.5 47.5q0 35 30.5 55.5t79.5 20.5q58 0 93 -25t49 -63l135 27q-14 56 -52.5 97t-95.5 63.5t-126 22.5q-74 0 -130.5 -25.5t-88 -72.5t-31.5 -111
q0 -55 21.5 -91.5t57 -59.5t78.5 -37t86 -24.5t78.5 -22t57.5 -29.5t22 -48q0 -37 -36 -59t-95 -22q-68 0 -105 26.5t-52 69.5l-135 -27q21 -89 99 -140t193 -51zM309 782q32 0 55 22.5t23 55.5q0 32 -23 55t-55 23q-33 0 -56 -23t-23 -55q0 -33 23 -55.5t56 -22.5z" />
    <glyph glyph-name="uni1E62" unicode="&#x1e62;" horiz-adv-x="608" 
d="M306 -12q79 0 139.5 25.5t94.5 72.5t34 113q0 55 -22 91t-57.5 59t-78.5 37.5t-85.5 25.5t-78.5 23.5t-57.5 31t-21.5 47.5q0 35 30.5 55.5t79.5 20.5q58 0 93 -25t49 -63l135 27q-14 56 -52.5 97t-95.5 63.5t-126 22.5q-74 0 -130.5 -25.5t-88 -72.5t-31.5 -111
q0 -55 21.5 -91.5t57 -59.5t78.5 -37t86 -24.5t78.5 -22t57.5 -29.5t22 -48q0 -37 -36 -59t-95 -22q-68 0 -105 26.5t-52 69.5l-135 -27q21 -89 99 -140t193 -51zM308 -243q34 0 58 24t24 58t-24 58t-58 24t-58 -24t-24 -58t24 -58t58 -24z" />
    <glyph glyph-name="uni1E68" unicode="&#x1e68;" horiz-adv-x="608" 
d="M306 -12q79 0 139.5 25.5t94.5 72.5t34 113q0 55 -22 91t-57.5 59t-78.5 37.5t-85.5 25.5t-78.5 23.5t-57.5 31t-21.5 47.5q0 35 30.5 55.5t79.5 20.5q58 0 93 -25t49 -63l135 27q-14 56 -52.5 97t-95.5 63.5t-126 22.5q-74 0 -130.5 -25.5t-88 -72.5t-31.5 -111
q0 -55 21.5 -91.5t57 -59.5t78.5 -37t86 -24.5t78.5 -22t57.5 -29.5t22 -48q0 -37 -36 -59t-95 -22q-68 0 -105 26.5t-52 69.5l-135 -27q21 -89 99 -140t193 -51zM308 -243q34 0 58 24t24 58t-24 58t-58 24t-58 -24t-24 -58t24 -58t58 -24zM309 782q32 0 55 22.5t23 55.5
q0 32 -23 55t-55 23q-33 0 -56 -23t-23 -55q0 -33 23 -55.5t56 -22.5z" />
    <glyph glyph-name="uni1E9E" unicode="&#x1e9e;" horiz-adv-x="722" 
d="M487 -12q58 0 103 21.5t71.5 65t26.5 108.5q0 85 -51.5 134t-151.5 86l133 218v119h-263q-82 0 -143 -32.5t-94.5 -91.5t-33.5 -139v-477h145v477q0 69 33 106.5t93 37.5h122l-127 -209v-71q93 -29 147 -73t54 -94q0 -43 -21.5 -59t-53.5 -16q-40 0 -61 20t-25 43
l-117 -23q16 -69 68 -110t146 -41z" />
    <glyph glyph-name="T" unicode="T" horiz-adv-x="604" 
d="M229 0h145v573h235v127h-615v-127h235v-573z" />
    <glyph glyph-name="Tbar" unicode="&#x166;" horiz-adv-x="604" 
d="M229 0h145v298h85v104h-85v171h235v127h-615v-127h235v-171h-84v-104h84v-298z" />
    <glyph glyph-name="Tcaron" unicode="&#x164;" horiz-adv-x="604" 
d="M229 0h145v573h235v127h-615v-127h235v-573zM237 782h127l103 136h-110l-56 -72l-56 72h-110z" />
    <glyph glyph-name="uni0162" unicode="&#x162;" horiz-adv-x="604" 
d="M229 0h145v573h235v127h-615v-127h235v-573zM305 -226q58 0 91.5 28t33.5 80q0 42 -27.5 66t-71.5 24h-5l12 46h-72l-28 -107q25 9 54 9q49 0 49 -33q0 -17 -14 -24.5t-39 -7.5q-16 0 -35 5.5t-34 17.5l-40 -56q23 -23 56.5 -35.5t69.5 -12.5z" />
    <glyph glyph-name="uni021A" unicode="&#x21a;" horiz-adv-x="604" 
d="M229 0h145v573h235v127h-615v-127h235v-573zM237 -348h14q70 0 105 47t35 120q0 47 -22 74.5t-60 27.5q-34 0 -58 -22.5t-24 -59.5q0 -32 21.5 -55t53.5 -26q-2 -21 -15.5 -34t-39.5 -13h-10v-59z" />
    <glyph glyph-name="uni1E6C" unicode="&#x1e6c;" horiz-adv-x="604" 
d="M229 0h145v573h235v127h-615v-127h235v-573zM308 -243q34 0 58 24t24 58t-24 58t-58 24t-58 -24t-24 -58t24 -58t58 -24z" />
    <glyph glyph-name="Tmacronbelow" unicode="&#x1e6e;" horiz-adv-x="604" 
d="M229 0h145v573h235v127h-615v-127h235v-573zM132 -173h307v95h-307v-95z" />
    <glyph glyph-name="U" unicode="U" horiz-adv-x="741" 
d="M371 -12q91 0 161.5 37t110 102.5t39.5 151.5v421h-145v-423q0 -45 -21 -80t-58.5 -55t-86.5 -20t-86.5 20t-59 55t-21.5 80v423h-145v-421q0 -86 40 -151.5t110 -102.5t162 -37z" />
    <glyph glyph-name="Uacute" unicode="&#xda;" horiz-adv-x="741" 
d="M371 -12q91 0 161.5 37t110 102.5t39.5 151.5v421h-145v-423q0 -45 -21 -80t-58.5 -55t-86.5 -20t-86.5 20t-59 55t-21.5 80v423h-145v-421q0 -86 40 -151.5t110 -102.5t162 -37zM314 782h112l94 136h-137z" />
    <glyph glyph-name="Ubreve" unicode="&#x16c;" horiz-adv-x="741" 
d="M371 -12q91 0 161.5 37t110 102.5t39.5 151.5v421h-145v-423q0 -45 -21 -80t-58.5 -55t-86.5 -20t-86.5 20t-59 55t-21.5 80v423h-145v-421q0 -86 40 -151.5t110 -102.5t162 -37zM371 782q68 0 110 37t42 99h-91q0 -30 -17 -47.5t-44 -17.5q-28 0 -45 18t-17 47h-91
q0 -62 42 -99t111 -37z" />
    <glyph glyph-name="Ucircumflex" unicode="&#xdb;" horiz-adv-x="741" 
d="M371 -12q91 0 161.5 37t110 102.5t39.5 151.5v421h-145v-423q0 -45 -21 -80t-58.5 -55t-86.5 -20t-86.5 20t-59 55t-21.5 80v423h-145v-421q0 -86 40 -151.5t110 -102.5t162 -37zM204 782h110l56 72l56 -72h110l-103 136h-127z" />
    <glyph glyph-name="uni0214" unicode="&#x214;" horiz-adv-x="741" 
d="M371 -12q91 0 161.5 37t110 102.5t39.5 151.5v421h-145v-423q0 -45 -21 -80t-58.5 -55t-86.5 -20t-86.5 20t-59 55t-21.5 80v423h-145v-421q0 -86 40 -151.5t110 -102.5t162 -37zM406 782h112l-69 136h-137zM223 782h112l-68 136h-138z" />
    <glyph glyph-name="Udieresis" unicode="&#xdc;" horiz-adv-x="741" 
d="M371 -12q91 0 161.5 37t110 102.5t39.5 151.5v421h-145v-423q0 -45 -21 -80t-58.5 -55t-86.5 -20t-86.5 20t-59 55t-21.5 80v423h-145v-421q0 -86 40 -151.5t110 -102.5t162 -37zM277 782q31 0 53 22t22 53t-22 53t-53 22t-53 -22t-22 -53t22 -53t53 -22zM473 782
q31 0 53 22t22 53t-22 53t-53 22t-53 -22t-22 -53t22 -53t53 -22z" />
    <glyph glyph-name="uni1EE4" unicode="&#x1ee4;" horiz-adv-x="741" 
d="M371 -12q91 0 161.5 37t110 102.5t39.5 151.5v421h-145v-423q0 -45 -21 -80t-58.5 -55t-86.5 -20t-86.5 20t-59 55t-21.5 80v423h-145v-421q0 -86 40 -151.5t110 -102.5t162 -37zM377 -243q34 0 58 24t24 58t-24 58t-58 24t-58 -24t-24 -58t24 -58t58 -24z" />
    <glyph glyph-name="Ugrave" unicode="&#xd9;" horiz-adv-x="741" 
d="M371 -12q91 0 161.5 37t110 102.5t39.5 151.5v421h-145v-423q0 -45 -21 -80t-58.5 -55t-86.5 -20t-86.5 20t-59 55t-21.5 80v423h-145v-421q0 -86 40 -151.5t110 -102.5t162 -37zM315 782h112l-68 136h-138z" />
    <glyph glyph-name="uni1EE6" unicode="&#x1ee6;" horiz-adv-x="741" 
d="M371 -12q91 0 161.5 37t110 102.5t39.5 151.5v421h-145v-423q0 -45 -21 -80t-58.5 -55t-86.5 -20t-86.5 20t-59 55t-21.5 80v423h-145v-421q0 -86 40 -151.5t110 -102.5t162 -37zM362 782q57 11 79.5 38t22.5 54q0 40 -28 64.5t-76 24.5q-46 0 -83 -20l20 -62
q8 6 19.5 8.5t21.5 2.5q24 0 35 -9.5t11 -24.5q0 -17 -13.5 -29t-40.5 -21z" />
    <glyph glyph-name="Uhorn" unicode="&#x1af;" horiz-adv-x="695" 
d="M361 -12q91 0 161.5 37t110 102.5t39.5 151.5v333q53 8 84 48t31 107h-94q0 -37 -18.5 -52t-51.5 -15h-96v-423q0 -45 -21 -80t-58.5 -55t-86.5 -20t-86.5 20t-59 55t-21.5 80v423h-145v-421q0 -86 40 -151.5t110 -102.5t162 -37z" />
    <glyph glyph-name="uni1EE8" unicode="&#x1ee8;" horiz-adv-x="695" 
d="M361 -12q91 0 161.5 37t110 102.5t39.5 151.5v333q53 8 84 48t31 107h-94q0 -37 -18.5 -52t-51.5 -15h-96v-423q0 -45 -21 -80t-58.5 -55t-86.5 -20t-86.5 20t-59 55t-21.5 80v423h-145v-421q0 -86 40 -151.5t110 -102.5t162 -37zM304 782h112l94 136h-137z" />
    <glyph glyph-name="uni1EF0" unicode="&#x1ef0;" horiz-adv-x="695" 
d="M361 -12q91 0 161.5 37t110 102.5t39.5 151.5v333q53 8 84 48t31 107h-94q0 -37 -18.5 -52t-51.5 -15h-96v-423q0 -45 -21 -80t-58.5 -55t-86.5 -20t-86.5 20t-59 55t-21.5 80v423h-145v-421q0 -86 40 -151.5t110 -102.5t162 -37zM367 -243q34 0 58 24t24 58t-24 58
t-58 24t-58 -24t-24 -58t24 -58t58 -24z" />
    <glyph glyph-name="uni1EEA" unicode="&#x1eea;" horiz-adv-x="695" 
d="M361 -12q91 0 161.5 37t110 102.5t39.5 151.5v333q53 8 84 48t31 107h-94q0 -37 -18.5 -52t-51.5 -15h-96v-423q0 -45 -21 -80t-58.5 -55t-86.5 -20t-86.5 20t-59 55t-21.5 80v423h-145v-421q0 -86 40 -151.5t110 -102.5t162 -37zM305 782h112l-68 136h-138z" />
    <glyph glyph-name="uni1EEC" unicode="&#x1eec;" horiz-adv-x="695" 
d="M361 -12q91 0 161.5 37t110 102.5t39.5 151.5v333q53 8 84 48t31 107h-94q0 -37 -18.5 -52t-51.5 -15h-96v-423q0 -45 -21 -80t-58.5 -55t-86.5 -20t-86.5 20t-59 55t-21.5 80v423h-145v-421q0 -86 40 -151.5t110 -102.5t162 -37zM352 782q57 11 79.5 38t22.5 54
q0 40 -28 64.5t-76 24.5q-46 0 -83 -20l20 -62q8 6 19.5 8.5t21.5 2.5q24 0 35 -9.5t11 -24.5q0 -17 -13.5 -29t-40.5 -21z" />
    <glyph glyph-name="uni1EEE" unicode="&#x1eee;" horiz-adv-x="695" 
d="M361 -12q91 0 161.5 37t110 102.5t39.5 151.5v333q53 8 84 48t31 107h-94q0 -37 -18.5 -52t-51.5 -15h-96v-423q0 -45 -21 -80t-58.5 -55t-86.5 -20t-86.5 20t-59 55t-21.5 80v423h-145v-421q0 -86 40 -151.5t110 -102.5t162 -37zM422 785q43 0 77 33.5t32 97.5h-81
q-3 -25 -12.5 -35.5t-19.5 -10.5q-16 0 -32 13.5t-36.5 27t-49.5 13.5q-44 0 -77.5 -34.5t-32.5 -97.5h82q3 24 12.5 35.5t19.5 11.5q16 0 32 -13.5t36 -27t50 -13.5z" />
    <glyph glyph-name="Uhungarumlaut" unicode="&#x170;" horiz-adv-x="741" 
d="M371 -12q91 0 161.5 37t110 102.5t39.5 151.5v421h-145v-423q0 -45 -21 -80t-58.5 -55t-86.5 -20t-86.5 20t-59 55t-21.5 80v423h-145v-421q0 -86 40 -151.5t110 -102.5t162 -37zM406 782h112l94 136h-138zM223 782h112l94 136h-137z" />
    <glyph glyph-name="uni0216" unicode="&#x216;" horiz-adv-x="741" 
d="M371 -12q91 0 161.5 37t110 102.5t39.5 151.5v421h-145v-423q0 -45 -21 -80t-58.5 -55t-86.5 -20t-86.5 20t-59 55t-21.5 80v423h-145v-421q0 -86 40 -151.5t110 -102.5t162 -37zM218 782h91q0 29 17 47t45 18q27 0 44 -17.5t17 -47.5h91q0 62 -42 99t-110 37
q-69 0 -111 -37t-42 -99z" />
    <glyph glyph-name="Umacron" unicode="&#x16a;" horiz-adv-x="741" 
d="M371 -12q91 0 161.5 37t110 102.5t39.5 151.5v421h-145v-423q0 -45 -21 -80t-58.5 -55t-86.5 -20t-86.5 20t-59 55t-21.5 80v423h-145v-421q0 -86 40 -151.5t110 -102.5t162 -37zM217 796h307v95h-307v-95z" />
    <glyph glyph-name="uni1E7A" unicode="&#x1e7a;" horiz-adv-x="741" 
d="M371 -12q91 0 161.5 37t110 102.5t39.5 151.5v421h-145v-423q0 -45 -21 -80t-58.5 -55t-86.5 -20t-86.5 20t-59 55t-21.5 80v423h-145v-421q0 -86 40 -151.5t110 -102.5t162 -37zM217 796h307v95h-307v-95zM277 974q31 0 53 22t22 53t-22 53t-53 22t-53 -22t-22 -53
t22 -53t53 -22zM473 974q31 0 53 22t22 53t-22 53t-53 22t-53 -22t-22 -53t22 -53t53 -22z" />
    <glyph glyph-name="Uogonek" unicode="&#x172;" horiz-adv-x="741" 
d="M371 -12q91 0 161.5 37t110 102.5t39.5 151.5v421h-145v-423q0 -45 -21 -80t-58.5 -55t-86.5 -20t-86.5 20t-59 55t-21.5 80v423h-145v-421q0 -86 40 -151.5t110 -102.5t162 -37zM342 -218q32 0 66.5 11t65.5 37l-37 66q-14 -14 -36.5 -22.5t-46.5 -8.5t-40 12t-16 36
q0 25 24 48t85 38l-37 26q-78 -12 -120 -48.5t-42 -86.5q0 -38 20 -61.5t50.5 -35t63.5 -11.5z" />
    <glyph glyph-name="Uring" unicode="&#x16e;" horiz-adv-x="741" 
d="M371 -12q91 0 161.5 37t110 102.5t39.5 151.5v421h-145v-423q0 -45 -21 -80t-58.5 -55t-86.5 -20t-86.5 20t-59 55t-21.5 80v423h-145v-421q0 -86 40 -151.5t110 -102.5t162 -37zM370 782q54 0 89 34.5t35 81.5q0 49 -35 83t-89 34t-89 -34t-35 -83q0 -47 35 -81.5
t89 -34.5zM370 849q-19 0 -34 13t-15 36q0 24 15 36.5t34 12.5q20 0 35 -13.5t15 -35.5q0 -21 -15 -35t-35 -14z" />
    <glyph glyph-name="Utilde" unicode="&#x168;" horiz-adv-x="741" 
d="M371 -12q91 0 161.5 37t110 102.5t39.5 151.5v421h-145v-423q0 -45 -21 -80t-58.5 -55t-86.5 -20t-86.5 20t-59 55t-21.5 80v423h-145v-421q0 -86 40 -151.5t110 -102.5t162 -37zM432 785q43 0 77 33.5t32 97.5h-81q-3 -25 -12.5 -35.5t-19.5 -10.5q-16 0 -32 13.5
t-36.5 27t-49.5 13.5q-44 0 -77.5 -34.5t-32.5 -97.5h82q3 24 12.5 35.5t19.5 11.5q16 0 32 -13.5t36 -27t50 -13.5z" />
    <glyph glyph-name="uni1E78" unicode="&#x1e78;" horiz-adv-x="741" 
d="M371 -12q91 0 161.5 37t110 102.5t39.5 151.5v421h-145v-423q0 -45 -21 -80t-58.5 -55t-86.5 -20t-86.5 20t-59 55t-21.5 80v423h-145v-421q0 -86 40 -151.5t110 -102.5t162 -37zM313 989h112l94 136h-137zM432 785q43 0 76.5 33.5t32.5 97.5h-82q-3 -25 -12 -35.5
t-20 -10.5q-16 0 -31.5 13.5t-36 27t-50.5 13.5q-43 0 -76.5 -34.5t-32.5 -97.5h82q3 24 12.5 35.5t19.5 11.5q16 0 32 -13.5t36 -27t50 -13.5z" />
    <glyph glyph-name="V" unicode="V" horiz-adv-x="733" 
d="M278 0h176l284 700h-157l-183 -457q-13 -35 -17.5 -61.5t-5.5 -36.5h-19q-1 9 -5 36.5t-18 61.5l-181 457h-158z" />
    <glyph glyph-name="W" unicode="W" horiz-adv-x="997" 
d="M181 0h172l122 420q9 31 11.5 57.5t2.5 42.5h19q0 -16 3 -42.5t11 -57.5l122 -420h172l187 700h-149l-113 -407q-8 -31 -10.5 -56.5t-2.5 -43.5h-19q0 11 -2 38.5t-12 61.5l-115 407h-162l-116 -407q-10 -34 -12 -61.5t-2 -38.5h-20q0 16 -1.5 41t-10.5 59l-112 407h-150
z" />
    <glyph glyph-name="Wacute" unicode="&#x1e82;" horiz-adv-x="997" 
d="M181 0h172l122 420q9 31 11.5 57.5t2.5 42.5h19q0 -16 3 -42.5t11 -57.5l122 -420h172l187 700h-149l-113 -407q-8 -31 -10.5 -56.5t-2.5 -43.5h-19q0 11 -2 38.5t-12 61.5l-115 407h-162l-116 -407q-10 -34 -12 -61.5t-2 -38.5h-20q0 16 -1.5 41t-10.5 59l-112 407h-150
zM442 782h112l94 136h-137z" />
    <glyph glyph-name="Wcircumflex" unicode="&#x174;" horiz-adv-x="997" 
d="M181 0h172l122 420q9 31 11.5 57.5t2.5 42.5h19q0 -16 3 -42.5t11 -57.5l122 -420h172l187 700h-149l-113 -407q-8 -31 -10.5 -56.5t-2.5 -43.5h-19q0 11 -2 38.5t-12 61.5l-115 407h-162l-116 -407q-10 -34 -12 -61.5t-2 -38.5h-20q0 16 -1.5 41t-10.5 59l-112 407h-150
zM332 782h110l56 72l56 -72h110l-103 136h-127z" />
    <glyph glyph-name="Wdieresis" unicode="&#x1e84;" horiz-adv-x="997" 
d="M181 0h172l122 420q9 31 11.5 57.5t2.5 42.5h19q0 -16 3 -42.5t11 -57.5l122 -420h172l187 700h-149l-113 -407q-8 -31 -10.5 -56.5t-2.5 -43.5h-19q0 11 -2 38.5t-12 61.5l-115 407h-162l-116 -407q-10 -34 -12 -61.5t-2 -38.5h-20q0 16 -1.5 41t-10.5 59l-112 407h-150
zM405 782q31 0 53 22t22 53t-22 53t-53 22t-53 -22t-22 -53t22 -53t53 -22zM601 782q31 0 53 22t22 53t-22 53t-53 22t-53 -22t-22 -53t22 -53t53 -22z" />
    <glyph glyph-name="Wgrave" unicode="&#x1e80;" horiz-adv-x="997" 
d="M181 0h172l122 420q9 31 11.5 57.5t2.5 42.5h19q0 -16 3 -42.5t11 -57.5l122 -420h172l187 700h-149l-113 -407q-8 -31 -10.5 -56.5t-2.5 -43.5h-19q0 11 -2 38.5t-12 61.5l-115 407h-162l-116 -407q-10 -34 -12 -61.5t-2 -38.5h-20q0 16 -1.5 41t-10.5 59l-112 407h-150
zM442 782h112l-68 136h-138z" />
    <glyph glyph-name="X" unicode="X" horiz-adv-x="724" 
d="M-6 0h181l141 181q19 24 27 44.5t9 30.5h20q1 -10 9 -30t27 -45l141 -181h181l-278 358l266 342h-181l-130 -165q-17 -22 -25.5 -43t-9.5 -33h-20q-2 15 -10.5 35t-24.5 41l-130 165h-180l265 -342z" />
    <glyph glyph-name="Y" unicode="Y" horiz-adv-x="708" 
d="M282 0h144v310l287 390h-174l-135 -185q-20 -28 -29.5 -50.5t-10.5 -32.5h-20q-1 11 -10.5 33.5t-29.5 49.5l-135 185h-175l288 -390v-310z" />
    <glyph glyph-name="Yacute" unicode="&#xdd;" horiz-adv-x="708" 
d="M282 0h144v310l287 390h-174l-135 -185q-20 -28 -29.5 -50.5t-10.5 -32.5h-20q-1 11 -10.5 33.5t-29.5 49.5l-135 185h-175l288 -390v-310zM298 782h112l94 136h-137z" />
    <glyph glyph-name="Ycircumflex" unicode="&#x176;" horiz-adv-x="708" 
d="M282 0h144v310l287 390h-174l-135 -185q-20 -28 -29.5 -50.5t-10.5 -32.5h-20q-1 11 -10.5 33.5t-29.5 49.5l-135 185h-175l288 -390v-310zM188 782h110l56 72l56 -72h110l-103 136h-127z" />
    <glyph glyph-name="Ydieresis" unicode="&#x178;" horiz-adv-x="708" 
d="M282 0h144v310l287 390h-174l-135 -185q-20 -28 -29.5 -50.5t-10.5 -32.5h-20q-1 11 -10.5 33.5t-29.5 49.5l-135 185h-175l288 -390v-310zM260 782q31 0 53 22t22 53t-22 53t-53 22t-53 -22t-22 -53t22 -53t53 -22zM456 782q31 0 53 22t22 53t-22 53t-53 22t-53 -22
t-22 -53t22 -53t53 -22z" />
    <glyph glyph-name="uni1E8E" unicode="&#x1e8e;" horiz-adv-x="708" 
d="M282 0h144v310l287 390h-174l-135 -185q-20 -28 -29.5 -50.5t-10.5 -32.5h-20q-1 11 -10.5 33.5t-29.5 49.5l-135 185h-175l288 -390v-310zM361 782q32 0 55 22.5t23 55.5q0 32 -23 55t-55 23q-33 0 -56 -23t-23 -55q0 -33 23 -55.5t56 -22.5z" />
    <glyph glyph-name="uni1EF4" unicode="&#x1ef4;" horiz-adv-x="708" 
d="M282 0h144v310l287 390h-174l-135 -185q-20 -28 -29.5 -50.5t-10.5 -32.5h-20q-1 11 -10.5 33.5t-29.5 49.5l-135 185h-175l288 -390v-310zM360 -243q34 0 58 24t24 58t-24 58t-58 24t-58 -24t-24 -58t24 -58t58 -24z" />
    <glyph glyph-name="Ygrave" unicode="&#x1ef2;" horiz-adv-x="708" 
d="M282 0h144v310l287 390h-174l-135 -185q-20 -28 -29.5 -50.5t-10.5 -32.5h-20q-1 11 -10.5 33.5t-29.5 49.5l-135 185h-175l288 -390v-310zM298 782h112l-68 136h-138z" />
    <glyph glyph-name="uni1EF6" unicode="&#x1ef6;" horiz-adv-x="708" 
d="M282 0h144v310l287 390h-174l-135 -185q-20 -28 -29.5 -50.5t-10.5 -32.5h-20q-1 11 -10.5 33.5t-29.5 49.5l-135 185h-175l288 -390v-310zM345 782q57 11 79.5 38t22.5 54q0 40 -28 64.5t-76 24.5q-46 0 -83 -20l20 -62q8 6 19.5 8.5t21.5 2.5q24 0 35 -9.5t11 -24.5
q0 -17 -13.5 -29t-40.5 -21z" />
    <glyph glyph-name="uni0232" unicode="&#x232;" horiz-adv-x="708" 
d="M282 0h144v310l287 390h-174l-135 -185q-20 -28 -29.5 -50.5t-10.5 -32.5h-20q-1 11 -10.5 33.5t-29.5 49.5l-135 185h-175l288 -390v-310zM200 796h307v95h-307v-95z" />
    <glyph glyph-name="uni1EF8" unicode="&#x1ef8;" horiz-adv-x="708" 
d="M282 0h144v310l287 390h-174l-135 -185q-20 -28 -29.5 -50.5t-10.5 -32.5h-20q-1 11 -10.5 33.5t-29.5 49.5l-135 185h-175l288 -390v-310zM415 785q43 0 77 33.5t32 97.5h-81q-3 -25 -12.5 -35.5t-19.5 -10.5q-16 0 -32 13.5t-36.5 27t-49.5 13.5q-44 0 -77.5 -34.5
t-32.5 -97.5h82q3 24 12.5 35.5t19.5 11.5q16 0 32 -13.5t36 -27t50 -13.5z" />
    <glyph glyph-name="Z" unicode="Z" horiz-adv-x="584" 
d="M-6 0h595v127h-353q-22 0 -36.5 -6.5t-24.5 -10.5l-8 19q12 6 25 13.5t26 22.5l349 426v109h-554v-127h313q22 0 36 6t24 10l8 -19q-10 -5 -23.5 -11.5t-27.5 -23.5l-349 -426v-109z" />
    <glyph glyph-name="Zacute" unicode="&#x179;" horiz-adv-x="584" 
d="M-6 0h595v127h-353q-22 0 -36.5 -6.5t-24.5 -10.5l-8 19q12 6 25 13.5t26 22.5l349 426v109h-554v-127h313q22 0 36 6t24 10l8 -19q-10 -5 -23.5 -11.5t-27.5 -23.5l-349 -426v-109zM236 782h112l94 136h-137z" />
    <glyph glyph-name="Zcaron" unicode="&#x17d;" horiz-adv-x="584" 
d="M-6 0h595v127h-353q-22 0 -36.5 -6.5t-24.5 -10.5l-8 19q12 6 25 13.5t26 22.5l349 426v109h-554v-127h313q22 0 36 6t24 10l8 -19q-10 -5 -23.5 -11.5t-27.5 -23.5l-349 -426v-109zM227 782h127l103 136h-110l-56 -72l-56 72h-110z" />
    <glyph glyph-name="Zdotaccent" unicode="&#x17b;" horiz-adv-x="584" 
d="M-6 0h595v127h-353q-22 0 -36.5 -6.5t-24.5 -10.5l-8 19q12 6 25 13.5t26 22.5l349 426v109h-554v-127h313q22 0 36 6t24 10l8 -19q-10 -5 -23.5 -11.5t-27.5 -23.5l-349 -426v-109zM299 782q32 0 55 22.5t23 55.5q0 32 -23 55t-55 23q-33 0 -56 -23t-23 -55
q0 -33 23 -55.5t56 -22.5z" />
    <glyph glyph-name="uni1E92" unicode="&#x1e92;" horiz-adv-x="584" 
d="M-6 0h595v127h-353q-22 0 -36.5 -6.5t-24.5 -10.5l-8 19q12 6 25 13.5t26 22.5l349 426v109h-554v-127h313q22 0 36 6t24 10l8 -19q-10 -5 -23.5 -11.5t-27.5 -23.5l-349 -426v-109zM298 -243q34 0 58 24t24 58t-24 58t-58 24t-58 -24t-24 -58t24 -58t58 -24z" />
    <glyph glyph-name="a" unicode="a" horiz-adv-x="543" 
d="M194 -12q55 0 97.5 19.5t67.5 66.5h20q4 -46 34 -65t78 -19q11 0 27.5 1.5t32.5 2.5v95q-4 0 -9 -1t-9 -1q-20 0 -29 13.5t-10.5 33t-1.5 39.5v177q0 60 -29.5 99.5t-81 60t-116.5 20.5q-59 0 -109 -19t-84 -54.5t-46 -83.5l127 -23q13 30 39.5 47.5t64.5 17.5
q37 0 67.5 -21t30.5 -61v-7l-118 -24q-61 -13 -109 -31.5t-76 -52t-28 -90.5q0 -62 47 -101t123 -39zM155 144q0 28 23.5 42.5t64.5 24.5l112 28v-64q-10 -41 -42.5 -61t-83.5 -20q-34 0 -54 13t-20 37z" />
    <glyph glyph-name="aacute" unicode="&#xe1;" horiz-adv-x="543" 
d="M194 -12q55 0 97.5 19.5t67.5 66.5h20q4 -46 34 -65t78 -19q11 0 27.5 1.5t32.5 2.5v95q-4 0 -9 -1t-9 -1q-20 0 -29 13.5t-10.5 33t-1.5 39.5v177q0 60 -29.5 99.5t-81 60t-116.5 20.5q-59 0 -109 -19t-84 -54.5t-46 -83.5l127 -23q13 30 39.5 47.5t64.5 17.5
q37 0 67.5 -21t30.5 -61v-7l-118 -24q-61 -13 -109 -31.5t-76 -52t-28 -90.5q0 -62 47 -101t123 -39zM155 144q0 28 23.5 42.5t64.5 24.5l112 28v-64q-10 -41 -42.5 -61t-83.5 -20q-34 0 -54 13t-20 37zM215 600h112l94 136h-137z" />
    <glyph glyph-name="abreve" unicode="&#x103;" horiz-adv-x="543" 
d="M194 -12q55 0 97.5 19.5t67.5 66.5h20q4 -46 34 -65t78 -19q11 0 27.5 1.5t32.5 2.5v95q-4 0 -9 -1t-9 -1q-20 0 -29 13.5t-10.5 33t-1.5 39.5v177q0 60 -29.5 99.5t-81 60t-116.5 20.5q-59 0 -109 -19t-84 -54.5t-46 -83.5l127 -23q13 30 39.5 47.5t64.5 17.5
q37 0 67.5 -21t30.5 -61v-7l-118 -24q-61 -13 -109 -31.5t-76 -52t-28 -90.5q0 -62 47 -101t123 -39zM155 144q0 28 23.5 42.5t64.5 24.5l112 28v-64q-10 -41 -42.5 -61t-83.5 -20q-34 0 -54 13t-20 37zM271 600q68 0 110 37t42 99h-91q0 -30 -17 -47.5t-44 -17.5
q-28 0 -45 18t-17 47h-91q0 -62 42 -99t111 -37z" />
    <glyph glyph-name="uni1EAF" unicode="&#x1eaf;" horiz-adv-x="543" 
d="M194 -12q55 0 97.5 19.5t67.5 66.5h20q4 -46 34 -65t78 -19q11 0 27.5 1.5t32.5 2.5v95q-4 0 -9 -1t-9 -1q-20 0 -29 13.5t-10.5 33t-1.5 39.5v177q0 60 -29.5 99.5t-81 60t-116.5 20.5q-59 0 -109 -19t-84 -54.5t-46 -83.5l127 -23q13 30 39.5 47.5t64.5 17.5
q37 0 67.5 -21t30.5 -61v-7l-118 -24q-61 -13 -109 -31.5t-76 -52t-28 -90.5q0 -62 47 -101t123 -39zM155 144q0 28 23.5 42.5t64.5 24.5l112 28v-64q-10 -41 -42.5 -61t-83.5 -20q-34 0 -54 13t-20 37zM271 600q68 0 110 37t42 99h-91q0 -30 -17 -47.5t-44 -17.5
q-28 0 -45 18t-17 47h-91q0 -62 42 -99t111 -37zM215 818h112l94 136h-137z" />
    <glyph glyph-name="uni1EB7" unicode="&#x1eb7;" horiz-adv-x="543" 
d="M194 -12q55 0 97.5 19.5t67.5 66.5h20q4 -46 34 -65t78 -19q11 0 27.5 1.5t32.5 2.5v95q-4 0 -9 -1t-9 -1q-20 0 -29 13.5t-10.5 33t-1.5 39.5v177q0 60 -29.5 99.5t-81 60t-116.5 20.5q-59 0 -109 -19t-84 -54.5t-46 -83.5l127 -23q13 30 39.5 47.5t64.5 17.5
q37 0 67.5 -21t30.5 -61v-7l-118 -24q-61 -13 -109 -31.5t-76 -52t-28 -90.5q0 -62 47 -101t123 -39zM155 144q0 28 23.5 42.5t64.5 24.5l112 28v-64q-10 -41 -42.5 -61t-83.5 -20q-34 0 -54 13t-20 37zM277 -243q34 0 58 24t24 58t-24 58t-58 24t-58 -24t-24 -58t24 -58
t58 -24zM271 600q68 0 110 37t42 99h-91q0 -30 -17 -47.5t-44 -17.5q-28 0 -45 18t-17 47h-91q0 -62 42 -99t111 -37z" />
    <glyph glyph-name="uni1EB1" unicode="&#x1eb1;" horiz-adv-x="543" 
d="M194 -12q55 0 97.5 19.5t67.5 66.5h20q4 -46 34 -65t78 -19q11 0 27.5 1.5t32.5 2.5v95q-4 0 -9 -1t-9 -1q-20 0 -29 13.5t-10.5 33t-1.5 39.5v177q0 60 -29.5 99.5t-81 60t-116.5 20.5q-59 0 -109 -19t-84 -54.5t-46 -83.5l127 -23q13 30 39.5 47.5t64.5 17.5
q37 0 67.5 -21t30.5 -61v-7l-118 -24q-61 -13 -109 -31.5t-76 -52t-28 -90.5q0 -62 47 -101t123 -39zM155 144q0 28 23.5 42.5t64.5 24.5l112 28v-64q-10 -41 -42.5 -61t-83.5 -20q-34 0 -54 13t-20 37zM215 818h112l-68 136h-138zM271 600q69 0 111 37t42 99h-91
q0 -30 -17 -47.5t-45 -17.5t-44.5 18t-16.5 47h-91q0 -62 42 -99t110 -37z" />
    <glyph glyph-name="uni1EB3" unicode="&#x1eb3;" horiz-adv-x="543" 
d="M194 -12q55 0 97.5 19.5t67.5 66.5h20q4 -46 34 -65t78 -19q11 0 27.5 1.5t32.5 2.5v95q-4 0 -9 -1t-9 -1q-20 0 -29 13.5t-10.5 33t-1.5 39.5v177q0 60 -29.5 99.5t-81 60t-116.5 20.5q-59 0 -109 -19t-84 -54.5t-46 -83.5l127 -23q13 30 39.5 47.5t64.5 17.5
q37 0 67.5 -21t30.5 -61v-7l-118 -24q-61 -13 -109 -31.5t-76 -52t-28 -90.5q0 -62 47 -101t123 -39zM155 144q0 28 23.5 42.5t64.5 24.5l112 28v-64q-10 -41 -42.5 -61t-83.5 -20q-34 0 -54 13t-20 37zM271 600q68 0 110 37t42 99h-91q0 -30 -17 -47.5t-44 -17.5
q-28 0 -45 18t-17 47h-91q0 -62 42 -99t111 -37zM262 818q57 11 79.5 38t22.5 54q0 40 -28 64.5t-76 24.5q-46 0 -83 -20l20 -62q8 6 19.5 8.5t21.5 2.5q24 0 35 -9.5t11 -24.5q0 -17 -13.5 -29t-40.5 -21z" />
    <glyph glyph-name="uni1EB5" unicode="&#x1eb5;" horiz-adv-x="543" 
d="M194 -12q55 0 97.5 19.5t67.5 66.5h20q4 -46 34 -65t78 -19q11 0 27.5 1.5t32.5 2.5v95q-4 0 -9 -1t-9 -1q-20 0 -29 13.5t-10.5 33t-1.5 39.5v177q0 60 -29.5 99.5t-81 60t-116.5 20.5q-59 0 -109 -19t-84 -54.5t-46 -83.5l127 -23q13 30 39.5 47.5t64.5 17.5
q37 0 67.5 -21t30.5 -61v-7l-118 -24q-61 -13 -109 -31.5t-76 -52t-28 -90.5q0 -62 47 -101t123 -39zM155 144q0 28 23.5 42.5t64.5 24.5l112 28v-64q-10 -41 -42.5 -61t-83.5 -20q-34 0 -54 13t-20 37zM319 821q35 0 62 33.5t26 97.5h-65q-3 -25 -10 -35.5t-16 -10.5
q-13 0 -25.5 13.5t-29 27t-39.5 13.5q-35 0 -61.5 -34.5t-26.5 -97.5h65q3 24 11 35.5t15 11.5q13 0 26 -13.5t29 -27t39 -13.5zM271 600q69 0 111 37t42 99h-91q0 -30 -17 -47.5t-45 -17.5t-44.5 18t-16.5 47h-91q0 -62 42 -99t110 -37z" />
    <glyph glyph-name="acircumflex" unicode="&#xe2;" horiz-adv-x="543" 
d="M194 -12q55 0 97.5 19.5t67.5 66.5h20q4 -46 34 -65t78 -19q11 0 27.5 1.5t32.5 2.5v95q-4 0 -9 -1t-9 -1q-20 0 -29 13.5t-10.5 33t-1.5 39.5v177q0 60 -29.5 99.5t-81 60t-116.5 20.5q-59 0 -109 -19t-84 -54.5t-46 -83.5l127 -23q13 30 39.5 47.5t64.5 17.5
q37 0 67.5 -21t30.5 -61v-7l-118 -24q-61 -13 -109 -31.5t-76 -52t-28 -90.5q0 -62 47 -101t123 -39zM155 144q0 28 23.5 42.5t64.5 24.5l112 28v-64q-10 -41 -42.5 -61t-83.5 -20q-34 0 -54 13t-20 37zM104 600h110l56 72l56 -72h110l-103 136h-127z" />
    <glyph glyph-name="uni1EA5" unicode="&#x1ea5;" horiz-adv-x="543" 
d="M194 -12q55 0 97.5 19.5t67.5 66.5h20q4 -46 34 -65t78 -19q11 0 27.5 1.5t32.5 2.5v95q-4 0 -9 -1t-9 -1q-20 0 -29 13.5t-10.5 33t-1.5 39.5v177q0 60 -29.5 99.5t-81 60t-116.5 20.5q-59 0 -109 -19t-84 -54.5t-46 -83.5l127 -23q13 30 39.5 47.5t64.5 17.5
q37 0 67.5 -21t30.5 -61v-7l-118 -24q-61 -13 -109 -31.5t-76 -52t-28 -90.5q0 -62 47 -101t123 -39zM155 144q0 28 23.5 42.5t64.5 24.5l112 28v-64q-10 -41 -42.5 -61t-83.5 -20q-34 0 -54 13t-20 37zM104 600h110l56 72l56 -72h110l-103 136h-127zM417 674h112l94 136
h-137z" />
    <glyph glyph-name="uni1EAD" unicode="&#x1ead;" horiz-adv-x="543" 
d="M194 -12q55 0 97.5 19.5t67.5 66.5h20q4 -46 34 -65t78 -19q11 0 27.5 1.5t32.5 2.5v95q-4 0 -9 -1t-9 -1q-20 0 -29 13.5t-10.5 33t-1.5 39.5v177q0 60 -29.5 99.5t-81 60t-116.5 20.5q-59 0 -109 -19t-84 -54.5t-46 -83.5l127 -23q13 30 39.5 47.5t64.5 17.5
q37 0 67.5 -21t30.5 -61v-7l-118 -24q-61 -13 -109 -31.5t-76 -52t-28 -90.5q0 -62 47 -101t123 -39zM155 144q0 28 23.5 42.5t64.5 24.5l112 28v-64q-10 -41 -42.5 -61t-83.5 -20q-34 0 -54 13t-20 37zM277 -243q34 0 58 24t24 58t-24 58t-58 24t-58 -24t-24 -58t24 -58
t58 -24zM104 600h110l56 72l56 -72h110l-103 136h-127z" />
    <glyph glyph-name="uni1EA7" unicode="&#x1ea7;" horiz-adv-x="543" 
d="M194 -12q55 0 97.5 19.5t67.5 66.5h20q4 -46 34 -65t78 -19q11 0 27.5 1.5t32.5 2.5v95q-4 0 -9 -1t-9 -1q-20 0 -29 13.5t-10.5 33t-1.5 39.5v177q0 60 -29.5 99.5t-81 60t-116.5 20.5q-59 0 -109 -19t-84 -54.5t-46 -83.5l127 -23q13 30 39.5 47.5t64.5 17.5
q37 0 67.5 -21t30.5 -61v-7l-118 -24q-61 -13 -109 -31.5t-76 -52t-28 -90.5q0 -62 47 -101t123 -39zM155 144q0 28 23.5 42.5t64.5 24.5l112 28v-64q-10 -41 -42.5 -61t-83.5 -20q-34 0 -54 13t-20 37zM104 600h110l56 72l56 -72h110l-103 136h-127zM418 674h112l-68 136
h-138z" />
    <glyph glyph-name="uni1EA9" unicode="&#x1ea9;" horiz-adv-x="543" 
d="M194 -12q55 0 97.5 19.5t67.5 66.5h20q4 -46 34 -65t78 -19q11 0 27.5 1.5t32.5 2.5v95q-4 0 -9 -1t-9 -1q-20 0 -29 13.5t-10.5 33t-1.5 39.5v177q0 60 -29.5 99.5t-81 60t-116.5 20.5q-59 0 -109 -19t-84 -54.5t-46 -83.5l127 -23q13 30 39.5 47.5t64.5 17.5
q37 0 67.5 -21t30.5 -61v-7l-118 -24q-61 -13 -109 -31.5t-76 -52t-28 -90.5q0 -62 47 -101t123 -39zM155 144q0 28 23.5 42.5t64.5 24.5l112 28v-64q-10 -41 -42.5 -61t-83.5 -20q-34 0 -54 13t-20 37zM104 600h110l56 72l56 -72h110l-103 136h-127zM465 674q57 11 79.5 38
t22.5 54q0 40 -28 64.5t-76 24.5q-46 0 -83 -20l20 -62q8 6 19.5 8.5t21.5 2.5q24 0 35 -9.5t11 -24.5q0 -17 -13.5 -29t-40.5 -21z" />
    <glyph glyph-name="uni1EAB" unicode="&#x1eab;" horiz-adv-x="543" 
d="M194 -12q55 0 97.5 19.5t67.5 66.5h20q4 -46 34 -65t78 -19q11 0 27.5 1.5t32.5 2.5v95q-4 0 -9 -1t-9 -1q-20 0 -29 13.5t-10.5 33t-1.5 39.5v177q0 60 -29.5 99.5t-81 60t-116.5 20.5q-59 0 -109 -19t-84 -54.5t-46 -83.5l127 -23q13 30 39.5 47.5t64.5 17.5
q37 0 67.5 -21t30.5 -61v-7l-118 -24q-61 -13 -109 -31.5t-76 -52t-28 -90.5q0 -62 47 -101t123 -39zM155 144q0 28 23.5 42.5t64.5 24.5l112 28v-64q-10 -41 -42.5 -61t-83.5 -20q-34 0 -54 13t-20 37zM325 821q40 0 70 33.5t29 97.5h-73q-3 -25 -11.5 -35.5t-17.5 -10.5
q-14 0 -28.5 13.5t-33 27t-44.5 13.5q-40 0 -70 -34.5t-28 -97.5h72q3 24 11.5 35.5t17.5 11.5q15 0 29.5 -13.5t32.5 -27t44 -13.5zM104 600h110l56 72l56 -72h110l-103 136h-127z" />
    <glyph glyph-name="uni0201" unicode="&#x201;" horiz-adv-x="543" 
d="M194 -12q55 0 97.5 19.5t67.5 66.5h20q4 -46 34 -65t78 -19q11 0 27.5 1.5t32.5 2.5v95q-4 0 -9 -1t-9 -1q-20 0 -29 13.5t-10.5 33t-1.5 39.5v177q0 60 -29.5 99.5t-81 60t-116.5 20.5q-59 0 -109 -19t-84 -54.5t-46 -83.5l127 -23q13 30 39.5 47.5t64.5 17.5
q37 0 67.5 -21t30.5 -61v-7l-118 -24q-61 -13 -109 -31.5t-76 -52t-28 -90.5q0 -62 47 -101t123 -39zM155 144q0 28 23.5 42.5t64.5 24.5l112 28v-64q-10 -41 -42.5 -61t-83.5 -20q-34 0 -54 13t-20 37zM306 600h112l-69 136h-137zM123 600h112l-68 136h-138z" />
    <glyph glyph-name="adieresis" unicode="&#xe4;" horiz-adv-x="543" 
d="M194 -12q55 0 97.5 19.5t67.5 66.5h20q4 -46 34 -65t78 -19q11 0 27.5 1.5t32.5 2.5v95q-4 0 -9 -1t-9 -1q-20 0 -29 13.5t-10.5 33t-1.5 39.5v177q0 60 -29.5 99.5t-81 60t-116.5 20.5q-59 0 -109 -19t-84 -54.5t-46 -83.5l127 -23q13 30 39.5 47.5t64.5 17.5
q37 0 67.5 -21t30.5 -61v-7l-118 -24q-61 -13 -109 -31.5t-76 -52t-28 -90.5q0 -62 47 -101t123 -39zM155 144q0 28 23.5 42.5t64.5 24.5l112 28v-64q-10 -41 -42.5 -61t-83.5 -20q-34 0 -54 13t-20 37zM177 600q31 0 53 22t22 53t-22 53t-53 22t-53 -22t-22 -53t22 -53
t53 -22zM373 600q31 0 53 22t22 53t-22 53t-53 22t-53 -22t-22 -53t22 -53t53 -22z" />
    <glyph glyph-name="uni1EA1" unicode="&#x1ea1;" horiz-adv-x="543" 
d="M194 -12q55 0 97.5 19.5t67.5 66.5h20q4 -46 34 -65t78 -19q11 0 27.5 1.5t32.5 2.5v95q-4 0 -9 -1t-9 -1q-20 0 -29 13.5t-10.5 33t-1.5 39.5v177q0 60 -29.5 99.5t-81 60t-116.5 20.5q-59 0 -109 -19t-84 -54.5t-46 -83.5l127 -23q13 30 39.5 47.5t64.5 17.5
q37 0 67.5 -21t30.5 -61v-7l-118 -24q-61 -13 -109 -31.5t-76 -52t-28 -90.5q0 -62 47 -101t123 -39zM155 144q0 28 23.5 42.5t64.5 24.5l112 28v-64q-10 -41 -42.5 -61t-83.5 -20q-34 0 -54 13t-20 37zM277 -243q34 0 58 24t24 58t-24 58t-58 24t-58 -24t-24 -58t24 -58
t58 -24z" />
    <glyph glyph-name="agrave" unicode="&#xe0;" horiz-adv-x="543" 
d="M194 -12q55 0 97.5 19.5t67.5 66.5h20q4 -46 34 -65t78 -19q11 0 27.5 1.5t32.5 2.5v95q-4 0 -9 -1t-9 -1q-20 0 -29 13.5t-10.5 33t-1.5 39.5v177q0 60 -29.5 99.5t-81 60t-116.5 20.5q-59 0 -109 -19t-84 -54.5t-46 -83.5l127 -23q13 30 39.5 47.5t64.5 17.5
q37 0 67.5 -21t30.5 -61v-7l-118 -24q-61 -13 -109 -31.5t-76 -52t-28 -90.5q0 -62 47 -101t123 -39zM155 144q0 28 23.5 42.5t64.5 24.5l112 28v-64q-10 -41 -42.5 -61t-83.5 -20q-34 0 -54 13t-20 37zM215 600h112l-68 136h-138z" />
    <glyph glyph-name="uni1EA3" unicode="&#x1ea3;" horiz-adv-x="543" 
d="M194 -12q55 0 97.5 19.5t67.5 66.5h20q4 -46 34 -65t78 -19q11 0 27.5 1.5t32.5 2.5v95q-4 0 -9 -1t-9 -1q-20 0 -29 13.5t-10.5 33t-1.5 39.5v177q0 60 -29.5 99.5t-81 60t-116.5 20.5q-59 0 -109 -19t-84 -54.5t-46 -83.5l127 -23q13 30 39.5 47.5t64.5 17.5
q37 0 67.5 -21t30.5 -61v-7l-118 -24q-61 -13 -109 -31.5t-76 -52t-28 -90.5q0 -62 47 -101t123 -39zM155 144q0 28 23.5 42.5t64.5 24.5l112 28v-64q-10 -41 -42.5 -61t-83.5 -20q-34 0 -54 13t-20 37zM262 600q57 11 79.5 38t22.5 54q0 40 -28 64.5t-76 24.5
q-46 0 -83 -20l20 -62q8 6 19.5 8.5t21.5 2.5q24 0 35 -9.5t11 -24.5q0 -17 -13.5 -29t-40.5 -21z" />
    <glyph glyph-name="uni0203" unicode="&#x203;" horiz-adv-x="543" 
d="M194 -12q55 0 97.5 19.5t67.5 66.5h20q4 -46 34 -65t78 -19q11 0 27.5 1.5t32.5 2.5v95q-4 0 -9 -1t-9 -1q-20 0 -29 13.5t-10.5 33t-1.5 39.5v177q0 60 -29.5 99.5t-81 60t-116.5 20.5q-59 0 -109 -19t-84 -54.5t-46 -83.5l127 -23q13 30 39.5 47.5t64.5 17.5
q37 0 67.5 -21t30.5 -61v-7l-118 -24q-61 -13 -109 -31.5t-76 -52t-28 -90.5q0 -62 47 -101t123 -39zM155 144q0 28 23.5 42.5t64.5 24.5l112 28v-64q-10 -41 -42.5 -61t-83.5 -20q-34 0 -54 13t-20 37zM118 600h91q0 29 17 47t45 18q27 0 44 -17.5t17 -47.5h91q0 62 -42 99
t-110 37q-69 0 -111 -37t-42 -99z" />
    <glyph glyph-name="amacron" unicode="&#x101;" horiz-adv-x="543" 
d="M194 -12q55 0 97.5 19.5t67.5 66.5h20q4 -46 34 -65t78 -19q11 0 27.5 1.5t32.5 2.5v95q-4 0 -9 -1t-9 -1q-20 0 -29 13.5t-10.5 33t-1.5 39.5v177q0 60 -29.5 99.5t-81 60t-116.5 20.5q-59 0 -109 -19t-84 -54.5t-46 -83.5l127 -23q13 30 39.5 47.5t64.5 17.5
q37 0 67.5 -21t30.5 -61v-7l-118 -24q-61 -13 -109 -31.5t-76 -52t-28 -90.5q0 -62 47 -101t123 -39zM155 144q0 28 23.5 42.5t64.5 24.5l112 28v-64q-10 -41 -42.5 -61t-83.5 -20q-34 0 -54 13t-20 37zM117 614h307v95h-307v-95z" />
    <glyph glyph-name="aogonek" unicode="&#x105;" horiz-adv-x="543" 
d="M194 -12q55 0 97.5 19.5t67.5 66.5h20q4 -46 34 -65t78 -19q11 0 27.5 1.5t32.5 2.5v95q-4 0 -9 -1t-9 -1q-20 0 -29 13.5t-10.5 33t-1.5 39.5v177q0 60 -29.5 99.5t-81 60t-116.5 20.5q-59 0 -109 -19t-84 -54.5t-46 -83.5l127 -23q13 30 39.5 47.5t64.5 17.5
q37 0 67.5 -21t30.5 -61v-7l-118 -24q-61 -13 -109 -31.5t-76 -52t-28 -90.5q0 -62 47 -101t123 -39zM155 144q0 28 23.5 42.5t64.5 24.5l112 28v-64q-10 -41 -42.5 -61t-83.5 -20q-34 0 -54 13t-20 37zM465 -216q32 0 66.5 11t65.5 37l-37 66q-14 -14 -36.5 -22.5
t-46.5 -8.5t-40 12t-16 36q0 25 24 48t85 38l-37 26q-78 -12 -120 -48.5t-42 -86.5q0 -38 20 -61.5t50.5 -35t63.5 -11.5z" />
    <glyph glyph-name="aring" unicode="&#xe5;" horiz-adv-x="543" 
d="M194 -12q55 0 97.5 19.5t67.5 66.5h20q4 -46 34 -65t78 -19q11 0 27.5 1.5t32.5 2.5v95q-4 0 -9 -1t-9 -1q-20 0 -29 13.5t-10.5 33t-1.5 39.5v177q0 60 -29.5 99.5t-81 60t-116.5 20.5q-59 0 -109 -19t-84 -54.5t-46 -83.5l127 -23q13 30 39.5 47.5t64.5 17.5
q37 0 67.5 -21t30.5 -61v-7l-118 -24q-61 -13 -109 -31.5t-76 -52t-28 -90.5q0 -62 47 -101t123 -39zM155 144q0 28 23.5 42.5t64.5 24.5l112 28v-64q-10 -41 -42.5 -61t-83.5 -20q-34 0 -54 13t-20 37zM270 600q54 0 89 34.5t35 81.5q0 49 -35 83t-89 34t-89 -34t-35 -83
q0 -47 35 -81.5t89 -34.5zM270 667q-19 0 -34 13t-15 36q0 24 15 36.5t34 12.5q20 0 35 -13.5t15 -35.5q0 -21 -15 -35t-35 -14z" />
    <glyph glyph-name="aringacute" unicode="&#x1fb;" horiz-adv-x="543" 
d="M194 -12q55 0 97.5 19.5t67.5 66.5h20q4 -46 34 -65t78 -19q11 0 27.5 1.5t32.5 2.5v95q-4 0 -9 -1t-9 -1q-20 0 -29 13.5t-10.5 33t-1.5 39.5v177q0 60 -29.5 99.5t-81 60t-116.5 20.5q-59 0 -109 -19t-84 -54.5t-46 -83.5l127 -23q13 30 39.5 47.5t64.5 17.5
q37 0 67.5 -21t30.5 -61v-7l-118 -24q-61 -13 -109 -31.5t-76 -52t-28 -90.5q0 -62 47 -101t123 -39zM155 144q0 28 23.5 42.5t64.5 24.5l112 28v-64q-10 -41 -42.5 -61t-83.5 -20q-34 0 -54 13t-20 37zM270 600q54 0 89 34.5t35 81.5q0 38 -21 67l85 123h-138l-36 -74
q-7 1 -14 1q-54 0 -89 -34t-35 -83q0 -47 35 -81.5t89 -34.5zM270 667q-19 0 -34 13t-15 36q0 24 15 36.5t34 12.5q20 0 35 -13.5t15 -35.5q0 -21 -15 -35t-35 -14z" />
    <glyph glyph-name="atilde" unicode="&#xe3;" horiz-adv-x="543" 
d="M194 -12q55 0 97.5 19.5t67.5 66.5h20q4 -46 34 -65t78 -19q11 0 27.5 1.5t32.5 2.5v95q-4 0 -9 -1t-9 -1q-20 0 -29 13.5t-10.5 33t-1.5 39.5v177q0 60 -29.5 99.5t-81 60t-116.5 20.5q-59 0 -109 -19t-84 -54.5t-46 -83.5l127 -23q13 30 39.5 47.5t64.5 17.5
q37 0 67.5 -21t30.5 -61v-7l-118 -24q-61 -13 -109 -31.5t-76 -52t-28 -90.5q0 -62 47 -101t123 -39zM155 144q0 28 23.5 42.5t64.5 24.5l112 28v-64q-10 -41 -42.5 -61t-83.5 -20q-34 0 -54 13t-20 37zM332 603q43 0 77 33.5t32 97.5h-81q-3 -25 -12.5 -35.5t-19.5 -10.5
q-16 0 -32 13.5t-36.5 27t-49.5 13.5q-44 0 -77.5 -34.5t-32.5 -97.5h82q3 24 12.5 35.5t19.5 11.5q16 0 32 -13.5t36 -27t50 -13.5z" />
    <glyph glyph-name="ae" unicode="&#xe6;" horiz-adv-x="907" 
d="M202 -12q68 0 125 25.5t88 87.5h17q26 -53 78.5 -83t121.5 -30q90 0 157 44t92 118l-131 23q-16 -32 -47.5 -51t-74.5 -19q-53 0 -89.5 31.5t-45.5 87.5l389 -1l11 33q0 133 -71 204.5t-194 71.5q-56 0 -102.5 -17.5t-79.5 -49.5q-29 33 -76 50t-105 17q-59 0 -109 -19
t-84 -54.5t-46 -83.5l127 -23q13 30 39.5 47.5t64.5 17.5q37 0 67.5 -21t30.5 -61v-7l-118 -24q-61 -13 -109 -31.5t-76 -52t-28 -90.5q0 -62 49 -101t129 -39zM498 321q13 46 46.5 71.5t81.5 25.5q47 0 82.5 -23.5t44.5 -73.5h-255zM229 94q-34 0 -54 13t-20 37
q0 28 23.5 42.5t64.5 24.5l111 28v-64q-9 -41 -41.5 -61t-83.5 -20z" />
    <glyph glyph-name="aeacute" unicode="&#x1fd;" horiz-adv-x="907" 
d="M202 -12q68 0 125 25.5t88 87.5h17q26 -53 78.5 -83t121.5 -30q90 0 157 44t92 118l-131 23q-16 -32 -47.5 -51t-74.5 -19q-53 0 -89.5 31.5t-45.5 87.5l389 -1l11 33q0 133 -71 204.5t-194 71.5q-56 0 -102.5 -17.5t-79.5 -49.5q-29 33 -76 50t-105 17q-59 0 -109 -19
t-84 -54.5t-46 -83.5l127 -23q13 30 39.5 47.5t64.5 17.5q37 0 67.5 -21t30.5 -61v-7l-118 -24q-61 -13 -109 -31.5t-76 -52t-28 -90.5q0 -62 49 -101t129 -39zM498 321q13 46 46.5 71.5t81.5 25.5q47 0 82.5 -23.5t44.5 -73.5h-255zM229 94q-34 0 -54 13t-20 37
q0 28 23.5 42.5t64.5 24.5l111 28v-64q-9 -41 -41.5 -61t-83.5 -20zM388 600h112l94 136h-137z" />
    <glyph glyph-name="b" unicode="b" horiz-adv-x="638" 
d="M375 -12q74 0 129.5 34.5t87.5 95.5t32 141t-32 141t-87.5 95.5t-129.5 34.5q-61 0 -99.5 -24t-60.5 -65l-20 9q11 17 13.5 34t2.5 45v183h-137v-712h137v7q0 16 -2.5 28.5t-13.5 33.5l20 8q22 -40 60.5 -64.5t99.5 -24.5zM350 105q-51 0 -88.5 26t-50.5 70v116
q13 43 50.5 69t88.5 26q61 0 99.5 -42t38.5 -111q0 -70 -38 -112t-100 -42z" />
    <glyph glyph-name="c" unicode="c" horiz-adv-x="549" 
d="M293 -12q95 0 163 48.5t89 130.5l-128 23q-13 -36 -44 -59.5t-80 -23.5q-64 0 -104.5 42t-40.5 110q0 67 40.5 109.5t104.5 42.5q49 0 80 -23.5t44 -60.5l128 24q-20 82 -88.5 130.5t-163.5 48.5q-82 0 -145 -34.5t-98.5 -95.5t-35.5 -141q0 -81 35.5 -142t98 -95
t145.5 -34z" />
    <glyph glyph-name="cacute" unicode="&#x107;" horiz-adv-x="549" 
d="M293 -12q95 0 163 48.5t89 130.5l-128 23q-13 -36 -44 -59.5t-80 -23.5q-64 0 -104.5 42t-40.5 110q0 67 40.5 109.5t104.5 42.5q49 0 80 -23.5t44 -60.5l128 24q-20 82 -88.5 130.5t-163.5 48.5q-82 0 -145 -34.5t-98.5 -95.5t-35.5 -141q0 -81 35.5 -142t98 -95
t145.5 -34zM220 600h112l94 136h-137z" />
    <glyph glyph-name="ccaron" unicode="&#x10d;" horiz-adv-x="549" 
d="M293 -12q95 0 163 48.5t89 130.5l-128 23q-13 -36 -44 -59.5t-80 -23.5q-64 0 -104.5 42t-40.5 110q0 67 40.5 109.5t104.5 42.5q49 0 80 -23.5t44 -60.5l128 24q-20 82 -88.5 130.5t-163.5 48.5q-82 0 -145 -34.5t-98.5 -95.5t-35.5 -141q0 -81 35.5 -142t98 -95
t145.5 -34zM212 600h127l103 136h-110l-56 -72l-56 72h-110z" />
    <glyph glyph-name="ccedilla" unicode="&#xe7;" horiz-adv-x="549" 
d="M293 -12q95 0 163 48.5t89 130.5l-128 23q-13 -36 -44 -59.5t-80 -23.5q-64 0 -104.5 42t-40.5 110q0 67 40.5 109.5t104.5 42.5q49 0 80 -23.5t44 -60.5l128 24q-20 82 -88.5 130.5t-163.5 48.5q-82 0 -145 -34.5t-98.5 -95.5t-35.5 -141q0 -81 35.5 -142t98 -95
t145.5 -34zM279 -226q58 0 91.5 28t33.5 80q0 42 -27.5 66t-71.5 24h-5l12 46h-72l-28 -107q25 9 54 9q49 0 49 -33q0 -17 -14 -24.5t-39 -7.5q-16 0 -35 5.5t-34 17.5l-40 -56q23 -23 56.5 -35.5t69.5 -12.5z" />
    <glyph glyph-name="uni1E09" unicode="&#x1e09;" horiz-adv-x="549" 
d="M293 -12q95 0 163 48.5t89 130.5l-128 23q-13 -36 -44 -59.5t-80 -23.5q-64 0 -104.5 42t-40.5 110q0 67 40.5 109.5t104.5 42.5q49 0 80 -23.5t44 -60.5l128 24q-20 82 -88.5 130.5t-163.5 48.5q-82 0 -145 -34.5t-98.5 -95.5t-35.5 -141q0 -81 35.5 -142t98 -95
t145.5 -34zM279 -226q58 0 91.5 28t33.5 80q0 42 -27.5 66t-71.5 24h-5l12 46h-72l-28 -107q25 9 54 9q49 0 49 -33q0 -17 -14 -24.5t-39 -7.5q-16 0 -35 5.5t-34 17.5l-40 -56q23 -23 56.5 -35.5t69.5 -12.5zM220 600h112l94 136h-137z" />
    <glyph glyph-name="ccircumflex" unicode="&#x109;" horiz-adv-x="549" 
d="M293 -12q95 0 163 48.5t89 130.5l-128 23q-13 -36 -44 -59.5t-80 -23.5q-64 0 -104.5 42t-40.5 110q0 67 40.5 109.5t104.5 42.5q49 0 80 -23.5t44 -60.5l128 24q-20 82 -88.5 130.5t-163.5 48.5q-82 0 -145 -34.5t-98.5 -95.5t-35.5 -141q0 -81 35.5 -142t98 -95
t145.5 -34zM110 600h110l56 72l56 -72h110l-103 136h-127z" />
    <glyph glyph-name="cdotaccent" unicode="&#x10b;" horiz-adv-x="549" 
d="M293 -12q95 0 163 48.5t89 130.5l-128 23q-13 -36 -44 -59.5t-80 -23.5q-64 0 -104.5 42t-40.5 110q0 67 40.5 109.5t104.5 42.5q49 0 80 -23.5t44 -60.5l128 24q-20 82 -88.5 130.5t-163.5 48.5q-82 0 -145 -34.5t-98.5 -95.5t-35.5 -141q0 -81 35.5 -142t98 -95
t145.5 -34zM283 600q32 0 55 22.5t23 55.5q0 32 -23 55t-55 23q-33 0 -56 -23t-23 -55q0 -33 23 -55.5t56 -22.5z" />
    <glyph glyph-name="d" unicode="d" horiz-adv-x="638" 
d="M263 -12q61 0 99.5 24.5t60.5 64.5l20 -8q-11 -21 -13.5 -33.5t-2.5 -28.5v-7h137v712h-137v-183q0 -28 2.5 -45t13.5 -34l-20 -9q-22 41 -60.5 65t-99.5 24q-74 0 -130 -34.5t-87.5 -95.5t-31.5 -141t31.5 -141t87.5 -95.5t130 -34.5zM288 105q-62 0 -100 42t-38 112
q0 69 38.5 111t99.5 42q51 0 88.5 -26t50.5 -69v-116q-13 -44 -50.5 -70t-88.5 -26z" />
    <glyph glyph-name="eth" unicode="&#xf0;" horiz-adv-x="621" 
d="M281 -11q82 0 145 38.5t99 115t36 191.5q0 75 -8.5 141t-29.5 118l84 31l-28 76l-98 -36q-32 40 -79.5 61.5t-115.5 21.5q-67 0 -130.5 -26.5t-107.5 -74.5l98 -73q24 30 56 47t77 17q42 0 73 -20l-92 -33l28 -77l118 44q14 -30 21 -65.5t10 -72.5l-20 -4
q-28 39 -63.5 58t-89.5 19q-68 0 -124.5 -30.5t-91 -84t-34.5 -122.5q0 -77 34.5 -135.5t95 -91.5t137.5 -33zM288 108q-61 0 -100.5 38.5t-39.5 102.5q0 65 39.5 103.5t100.5 38.5q60 0 100 -38.5t40 -103.5q0 -64 -40 -102.5t-100 -38.5z" />
    <glyph glyph-name="dcaron" unicode="&#x10f;" horiz-adv-x="801" 
d="M263 -12q61 0 99.5 24.5t60.5 64.5l20 -8q-11 -21 -13.5 -33.5t-2.5 -28.5v-7h137v712h-137v-183q0 -28 2.5 -45t13.5 -34l-20 -9q-22 41 -60.5 65t-99.5 24q-74 0 -130 -34.5t-87.5 -95.5t-31.5 -141t31.5 -141t87.5 -95.5t130 -34.5zM640 537h106l23 171h-129v-171z
M288 105q-62 0 -100 42t-38 112q0 69 38.5 111t99.5 42q51 0 88.5 -26t50.5 -69v-116q-13 -44 -50.5 -70t-88.5 -26z" />
    <glyph glyph-name="dcroat" unicode="&#x111;" horiz-adv-x="638" 
d="M263 -12q61 0 99.5 24.5t60.5 64.5l20 -8q-11 -21 -13.5 -33.5t-2.5 -28.5v-7h137v556h88v103h-88v53h-137v-53h-89v-103h89v-27q0 -28 2.5 -45t13.5 -34l-20 -9q-22 41 -60.5 65t-99.5 24q-74 0 -130 -34.5t-87.5 -95.5t-31.5 -141t31.5 -141t87.5 -95.5t130 -34.5z
M288 105q-62 0 -100 42t-38 112q0 69 38.5 111t99.5 42q51 0 88.5 -26t50.5 -69v-116q-13 -44 -50.5 -70t-88.5 -26z" />
    <glyph glyph-name="uni1E0D" unicode="&#x1e0d;" horiz-adv-x="638" 
d="M263 -12q61 0 99.5 24.5t60.5 64.5l20 -8q-11 -21 -13.5 -33.5t-2.5 -28.5v-7h137v712h-137v-183q0 -28 2.5 -45t13.5 -34l-20 -9q-22 41 -60.5 65t-99.5 24q-74 0 -130 -34.5t-87.5 -95.5t-31.5 -141t31.5 -141t87.5 -95.5t130 -34.5zM288 105q-62 0 -100 42t-38 112
q0 69 38.5 111t99.5 42q51 0 88.5 -26t50.5 -69v-116q-13 -44 -50.5 -70t-88.5 -26zM316 -243q34 0 58 24t24 58t-24 58t-58 24t-58 -24t-24 -58t24 -58t58 -24z" />
    <glyph glyph-name="dmacronbelow" unicode="&#x1e0f;" horiz-adv-x="638" 
d="M263 -12q61 0 99.5 24.5t60.5 64.5l20 -8q-11 -21 -13.5 -33.5t-2.5 -28.5v-7h137v712h-137v-183q0 -28 2.5 -45t13.5 -34l-20 -9q-22 41 -60.5 65t-99.5 24q-74 0 -130 -34.5t-87.5 -95.5t-31.5 -141t31.5 -141t87.5 -95.5t130 -34.5zM288 105q-62 0 -100 42t-38 112
q0 69 38.5 111t99.5 42q51 0 88.5 -26t50.5 -69v-116q-13 -44 -50.5 -70t-88.5 -26zM140 -173h307v95h-307v-95z" />
    <glyph glyph-name="uni01C6" unicode="&#x1c6;" horiz-adv-x="1100" 
d="M263 -12q61 0 99.5 24.5t60.5 64.5l20 -8q-11 -21 -13.5 -33.5t-2.5 -28.5v-7h137v712h-137v-183q0 -28 2.5 -45t13.5 -34l-20 -9q-22 41 -60.5 65t-99.5 24q-74 0 -130 -34.5t-87.5 -95.5t-31.5 -141t31.5 -141t87.5 -95.5t130 -34.5zM288 105q-62 0 -100 42t-38 112
q0 69 38.5 111t99.5 42q51 0 88.5 -26t50.5 -69v-116q-13 -44 -50.5 -70t-88.5 -26zM654 0h451v115h-220q-22 0 -36.5 -6t-23.5 -11l-8 20q14 5 26.5 13t23.5 22l229 268v97h-428v-114h200q22 0 37 5.5t24 10.5l8 -20q-10 -5 -23.5 -11.5t-27.5 -22.5l-232 -269v-97z
M816 600h127l103 136h-110l-56 -72l-56 72h-110z" />
    <glyph glyph-name="e" unicode="e" horiz-adv-x="566" 
d="M291 -12q89 0 156 44t93 118l-131 23q-16 -32 -47.5 -51.5t-74.5 -19.5q-53 0 -89.5 31.5t-46.5 88.5l390 -1l11 33q0 133 -71 204.5t-194 71.5q-81 0 -142 -34.5t-96 -95.5t-35 -141q0 -81 34.5 -142t97 -95t145.5 -34zM285 418q47 0 82 -23t45 -74h-256q14 47 47.5 72
t81.5 25z" />
    <glyph glyph-name="eacute" unicode="&#xe9;" horiz-adv-x="566" 
d="M291 -12q89 0 156 44t93 118l-131 23q-16 -32 -47.5 -51.5t-74.5 -19.5q-53 0 -89.5 31.5t-46.5 88.5l390 -1l11 33q0 133 -71 204.5t-194 71.5q-81 0 -142 -34.5t-96 -95.5t-35 -141q0 -81 34.5 -142t97 -95t145.5 -34zM285 418q47 0 82 -23t45 -74h-256q14 47 47.5 72
t81.5 25zM227 600h112l94 136h-137z" />
    <glyph glyph-name="ebreve" unicode="&#x115;" horiz-adv-x="566" 
d="M291 -12q89 0 156 44t93 118l-131 23q-16 -32 -47.5 -51.5t-74.5 -19.5q-53 0 -89.5 31.5t-46.5 88.5l390 -1l11 33q0 133 -71 204.5t-194 71.5q-81 0 -142 -34.5t-96 -95.5t-35 -141q0 -81 34.5 -142t97 -95t145.5 -34zM285 418q47 0 82 -23t45 -74h-256q14 47 47.5 72
t81.5 25zM283 600q68 0 110 37t42 99h-91q0 -30 -17 -47.5t-44 -17.5q-28 0 -45 18t-17 47h-91q0 -62 42 -99t111 -37z" />
    <glyph glyph-name="ecaron" unicode="&#x11b;" horiz-adv-x="566" 
d="M291 -12q89 0 156 44t93 118l-131 23q-16 -32 -47.5 -51.5t-74.5 -19.5q-53 0 -89.5 31.5t-46.5 88.5l390 -1l11 33q0 133 -71 204.5t-194 71.5q-81 0 -142 -34.5t-96 -95.5t-35 -141q0 -81 34.5 -142t97 -95t145.5 -34zM285 418q47 0 82 -23t45 -74h-256q14 47 47.5 72
t81.5 25zM219 600h127l103 136h-110l-56 -72l-56 72h-110z" />
    <glyph glyph-name="uni1E1D" unicode="&#x1e1d;" horiz-adv-x="566" 
d="M291 -12q89 0 156 44t93 118l-131 23q-16 -32 -47.5 -51.5t-74.5 -19.5q-53 0 -89.5 31.5t-46.5 88.5l390 -1l11 33q0 133 -71 204.5t-194 71.5q-81 0 -142 -34.5t-96 -95.5t-35 -141q0 -81 34.5 -142t97 -95t145.5 -34zM285 418q47 0 82 -23t45 -74h-256q14 47 47.5 72
t81.5 25zM286 -226q58 0 91.5 28t33.5 80q0 42 -27.5 66t-71.5 24h-5l12 46h-72l-28 -107q25 9 54 9q49 0 49 -33q0 -17 -14 -24.5t-39 -7.5q-16 0 -35 5.5t-34 17.5l-40 -56q23 -23 56.5 -35.5t69.5 -12.5zM283 600q68 0 110 37t42 99h-91q0 -30 -17 -47.5t-44 -17.5
q-28 0 -45 18t-17 47h-91q0 -62 42 -99t111 -37z" />
    <glyph glyph-name="ecircumflex" unicode="&#xea;" horiz-adv-x="566" 
d="M291 -12q89 0 156 44t93 118l-131 23q-16 -32 -47.5 -51.5t-74.5 -19.5q-53 0 -89.5 31.5t-46.5 88.5l390 -1l11 33q0 133 -71 204.5t-194 71.5q-81 0 -142 -34.5t-96 -95.5t-35 -141q0 -81 34.5 -142t97 -95t145.5 -34zM285 418q47 0 82 -23t45 -74h-256q14 47 47.5 72
t81.5 25zM117 600h110l56 72l56 -72h110l-103 136h-127z" />
    <glyph glyph-name="uni1EBF" unicode="&#x1ebf;" horiz-adv-x="566" 
d="M291 -12q89 0 156 44t93 118l-131 23q-16 -32 -47.5 -51.5t-74.5 -19.5q-53 0 -89.5 31.5t-46.5 88.5l390 -1l11 33q0 133 -71 204.5t-194 71.5q-81 0 -142 -34.5t-96 -95.5t-35 -141q0 -81 34.5 -142t97 -95t145.5 -34zM285 418q47 0 82 -23t45 -74h-256q14 47 47.5 72
t81.5 25zM117 600h110l56 72l56 -72h110l-103 136h-127zM430 674h112l94 136h-137z" />
    <glyph glyph-name="uni1EC7" unicode="&#x1ec7;" horiz-adv-x="566" 
d="M291 -12q89 0 156 44t93 118l-131 23q-16 -32 -47.5 -51.5t-74.5 -19.5q-53 0 -89.5 31.5t-46.5 88.5l390 -1l11 33q0 133 -71 204.5t-194 71.5q-81 0 -142 -34.5t-96 -95.5t-35 -141q0 -81 34.5 -142t97 -95t145.5 -34zM285 418q47 0 82 -23t45 -74h-256q14 47 47.5 72
t81.5 25zM289 -243q34 0 58 24t24 58t-24 58t-58 24t-58 -24t-24 -58t24 -58t58 -24zM117 600h110l56 72l56 -72h110l-103 136h-127z" />
    <glyph glyph-name="uni1EC1" unicode="&#x1ec1;" horiz-adv-x="566" 
d="M291 -12q89 0 156 44t93 118l-131 23q-16 -32 -47.5 -51.5t-74.5 -19.5q-53 0 -89.5 31.5t-46.5 88.5l390 -1l11 33q0 133 -71 204.5t-194 71.5q-81 0 -142 -34.5t-96 -95.5t-35 -141q0 -81 34.5 -142t97 -95t145.5 -34zM285 418q47 0 82 -23t45 -74h-256q14 47 47.5 72
t81.5 25zM117 600h110l56 72l56 -72h110l-103 136h-127zM430 674h112l-68 136h-138z" />
    <glyph glyph-name="uni1EC3" unicode="&#x1ec3;" horiz-adv-x="566" 
d="M291 -12q89 0 156 44t93 118l-131 23q-16 -32 -47.5 -51.5t-74.5 -19.5q-53 0 -89.5 31.5t-46.5 88.5l390 -1l11 33q0 133 -71 204.5t-194 71.5q-81 0 -142 -34.5t-96 -95.5t-35 -141q0 -81 34.5 -142t97 -95t145.5 -34zM285 418q47 0 82 -23t45 -74h-256q14 47 47.5 72
t81.5 25zM117 600h110l56 72l56 -72h110l-103 136h-127zM477 674q57 11 79.5 38t22.5 54q0 40 -28 64.5t-76 24.5q-46 0 -83 -20l20 -62q8 6 19.5 8.5t21.5 2.5q24 0 35 -9.5t11 -24.5q0 -17 -13.5 -29t-40.5 -21z" />
    <glyph glyph-name="uni1EC5" unicode="&#x1ec5;" horiz-adv-x="566" 
d="M291 -12q89 0 156 44t93 118l-131 23q-16 -32 -47.5 -51.5t-74.5 -19.5q-53 0 -89.5 31.5t-46.5 88.5l390 -1l11 33q0 133 -71 204.5t-194 71.5q-81 0 -142 -34.5t-96 -95.5t-35 -141q0 -81 34.5 -142t97 -95t145.5 -34zM285 418q47 0 82 -23t45 -74h-256q14 47 47.5 72
t81.5 25zM338 821q40 0 70 33.5t29 97.5h-73q-3 -25 -11.5 -35.5t-17.5 -10.5q-14 0 -28.5 13.5t-33 27t-44.5 13.5q-40 0 -70 -34.5t-28 -97.5h72q3 24 11.5 35.5t17.5 11.5q15 0 29.5 -13.5t32.5 -27t44 -13.5zM117 600h110l56 72l56 -72h110l-103 136h-127z" />
    <glyph glyph-name="uni0205" unicode="&#x205;" horiz-adv-x="566" 
d="M291 -12q89 0 156 44t93 118l-131 23q-16 -32 -47.5 -51.5t-74.5 -19.5q-53 0 -89.5 31.5t-46.5 88.5l390 -1l11 33q0 133 -71 204.5t-194 71.5q-81 0 -142 -34.5t-96 -95.5t-35 -141q0 -81 34.5 -142t97 -95t145.5 -34zM285 418q47 0 82 -23t45 -74h-256q14 47 47.5 72
t81.5 25zM319 600h112l-69 136h-137zM136 600h112l-68 136h-138z" />
    <glyph glyph-name="edieresis" unicode="&#xeb;" horiz-adv-x="566" 
d="M291 -12q89 0 156 44t93 118l-131 23q-16 -32 -47.5 -51.5t-74.5 -19.5q-53 0 -89.5 31.5t-46.5 88.5l390 -1l11 33q0 133 -71 204.5t-194 71.5q-81 0 -142 -34.5t-96 -95.5t-35 -141q0 -81 34.5 -142t97 -95t145.5 -34zM285 418q47 0 82 -23t45 -74h-256q14 47 47.5 72
t81.5 25zM189 600q31 0 53 22t22 53t-22 53t-53 22t-53 -22t-22 -53t22 -53t53 -22zM385 600q31 0 53 22t22 53t-22 53t-53 22t-53 -22t-22 -53t22 -53t53 -22z" />
    <glyph glyph-name="edotaccent" unicode="&#x117;" horiz-adv-x="566" 
d="M291 -12q89 0 156 44t93 118l-131 23q-16 -32 -47.5 -51.5t-74.5 -19.5q-53 0 -89.5 31.5t-46.5 88.5l390 -1l11 33q0 133 -71 204.5t-194 71.5q-81 0 -142 -34.5t-96 -95.5t-35 -141q0 -81 34.5 -142t97 -95t145.5 -34zM285 418q47 0 82 -23t45 -74h-256q14 47 47.5 72
t81.5 25zM290 600q32 0 55 22.5t23 55.5q0 32 -23 55t-55 23q-33 0 -56 -23t-23 -55q0 -33 23 -55.5t56 -22.5z" />
    <glyph glyph-name="uni1EB9" unicode="&#x1eb9;" horiz-adv-x="566" 
d="M291 -12q89 0 156 44t93 118l-131 23q-16 -32 -47.5 -51.5t-74.5 -19.5q-53 0 -89.5 31.5t-46.5 88.5l390 -1l11 33q0 133 -71 204.5t-194 71.5q-81 0 -142 -34.5t-96 -95.5t-35 -141q0 -81 34.5 -142t97 -95t145.5 -34zM285 418q47 0 82 -23t45 -74h-256q14 47 47.5 72
t81.5 25zM289 -243q34 0 58 24t24 58t-24 58t-58 24t-58 -24t-24 -58t24 -58t58 -24z" />
    <glyph glyph-name="egrave" unicode="&#xe8;" horiz-adv-x="566" 
d="M291 -12q89 0 156 44t93 118l-131 23q-16 -32 -47.5 -51.5t-74.5 -19.5q-53 0 -89.5 31.5t-46.5 88.5l390 -1l11 33q0 133 -71 204.5t-194 71.5q-81 0 -142 -34.5t-96 -95.5t-35 -141q0 -81 34.5 -142t97 -95t145.5 -34zM285 418q47 0 82 -23t45 -74h-256q14 47 47.5 72
t81.5 25zM227 600h112l-68 136h-138z" />
    <glyph glyph-name="uni1EBB" unicode="&#x1ebb;" horiz-adv-x="566" 
d="M291 -12q89 0 156 44t93 118l-131 23q-16 -32 -47.5 -51.5t-74.5 -19.5q-53 0 -89.5 31.5t-46.5 88.5l390 -1l11 33q0 133 -71 204.5t-194 71.5q-81 0 -142 -34.5t-96 -95.5t-35 -141q0 -81 34.5 -142t97 -95t145.5 -34zM285 418q47 0 82 -23t45 -74h-256q14 47 47.5 72
t81.5 25zM274 600q57 11 79.5 38t22.5 54q0 40 -28 64.5t-76 24.5q-46 0 -83 -20l20 -62q8 6 19.5 8.5t21.5 2.5q24 0 35 -9.5t11 -24.5q0 -17 -13.5 -29t-40.5 -21z" />
    <glyph glyph-name="uni0207" unicode="&#x207;" horiz-adv-x="566" 
d="M291 -12q89 0 156 44t93 118l-131 23q-16 -32 -47.5 -51.5t-74.5 -19.5q-53 0 -89.5 31.5t-46.5 88.5l390 -1l11 33q0 133 -71 204.5t-194 71.5q-81 0 -142 -34.5t-96 -95.5t-35 -141q0 -81 34.5 -142t97 -95t145.5 -34zM285 418q47 0 82 -23t45 -74h-256q14 47 47.5 72
t81.5 25zM130 600h91q0 29 17 47t45 18q27 0 44 -17.5t17 -47.5h91q0 62 -42 99t-110 37q-69 0 -111 -37t-42 -99z" />
    <glyph glyph-name="emacron" unicode="&#x113;" horiz-adv-x="566" 
d="M291 -12q89 0 156 44t93 118l-131 23q-16 -32 -47.5 -51.5t-74.5 -19.5q-53 0 -89.5 31.5t-46.5 88.5l390 -1l11 33q0 133 -71 204.5t-194 71.5q-81 0 -142 -34.5t-96 -95.5t-35 -141q0 -81 34.5 -142t97 -95t145.5 -34zM285 418q47 0 82 -23t45 -74h-256q14 47 47.5 72
t81.5 25zM129 614h307v95h-307v-95z" />
    <glyph glyph-name="uni1E17" unicode="&#x1e17;" horiz-adv-x="566" 
d="M291 -12q89 0 156 44t93 118l-131 23q-16 -32 -47.5 -51.5t-74.5 -19.5q-53 0 -89.5 31.5t-46.5 88.5l390 -1l11 33q0 133 -71 204.5t-194 71.5q-81 0 -142 -34.5t-96 -95.5t-35 -141q0 -81 34.5 -142t97 -95t145.5 -34zM285 418q47 0 82 -23t45 -74h-256q14 47 47.5 72
t81.5 25zM129 614h307v95h-307v-95zM227 791h112l94 136h-137z" />
    <glyph glyph-name="uni1E15" unicode="&#x1e15;" horiz-adv-x="566" 
d="M291 -12q89 0 156 44t93 118l-131 23q-16 -32 -47.5 -51.5t-74.5 -19.5q-53 0 -89.5 31.5t-46.5 88.5l390 -1l11 33q0 133 -71 204.5t-194 71.5q-81 0 -142 -34.5t-96 -95.5t-35 -141q0 -81 34.5 -142t97 -95t145.5 -34zM285 418q47 0 82 -23t45 -74h-256q14 47 47.5 72
t81.5 25zM129 614h307v95h-307v-95zM227 791h112l-68 136h-138z" />
    <glyph glyph-name="eogonek" unicode="&#x119;" horiz-adv-x="566" 
d="M291 -12q89 0 156 44t93 118l-131 23q-16 -32 -47.5 -51.5t-74.5 -19.5q-53 0 -89.5 31.5t-46.5 88.5l390 -1l11 33q0 133 -71 204.5t-194 71.5q-81 0 -142 -34.5t-96 -95.5t-35 -141q0 -81 34.5 -142t97 -95t145.5 -34zM285 418q47 0 82 -23t45 -74h-256q14 47 47.5 72
t81.5 25zM295 -208q32 0 66.5 11t65.5 37l-37 66q-14 -14 -36.5 -22.5t-46.5 -8.5t-40 12t-16 36q0 25 24 48t85 38l-37 26q-78 -12 -120 -48.5t-42 -86.5q0 -38 20 -61.5t50.5 -35t63.5 -11.5z" />
    <glyph glyph-name="uni1EBD" unicode="&#x1ebd;" horiz-adv-x="566" 
d="M291 -12q89 0 156 44t93 118l-131 23q-16 -32 -47.5 -51.5t-74.5 -19.5q-53 0 -89.5 31.5t-46.5 88.5l390 -1l11 33q0 133 -71 204.5t-194 71.5q-81 0 -142 -34.5t-96 -95.5t-35 -141q0 -81 34.5 -142t97 -95t145.5 -34zM285 418q47 0 82 -23t45 -74h-256q14 47 47.5 72
t81.5 25zM344 603q43 0 77 33.5t32 97.5h-81q-3 -25 -12.5 -35.5t-19.5 -10.5q-16 0 -32 13.5t-36.5 27t-49.5 13.5q-44 0 -77.5 -34.5t-32.5 -97.5h82q3 24 12.5 35.5t19.5 11.5q16 0 32 -13.5t36 -27t50 -13.5z" />
    <glyph glyph-name="uni0259" unicode="&#x259;" horiz-adv-x="556" 
d="M269 -12q81 0 142 34.5t96 95.5t35 141q0 81 -34.5 141.5t-97 94.5t-145.5 34q-89 0 -156 -43.5t-93 -117.5l131 -24q16 33 47.5 52t74.5 19q53 0 89.5 -31.5t46.5 -87.5l-390 1l-11 -34q0 -132 71 -203.5t194 -71.5zM271 100q-47 0 -82 23t-45 74h256q-14 -47 -47.5 -72
t-81.5 -25z" />
    <glyph glyph-name="f" unicode="f" horiz-adv-x="415" 
d="M112 0h136v403h142v115h-142v33q0 39 20.5 61t61.5 22q28 0 60 -9l29 109q-43 17 -95 17q-96 0 -154 -54.5t-58 -145.5v-33h-118v-115h118v-403z" />
    <glyph glyph-name="g" unicode="g" horiz-adv-x="638" 
d="M287 -214q79 0 141.5 25.5t99 78t36.5 134.5v494h-137v-5q0 -23 6 -38.5t11 -25.5l-20 -9q-30 47 -68 68.5t-92 21.5q-73 0 -129.5 -34t-88.5 -92.5t-32 -132.5t32 -132.5t88.5 -92.5t129.5 -34q54 0 92 21.5t68 67.5l20 -8q-7 -9 -11.5 -23.5t-4.5 -31.5v-14
q0 -46 -19 -72t-51 -36.5t-71 -10.5q-59 0 -92.5 21t-47.5 54l-127 -23q20 -78 91 -124.5t176 -46.5zM290 129q-62 0 -101 40t-39 102t39 101.5t101 39.5q51 0 87.5 -25.5t49.5 -69.5v-92q-13 -45 -49.5 -70.5t-87.5 -25.5z" />
    <glyph glyph-name="gbreve" unicode="&#x11f;" horiz-adv-x="638" 
d="M287 -214q79 0 141.5 25.5t99 78t36.5 134.5v494h-137v-5q0 -23 6 -38.5t11 -25.5l-20 -9q-30 47 -68 68.5t-92 21.5q-73 0 -129.5 -34t-88.5 -92.5t-32 -132.5t32 -132.5t88.5 -92.5t129.5 -34q54 0 92 21.5t68 67.5l20 -8q-7 -9 -11.5 -23.5t-4.5 -31.5v-14
q0 -46 -19 -72t-51 -36.5t-71 -10.5q-59 0 -92.5 21t-47.5 54l-127 -23q20 -78 91 -124.5t176 -46.5zM290 129q-62 0 -101 40t-39 102t39 101.5t101 39.5q51 0 87.5 -25.5t49.5 -69.5v-92q-13 -45 -49.5 -70.5t-87.5 -25.5zM305 621q68 0 110 37t42 99h-91q0 -30 -17 -47.5
t-44 -17.5q-28 0 -45 18t-17 47h-91q0 -62 42 -99t111 -37z" />
    <glyph glyph-name="gcaron" unicode="&#x1e7;" horiz-adv-x="638" 
d="M287 -214q79 0 141.5 25.5t99 78t36.5 134.5v494h-137v-5q0 -23 6 -38.5t11 -25.5l-20 -9q-30 47 -68 68.5t-92 21.5q-73 0 -129.5 -34t-88.5 -92.5t-32 -132.5t32 -132.5t88.5 -92.5t129.5 -34q54 0 92 21.5t68 67.5l20 -8q-7 -9 -11.5 -23.5t-4.5 -31.5v-14
q0 -46 -19 -72t-51 -36.5t-71 -10.5q-59 0 -92.5 21t-47.5 54l-127 -23q20 -78 91 -124.5t176 -46.5zM290 129q-62 0 -101 40t-39 102t39 101.5t101 39.5q51 0 87.5 -25.5t49.5 -69.5v-92q-13 -45 -49.5 -70.5t-87.5 -25.5zM241 621h127l103 136h-110l-56 -72l-56 72h-110z
" />
    <glyph glyph-name="gcircumflex" unicode="&#x11d;" horiz-adv-x="638" 
d="M287 -214q79 0 141.5 25.5t99 78t36.5 134.5v494h-137v-5q0 -23 6 -38.5t11 -25.5l-20 -9q-30 47 -68 68.5t-92 21.5q-73 0 -129.5 -34t-88.5 -92.5t-32 -132.5t32 -132.5t88.5 -92.5t129.5 -34q54 0 92 21.5t68 67.5l20 -8q-7 -9 -11.5 -23.5t-4.5 -31.5v-14
q0 -46 -19 -72t-51 -36.5t-71 -10.5q-59 0 -92.5 21t-47.5 54l-127 -23q20 -78 91 -124.5t176 -46.5zM290 129q-62 0 -101 40t-39 102t39 101.5t101 39.5q51 0 87.5 -25.5t49.5 -69.5v-92q-13 -45 -49.5 -70.5t-87.5 -25.5zM139 621h110l56 72l56 -72h110l-103 136h-127z
" />
    <glyph glyph-name="uni0123" unicode="&#x123;" horiz-adv-x="638" 
d="M287 -214q79 0 141.5 25.5t99 78t36.5 134.5v494h-137v-5q0 -23 6 -38.5t11 -25.5l-20 -9q-30 47 -68 68.5t-92 21.5q-73 0 -129.5 -34t-88.5 -92.5t-32 -132.5t32 -132.5t88.5 -92.5t129.5 -34q54 0 92 21.5t68 67.5l20 -8q-7 -9 -11.5 -23.5t-4.5 -31.5v-14
q0 -46 -19 -72t-51 -36.5t-71 -10.5q-59 0 -92.5 21t-47.5 54l-127 -23q20 -78 91 -124.5t176 -46.5zM290 129q-62 0 -101 40t-39 102t39 101.5t101 39.5q51 0 87.5 -25.5t49.5 -69.5v-92q-13 -45 -49.5 -70.5t-87.5 -25.5zM290 621q34 0 58 22t24 60q0 32 -21.5 55
t-53.5 26q2 20 15.5 33.5t39.5 13.5h9v59h-13q-70 0 -105 -47.5t-35 -120.5q0 -46 22 -73.5t60 -27.5z" />
    <glyph glyph-name="gdotaccent" unicode="&#x121;" horiz-adv-x="638" 
d="M287 -214q79 0 141.5 25.5t99 78t36.5 134.5v494h-137v-5q0 -23 6 -38.5t11 -25.5l-20 -9q-30 47 -68 68.5t-92 21.5q-73 0 -129.5 -34t-88.5 -92.5t-32 -132.5t32 -132.5t88.5 -92.5t129.5 -34q54 0 92 21.5t68 67.5l20 -8q-7 -9 -11.5 -23.5t-4.5 -31.5v-14
q0 -46 -19 -72t-51 -36.5t-71 -10.5q-59 0 -92.5 21t-47.5 54l-127 -23q20 -78 91 -124.5t176 -46.5zM290 129q-62 0 -101 40t-39 102t39 101.5t101 39.5q51 0 87.5 -25.5t49.5 -69.5v-92q-13 -45 -49.5 -70.5t-87.5 -25.5zM312 621q32 0 55 22.5t23 55.5q0 32 -23 55
t-55 23q-33 0 -56 -23t-23 -55q0 -33 23 -55.5t56 -22.5z" />
    <glyph glyph-name="uni1E21" unicode="&#x1e21;" horiz-adv-x="638" 
d="M287 -214q79 0 141.5 25.5t99 78t36.5 134.5v494h-137v-5q0 -23 6 -38.5t11 -25.5l-20 -9q-30 47 -68 68.5t-92 21.5q-73 0 -129.5 -34t-88.5 -92.5t-32 -132.5t32 -132.5t88.5 -92.5t129.5 -34q54 0 92 21.5t68 67.5l20 -8q-7 -9 -11.5 -23.5t-4.5 -31.5v-14
q0 -46 -19 -72t-51 -36.5t-71 -10.5q-59 0 -92.5 21t-47.5 54l-127 -23q20 -78 91 -124.5t176 -46.5zM290 129q-62 0 -101 40t-39 102t39 101.5t101 39.5q51 0 87.5 -25.5t49.5 -69.5v-92q-13 -45 -49.5 -70.5t-87.5 -25.5zM151 635h307v95h-307v-95z" />
    <glyph glyph-name="h" unicode="h" horiz-adv-x="629" 
d="M74 0h137v358q21 27 51.5 40t60.5 13q50 0 77.5 -24t27.5 -69v-318h136v330q0 93 -54 146.5t-147 53.5q-55 0 -89 -19t-60 -56l-20 7q5 11 11 30t6 48v172h-137v-712z" />
    <glyph glyph-name="hbar" unicode="&#x127;" horiz-adv-x="629" 
d="M74 0h137v358q21 27 51.5 40t60.5 13q50 0 77.5 -24t27.5 -69v-318h136v330q0 93 -54 146.5t-147 53.5q-55 0 -89 -19t-60 -56l-20 7q5 11 11 30t6 48v16h88v103h-88v53h-137v-53h-88v-103h88v-556z" />
    <glyph glyph-name="uni1E2B" unicode="&#x1e2b;" horiz-adv-x="629" 
d="M74 0h137v358q21 27 51.5 40t60.5 13q50 0 77.5 -24t27.5 -69v-318h136v330q0 93 -54 146.5t-147 53.5q-55 0 -89 -19t-60 -56l-20 7q5 11 11 30t6 48v172h-137v-712zM303 -215q68 0 110 37t42 99h-91q0 -30 -17 -47.5t-44 -17.5q-28 0 -45 18t-17 47h-91q0 -62 42 -99
t111 -37z" />
    <glyph glyph-name="hcircumflex" unicode="&#x125;" horiz-adv-x="629" 
d="M74 0h137v358q21 27 51.5 40t60.5 13q50 0 77.5 -24t27.5 -69v-318h136v330q0 93 -54 146.5t-147 53.5q-55 0 -89 -19t-60 -56l-20 7q5 11 11 30t6 48v172h-137v-712zM-25 792h110l56 72l56 -72h110l-103 136h-127z" />
    <glyph glyph-name="uni1E25" unicode="&#x1e25;" horiz-adv-x="629" 
d="M74 0h137v358q21 27 51.5 40t60.5 13q50 0 77.5 -24t27.5 -69v-318h136v330q0 93 -54 146.5t-147 53.5q-55 0 -89 -19t-60 -56l-20 7q5 11 11 30t6 48v172h-137v-712zM322 -243q34 0 58 24t24 58t-24 58t-58 24t-58 -24t-24 -58t24 -58t58 -24z" />
    <glyph glyph-name="i" unicode="i" horiz-adv-x="285" 
d="M143 577q33 0 56 23.5t23 56.5t-23 56.5t-56 23.5q-34 0 -57 -23.5t-23 -56.5t23 -56.5t57 -23.5zM74 0h137v518h-137v-518z" />
    <glyph glyph-name="dotlessi" unicode="&#x131;" horiz-adv-x="285" 
d="M74 0h137v518h-137v-518z" />
    <glyph glyph-name="iacute" unicode="&#xed;" horiz-adv-x="285" 
d="M74 0h137v518h-137v-518zM86 600h112l94 136h-137z" />
    <glyph glyph-name="ibreve" unicode="&#x12d;" horiz-adv-x="285" 
d="M74 0h137v518h-137v-518zM143 600q68 0 110 37t42 99h-91q0 -30 -17 -47.5t-44 -17.5q-28 0 -45 18t-17 47h-91q0 -62 42 -99t111 -37z" />
    <glyph glyph-name="icircumflex" unicode="&#xee;" horiz-adv-x="285" 
d="M74 0h137v518h-137v-518zM-24 600h110l56 72l56 -72h110l-103 136h-127z" />
    <glyph glyph-name="uni0209" unicode="&#x209;" horiz-adv-x="285" 
d="M74 0h137v518h-137v-518zM178 600h112l-69 136h-137zM-5 600h112l-68 136h-138z" />
    <glyph glyph-name="idieresis" unicode="&#xef;" horiz-adv-x="285" 
d="M74 0h137v518h-137v-518zM49 600q31 0 53 22t22 53t-22 53t-53 22t-53 -22t-22 -53t22 -53t53 -22zM245 600q31 0 53 22t22 53t-22 53t-53 22t-53 -22t-22 -53t22 -53t53 -22z" />
    <glyph glyph-name="uni1E2F" unicode="&#x1e2f;" horiz-adv-x="285" 
d="M74 0h137v518h-137v-518zM49 600q31 0 53 22t22 53t-22 53t-53 22t-53 -22t-22 -53t22 -53t53 -22zM245 600q31 0 53 22t22 53t-22 53t-53 22t-53 -22t-22 -53t22 -53t53 -22zM86 846h112l94 136h-137z" />
    <glyph glyph-name="i.loclTRK" horiz-adv-x="285" 
d="M74 0h137v518h-137v-518zM150 600q32 0 55 22.5t23 55.5q0 32 -23 55t-55 23q-33 0 -56 -23t-23 -55q0 -33 23 -55.5t56 -22.5z" />
    <glyph glyph-name="uni1ECB" unicode="&#x1ecb;" horiz-adv-x="285" 
d="M143 577q33 0 56 23.5t23 56.5t-23 56.5t-56 23.5q-34 0 -57 -23.5t-23 -56.5t23 -56.5t57 -23.5zM74 0h137v518h-137v-518zM149 -243q34 0 58 24t24 58t-24 58t-58 24t-58 -24t-24 -58t24 -58t58 -24z" />
    <glyph glyph-name="igrave" unicode="&#xec;" horiz-adv-x="285" 
d="M74 0h137v518h-137v-518zM86 600h112l-68 136h-138z" />
    <glyph glyph-name="uni1EC9" unicode="&#x1ec9;" horiz-adv-x="285" 
d="M74 0h137v518h-137v-518zM134 600q57 11 79.5 38t22.5 54q0 40 -28 64.5t-76 24.5q-46 0 -83 -20l20 -62q8 6 19.5 8.5t21.5 2.5q24 0 35 -9.5t11 -24.5q0 -17 -13.5 -29t-40.5 -21z" />
    <glyph glyph-name="uni020B" unicode="&#x20b;" horiz-adv-x="285" 
d="M74 0h137v518h-137v-518zM-10 600h91q0 29 17 47t45 18q27 0 44 -17.5t17 -47.5h91q0 62 -42 99t-110 37q-69 0 -111 -37t-42 -99z" />
    <glyph glyph-name="imacron" unicode="&#x12b;" horiz-adv-x="285" 
d="M74 0h137v518h-137v-518zM-11 614h307v95h-307v-95z" />
    <glyph glyph-name="iogonek" unicode="&#x12f;" horiz-adv-x="285" 
d="M74 0h137v518h-137v-518zM150 600q32 0 55 22.5t23 55.5q0 32 -23 55t-55 23q-33 0 -56 -23t-23 -55q0 -33 23 -55.5t56 -22.5zM120 -208q32 0 66.5 11t65.5 37l-37 66q-14 -14 -36.5 -22.5t-46.5 -8.5t-40 12t-16 36q0 25 24 48t85 38l-37 26q-78 -12 -120 -48.5
t-42 -86.5q0 -38 20 -61.5t50.5 -35t63.5 -11.5z" />
    <glyph glyph-name="itilde" unicode="&#x129;" horiz-adv-x="285" 
d="M74 0h137v518h-137v-518zM203 603q43 0 77 33.5t32 97.5h-81q-3 -25 -12.5 -35.5t-19.5 -10.5q-16 0 -32 13.5t-36.5 27t-49.5 13.5q-44 0 -77.5 -34.5t-32.5 -97.5h82q3 24 12.5 35.5t19.5 11.5q16 0 32 -13.5t36 -27t50 -13.5z" />
    <glyph glyph-name="j" unicode="j" horiz-adv-x="286" 
d="M143 577q33 0 56.5 23.5t23.5 56.5t-23.5 56.5t-56.5 23.5t-56 -23.5t-23 -56.5t23 -56.5t56 -23.5zM23 -214q94 0 141.5 47.5t47.5 134.5v550h-137v-550q0 -35 -14.5 -50t-50.5 -15q-29 0 -57 7v-117q16 -3 34 -5t36 -2z" />
    <glyph glyph-name="uni0237" unicode="&#x237;" horiz-adv-x="286" 
d="M23 -214q94 0 141.5 47.5t47.5 134.5v550h-137v-550q0 -35 -14.5 -50t-50.5 -15q-29 0 -57 7v-117q16 -3 34 -5t36 -2z" />
    <glyph glyph-name="jcircumflex" unicode="&#x135;" horiz-adv-x="286" 
d="M23 -214q94 0 141.5 47.5t47.5 134.5v550h-137v-550q0 -35 -14.5 -50t-50.5 -15q-29 0 -57 7v-117q16 -3 34 -5t36 -2zM-23 600h110l56 72l56 -72h110l-103 136h-127z" />
    <glyph glyph-name="k" unicode="k" horiz-adv-x="606" 
d="M74 0h137v179l56 49l177 -228h168l-245 316l228 202h-179l-158 -139q-20 -19 -30 -34.5t-14 -26.5l-20 8q5 10 11 31t6 50v305h-137v-712z" />
    <glyph glyph-name="uni0137" unicode="&#x137;" horiz-adv-x="606" 
d="M74 0h137v179l56 49l177 -228h168l-245 316l228 202h-179l-158 -139q-20 -19 -30 -34.5t-14 -26.5l-20 8q5 10 11 31t6 50v305h-137v-712zM250 -348h14q70 0 105 47t35 120q0 47 -22 74.5t-60 27.5q-34 0 -58 -22.5t-24 -59.5q0 -32 21.5 -55t53.5 -26q-2 -21 -15.5 -34
t-39.5 -13h-10v-59z" />
    <glyph glyph-name="kgreenlandic" unicode="&#x138;" horiz-adv-x="616" 
d="M67 0h137v179l56 49l177 -228h168l-245 316l228 202h-179l-158 -139q-20 -19 -30 -34.5t-14 -26.5l-20 8q5 10 11 31t6 50v111h-137v-518z" />
    <glyph glyph-name="l" unicode="l" horiz-adv-x="296" 
d="M226 -10q21 0 45 4v95q-5 0 -9.5 -0.5t-8.5 -0.5q-25 0 -33.5 15t-8.5 48v561h-137v-569q0 -83 33.5 -118t118.5 -35z" />
    <glyph glyph-name="lacute" unicode="&#x13a;" horiz-adv-x="296" 
d="M226 -10q21 0 45 4v95q-5 0 -9.5 -0.5t-8.5 -0.5q-25 0 -33.5 15t-8.5 48v561h-137v-569q0 -83 33.5 -118t118.5 -35zM86 794h112l94 136h-137z" />
    <glyph glyph-name="lcaron" unicode="&#x13e;" horiz-adv-x="449" 
d="M226 -10q21 0 45 4v95q-5 0 -9.5 -0.5t-8.5 -0.5q-25 0 -33.5 15t-8.5 48v561h-137v-569q0 -83 33.5 -118t118.5 -35zM287 541h106l23 171h-129v-171z" />
    <glyph glyph-name="uni013C" unicode="&#x13c;" horiz-adv-x="296" 
d="M226 -10q21 0 45 4v95q-5 0 -9.5 -0.5t-8.5 -0.5q-25 0 -33.5 15t-8.5 48v561h-137v-569q0 -83 33.5 -118t118.5 -35zM97 -348h14q70 0 105 47t35 120q0 47 -22 74.5t-60 27.5q-34 0 -58 -22.5t-24 -59.5q0 -32 21.5 -55t53.5 -26q-2 -21 -15.5 -34t-39.5 -13h-10v-59z
" />
    <glyph glyph-name="ldot" unicode="&#x140;" horiz-adv-x="448" 
d="M226 -10q21 0 45 4v95q-5 0 -9.5 -0.5t-8.5 -0.5q-25 0 -33.5 15t-8.5 48v561h-137v-569q0 -83 33.5 -118t118.5 -35zM334 271q34 0 58 24t24 58t-24 58t-58 24t-58 -24t-24 -58t24 -58t58 -24z" />
    <glyph glyph-name="uni1E37" unicode="&#x1e37;" horiz-adv-x="296" 
d="M226 -10q21 0 45 4v95q-5 0 -9.5 -0.5t-8.5 -0.5q-25 0 -33.5 15t-8.5 48v561h-137v-569q0 -83 33.5 -118t118.5 -35zM168 -243q34 0 58 24t24 58t-24 58t-58 24t-58 -24t-24 -58t24 -58t58 -24z" />
    <glyph glyph-name="uni01C9" unicode="&#x1c9;" horiz-adv-x="584" 
d="M226 -10q21 0 45 4v95q-5 0 -9.5 -0.5t-8.5 -0.5q-25 0 -33.5 15t-8.5 48v561h-137v-569q0 -83 33.5 -118t118.5 -35zM441 577q33 0 56.5 23.5t23.5 56.5t-23.5 56.5t-56.5 23.5t-56 -23.5t-23 -56.5t23 -56.5t56 -23.5zM321 -214q94 0 141.5 47.5t47.5 134.5v550h-137
v-550q0 -35 -14.5 -50t-50.5 -15q-29 0 -57 7v-117q16 -3 34 -5t36 -2z" />
    <glyph glyph-name="lmacronbelow" unicode="&#x1e3b;" horiz-adv-x="296" 
d="M226 -10q21 0 45 4v95q-5 0 -9.5 -0.5t-8.5 -0.5q-25 0 -33.5 15t-8.5 48v561h-137v-569q0 -83 33.5 -118t118.5 -35zM-7 -173h307v95h-307v-95z" />
    <glyph glyph-name="lslash" unicode="&#x142;" horiz-adv-x="296" 
d="M226 -10q21 0 45 4v95q-5 0 -9.5 -0.5t-8.5 -0.5q-25 0 -33.5 15t-8.5 48v170l88 28v103l-88 -28v288h-137v-332l-88 -28v-103l88 28v-134q0 -83 33.5 -118t118.5 -35z" />
    <glyph glyph-name="m" unicode="m" horiz-adv-x="962" 
d="M74 0h137v358q21 27 49 40t58 13q47 0 73.5 -24.5t26.5 -68.5v-318h136v362q21 23 50.5 36t56.5 13q46 0 73.5 -24.5t27.5 -68.5v-318h136v330q0 91 -54.5 145.5t-145.5 54.5q-58 0 -101 -24t-66 -74h-20q-19 51 -62 74.5t-94 23.5q-55 0 -88.5 -22t-59.5 -62l-20 7
q6 11 11 24.5t5 37.5v3h-129v-518z" />
    <glyph glyph-name="uni1E43" unicode="&#x1e43;" horiz-adv-x="962" 
d="M74 0h137v358q21 27 49 40t58 13q47 0 73.5 -24.5t26.5 -68.5v-318h136v362q21 23 50.5 36t56.5 13q46 0 73.5 -24.5t27.5 -68.5v-318h136v330q0 91 -54.5 145.5t-145.5 54.5q-58 0 -101 -24t-66 -74h-20q-19 51 -62 74.5t-94 23.5q-55 0 -88.5 -22t-59.5 -62l-20 7
q6 11 11 24.5t5 37.5v3h-129v-518zM489 -243q34 0 58 24t24 58t-24 58t-58 24t-58 -24t-24 -58t24 -58t58 -24z" />
    <glyph glyph-name="n" unicode="n" horiz-adv-x="629" 
d="M74 0h137v358q21 27 51.5 40t60.5 13q50 0 77.5 -24t27.5 -69v-318h136v330q0 93 -54 146.5t-147 53.5q-51 0 -90.5 -20t-65.5 -65l-20 8q5 10 10.5 24.5t5.5 38.5v2h-129v-518z" />
    <glyph glyph-name="nacute" unicode="&#x144;" horiz-adv-x="629" 
d="M74 0h137v358q21 27 51.5 40t60.5 13q50 0 77.5 -24t27.5 -69v-318h136v330q0 93 -54 146.5t-147 53.5q-51 0 -90.5 -20t-65.5 -65l-20 8q5 10 10.5 24.5t5.5 38.5v2h-129v-518zM260 600h112l94 136h-137z" />
    <glyph glyph-name="ncaron" unicode="&#x148;" horiz-adv-x="629" 
d="M74 0h137v358q21 27 51.5 40t60.5 13q50 0 77.5 -24t27.5 -69v-318h136v330q0 93 -54 146.5t-147 53.5q-51 0 -90.5 -20t-65.5 -65l-20 8q5 10 10.5 24.5t5.5 38.5v2h-129v-518zM252 600h127l103 136h-110l-56 -72l-56 72h-110z" />
    <glyph glyph-name="uni0146" unicode="&#x146;" horiz-adv-x="629" 
d="M74 0h137v358q21 27 51.5 40t60.5 13q50 0 77.5 -24t27.5 -69v-318h136v330q0 93 -54 146.5t-147 53.5q-51 0 -90.5 -20t-65.5 -65l-20 8q5 10 10.5 24.5t5.5 38.5v2h-129v-518zM251 -348h14q70 0 105 47t35 120q0 47 -22 74.5t-60 27.5q-34 0 -58 -22.5t-24 -59.5
q0 -32 21.5 -55t53.5 -26q-2 -21 -15.5 -34t-39.5 -13h-10v-59z" />
    <glyph glyph-name="uni1E45" unicode="&#x1e45;" horiz-adv-x="629" 
d="M74 0h137v358q21 27 51.5 40t60.5 13q50 0 77.5 -24t27.5 -69v-318h136v330q0 93 -54 146.5t-147 53.5q-51 0 -90.5 -20t-65.5 -65l-20 8q5 10 10.5 24.5t5.5 38.5v2h-129v-518zM323 600q32 0 55 22.5t23 55.5q0 32 -23 55t-55 23q-33 0 -56 -23t-23 -55q0 -33 23 -55.5
t56 -22.5z" />
    <glyph glyph-name="uni1E47" unicode="&#x1e47;" horiz-adv-x="629" 
d="M74 0h137v358q21 27 51.5 40t60.5 13q50 0 77.5 -24t27.5 -69v-318h136v330q0 93 -54 146.5t-147 53.5q-51 0 -90.5 -20t-65.5 -65l-20 8q5 10 10.5 24.5t5.5 38.5v2h-129v-518zM322 -243q34 0 58 24t24 58t-24 58t-58 24t-58 -24t-24 -58t24 -58t58 -24z" />
    <glyph glyph-name="uni01CC" unicode="&#x1cc;" horiz-adv-x="915" 
d="M74 0h137v358q21 27 51.5 40t60.5 13q50 0 77.5 -24t27.5 -69v-318h136v330q0 93 -54 146.5t-147 53.5q-51 0 -90.5 -20t-65.5 -65l-20 8q5 10 10.5 24.5t5.5 38.5v2h-129v-518zM772 577q33 0 56.5 23.5t23.5 56.5t-23.5 56.5t-56.5 23.5t-56 -23.5t-23 -56.5t23 -56.5
t56 -23.5zM652 -214q94 0 141.5 47.5t47.5 134.5v550h-137v-550q0 -35 -14.5 -50t-50.5 -15q-29 0 -57 7v-117q16 -3 34 -5t36 -2z" />
    <glyph glyph-name="nmacronbelow" unicode="&#x1e49;" horiz-adv-x="629" 
d="M74 0h137v358q21 27 51.5 40t60.5 13q50 0 77.5 -24t27.5 -69v-318h136v330q0 93 -54 146.5t-147 53.5q-51 0 -90.5 -20t-65.5 -65l-20 8q5 10 10.5 24.5t5.5 38.5v2h-129v-518zM146 -173h307v95h-307v-95z" />
    <glyph glyph-name="ntilde" unicode="&#xf1;" horiz-adv-x="629" 
d="M74 0h137v358q21 27 51.5 40t60.5 13q50 0 77.5 -24t27.5 -69v-318h136v330q0 93 -54 146.5t-147 53.5q-51 0 -90.5 -20t-65.5 -65l-20 8q5 10 10.5 24.5t5.5 38.5v2h-129v-518zM377 603q43 0 77 33.5t32 97.5h-81q-3 -25 -12.5 -35.5t-19.5 -10.5q-16 0 -32 13.5
t-36.5 27t-49.5 13.5q-44 0 -77.5 -34.5t-32.5 -97.5h82q3 24 12.5 35.5t19.5 11.5q16 0 32 -13.5t36 -27t50 -13.5z" />
    <glyph glyph-name="eng" unicode="&#x14b;" horiz-adv-x="629" 
d="M376 -214q94 0 141 47.5t47 134.5v362q0 93 -54 146.5t-147 53.5q-51 0 -90.5 -20t-65.5 -65l-20 8q5 10 10.5 24.5t5.5 38.5v2h-129v-518h137v358q21 27 51.5 40t60.5 13q50 0 77.5 -24t27.5 -69v-350q0 -35 -14.5 -50t-51.5 -15q-28 0 -56 7v-117q16 -3 34 -5t36 -2z
" />
    <glyph glyph-name="o" unicode="o" horiz-adv-x="586" 
d="M293 -12q81 0 143.5 34.5t98.5 95.5t36 141q0 79 -35.5 140t-98.5 96t-144 35t-144 -35t-99 -96t-36 -140q0 -80 36 -141t99 -95.5t144 -34.5zM293 107q-63 0 -104 41t-41 111q0 69 41 110.5t104 41.5q62 0 103.5 -41.5t41.5 -110.5q0 -70 -41.5 -111t-103.5 -41z" />
    <glyph glyph-name="oacute" unicode="&#xf3;" horiz-adv-x="586" 
d="M293 -12q81 0 143.5 34.5t98.5 95.5t36 141q0 79 -35.5 140t-98.5 96t-144 35t-144 -35t-99 -96t-36 -140q0 -80 36 -141t99 -95.5t144 -34.5zM293 107q-63 0 -104 41t-41 111q0 69 41 110.5t104 41.5q62 0 103.5 -41.5t41.5 -110.5q0 -70 -41.5 -111t-103.5 -41z
M237 600h112l94 136h-137z" />
    <glyph glyph-name="obreve" unicode="&#x14f;" horiz-adv-x="586" 
d="M293 -12q81 0 143.5 34.5t98.5 95.5t36 141q0 79 -35.5 140t-98.5 96t-144 35t-144 -35t-99 -96t-36 -140q0 -80 36 -141t99 -95.5t144 -34.5zM293 107q-63 0 -104 41t-41 111q0 69 41 110.5t104 41.5q62 0 103.5 -41.5t41.5 -110.5q0 -70 -41.5 -111t-103.5 -41z
M293 600q68 0 110 37t42 99h-91q0 -30 -17 -47.5t-44 -17.5q-28 0 -45 18t-17 47h-91q0 -62 42 -99t111 -37z" />
    <glyph glyph-name="ocircumflex" unicode="&#xf4;" horiz-adv-x="586" 
d="M293 -12q81 0 143.5 34.5t98.5 95.5t36 141q0 79 -35.5 140t-98.5 96t-144 35t-144 -35t-99 -96t-36 -140q0 -80 36 -141t99 -95.5t144 -34.5zM293 107q-63 0 -104 41t-41 111q0 69 41 110.5t104 41.5q62 0 103.5 -41.5t41.5 -110.5q0 -70 -41.5 -111t-103.5 -41z
M126 600h110l56 72l56 -72h110l-103 136h-127z" />
    <glyph glyph-name="uni1ED1" unicode="&#x1ed1;" horiz-adv-x="586" 
d="M293 -12q81 0 143.5 34.5t98.5 95.5t36 141q0 79 -35.5 140t-98.5 96t-144 35t-144 -35t-99 -96t-36 -140q0 -80 36 -141t99 -95.5t144 -34.5zM293 107q-63 0 -104 41t-41 111q0 69 41 110.5t104 41.5q62 0 103.5 -41.5t41.5 -110.5q0 -70 -41.5 -111t-103.5 -41z
M126 600h110l56 72l56 -72h110l-103 136h-127zM440 674h112l94 136h-137z" />
    <glyph glyph-name="uni1ED9" unicode="&#x1ed9;" horiz-adv-x="586" 
d="M293 -12q81 0 143.5 34.5t98.5 95.5t36 141q0 79 -35.5 140t-98.5 96t-144 35t-144 -35t-99 -96t-36 -140q0 -80 36 -141t99 -95.5t144 -34.5zM293 107q-63 0 -104 41t-41 111q0 69 41 110.5t104 41.5q62 0 103.5 -41.5t41.5 -110.5q0 -70 -41.5 -111t-103.5 -41z
M299 -243q34 0 58 24t24 58t-24 58t-58 24t-58 -24t-24 -58t24 -58t58 -24zM126 600h110l56 72l56 -72h110l-103 136h-127z" />
    <glyph glyph-name="uni1ED3" unicode="&#x1ed3;" horiz-adv-x="586" 
d="M293 -12q81 0 143.5 34.5t98.5 95.5t36 141q0 79 -35.5 140t-98.5 96t-144 35t-144 -35t-99 -96t-36 -140q0 -80 36 -141t99 -95.5t144 -34.5zM293 107q-63 0 -104 41t-41 111q0 69 41 110.5t104 41.5q62 0 103.5 -41.5t41.5 -110.5q0 -70 -41.5 -111t-103.5 -41z
M126 600h110l56 72l56 -72h110l-103 136h-127zM440 674h112l-68 136h-138z" />
    <glyph glyph-name="uni1ED5" unicode="&#x1ed5;" horiz-adv-x="586" 
d="M293 -12q81 0 143.5 34.5t98.5 95.5t36 141q0 79 -35.5 140t-98.5 96t-144 35t-144 -35t-99 -96t-36 -140q0 -80 36 -141t99 -95.5t144 -34.5zM293 107q-63 0 -104 41t-41 111q0 69 41 110.5t104 41.5q62 0 103.5 -41.5t41.5 -110.5q0 -70 -41.5 -111t-103.5 -41z
M126 600h110l56 72l56 -72h110l-103 136h-127zM487 674q57 11 79.5 38t22.5 54q0 40 -28 64.5t-76 24.5q-46 0 -83 -20l20 -62q8 6 19.5 8.5t21.5 2.5q24 0 35 -9.5t11 -24.5q0 -17 -13.5 -29t-40.5 -21z" />
    <glyph glyph-name="uni1ED7" unicode="&#x1ed7;" horiz-adv-x="586" 
d="M293 -12q81 0 143.5 34.5t98.5 95.5t36 141q0 79 -35.5 140t-98.5 96t-144 35t-144 -35t-99 -96t-36 -140q0 -80 36 -141t99 -95.5t144 -34.5zM293 107q-63 0 -104 41t-41 111q0 69 41 110.5t104 41.5q62 0 103.5 -41.5t41.5 -110.5q0 -70 -41.5 -111t-103.5 -41z
M347 821q40 0 70 33.5t29 97.5h-73q-3 -25 -11.5 -35.5t-17.5 -10.5q-14 0 -28.5 13.5t-33 27t-44.5 13.5q-40 0 -70 -34.5t-28 -97.5h72q3 24 11.5 35.5t17.5 11.5q15 0 29.5 -13.5t32.5 -27t44 -13.5zM126 600h110l56 72l56 -72h110l-103 136h-127z" />
    <glyph glyph-name="uni020D" unicode="&#x20d;" horiz-adv-x="586" 
d="M293 -12q81 0 143.5 34.5t98.5 95.5t36 141q0 79 -35.5 140t-98.5 96t-144 35t-144 -35t-99 -96t-36 -140q0 -80 36 -141t99 -95.5t144 -34.5zM293 107q-63 0 -104 41t-41 111q0 69 41 110.5t104 41.5q62 0 103.5 -41.5t41.5 -110.5q0 -70 -41.5 -111t-103.5 -41z
M328 600h112l-69 136h-137zM145 600h112l-68 136h-138z" />
    <glyph glyph-name="odieresis" unicode="&#xf6;" horiz-adv-x="586" 
d="M293 -12q81 0 143.5 34.5t98.5 95.5t36 141q0 79 -35.5 140t-98.5 96t-144 35t-144 -35t-99 -96t-36 -140q0 -80 36 -141t99 -95.5t144 -34.5zM293 107q-63 0 -104 41t-41 111q0 69 41 110.5t104 41.5q62 0 103.5 -41.5t41.5 -110.5q0 -70 -41.5 -111t-103.5 -41z
M199 600q31 0 53 22t22 53t-22 53t-53 22t-53 -22t-22 -53t22 -53t53 -22zM395 600q31 0 53 22t22 53t-22 53t-53 22t-53 -22t-22 -53t22 -53t53 -22z" />
    <glyph glyph-name="uni022B" unicode="&#x22b;" horiz-adv-x="586" 
d="M293 -12q81 0 143.5 34.5t98.5 95.5t36 141q0 79 -35.5 140t-98.5 96t-144 35t-144 -35t-99 -96t-36 -140q0 -80 36 -141t99 -95.5t144 -34.5zM293 107q-63 0 -104 41t-41 111q0 69 41 110.5t104 41.5q62 0 103.5 -41.5t41.5 -110.5q0 -70 -41.5 -111t-103.5 -41z
M199 600q31 0 53 22t22 53t-22 53t-53 22t-53 -22t-22 -53t22 -53t53 -22zM395 600q31 0 53 22t22 53t-22 53t-53 22t-53 -22t-22 -53t22 -53t53 -22zM139 860h307v95h-307v-95z" />
    <glyph glyph-name="uni0231" unicode="&#x231;" horiz-adv-x="586" 
d="M293 -12q81 0 143.5 34.5t98.5 95.5t36 141q0 79 -35.5 140t-98.5 96t-144 35t-144 -35t-99 -96t-36 -140q0 -80 36 -141t99 -95.5t144 -34.5zM293 107q-63 0 -104 41t-41 111q0 69 41 110.5t104 41.5q62 0 103.5 -41.5t41.5 -110.5q0 -70 -41.5 -111t-103.5 -41z
M300 600q32 0 55 22.5t23 55.5q0 32 -23 55t-55 23q-33 0 -56 -23t-23 -55q0 -33 23 -55.5t56 -22.5zM139 860h307v95h-307v-95z" />
    <glyph glyph-name="uni1ECD" unicode="&#x1ecd;" horiz-adv-x="586" 
d="M293 -12q81 0 143.5 34.5t98.5 95.5t36 141q0 79 -35.5 140t-98.5 96t-144 35t-144 -35t-99 -96t-36 -140q0 -80 36 -141t99 -95.5t144 -34.5zM293 107q-63 0 -104 41t-41 111q0 69 41 110.5t104 41.5q62 0 103.5 -41.5t41.5 -110.5q0 -70 -41.5 -111t-103.5 -41z
M299 -243q34 0 58 24t24 58t-24 58t-58 24t-58 -24t-24 -58t24 -58t58 -24z" />
    <glyph glyph-name="ograve" unicode="&#xf2;" horiz-adv-x="586" 
d="M293 -12q81 0 143.5 34.5t98.5 95.5t36 141q0 79 -35.5 140t-98.5 96t-144 35t-144 -35t-99 -96t-36 -140q0 -80 36 -141t99 -95.5t144 -34.5zM293 107q-63 0 -104 41t-41 111q0 69 41 110.5t104 41.5q62 0 103.5 -41.5t41.5 -110.5q0 -70 -41.5 -111t-103.5 -41z
M237 600h112l-68 136h-138z" />
    <glyph glyph-name="uni1ECF" unicode="&#x1ecf;" horiz-adv-x="586" 
d="M293 -12q81 0 143.5 34.5t98.5 95.5t36 141q0 79 -35.5 140t-98.5 96t-144 35t-144 -35t-99 -96t-36 -140q0 -80 36 -141t99 -95.5t144 -34.5zM293 107q-63 0 -104 41t-41 111q0 69 41 110.5t104 41.5q62 0 103.5 -41.5t41.5 -110.5q0 -70 -41.5 -111t-103.5 -41z
M284 600q57 11 79.5 38t22.5 54q0 40 -28 64.5t-76 24.5q-46 0 -83 -20l20 -62q8 6 19.5 8.5t21.5 2.5q24 0 35 -9.5t11 -24.5q0 -17 -13.5 -29t-40.5 -21z" />
    <glyph glyph-name="ohorn" unicode="&#x1a1;" horiz-adv-x="623" 
d="M293 -12q81 0 143.5 34.5t98.5 95.5t36 141q0 54 -17 100t-48 81h7q64 0 102 41t38 115h-94q0 -36 -19 -51t-51 -15h-196q-81 0 -144 -35t-99 -96t-36 -140q0 -80 36 -141t99 -95.5t144 -34.5zM293 107q-63 0 -104 41t-41 111q0 69 41 110.5t104 41.5q62 0 103.5 -41.5
t41.5 -110.5q0 -70 -41.5 -111t-103.5 -41z" />
    <glyph glyph-name="uni1EDB" unicode="&#x1edb;" horiz-adv-x="623" 
d="M293 -12q81 0 143.5 34.5t98.5 95.5t36 141q0 54 -17 100t-48 81h7q64 0 102 41t38 115h-94q0 -36 -19 -51t-51 -15h-196q-81 0 -144 -35t-99 -96t-36 -140q0 -80 36 -141t99 -95.5t144 -34.5zM293 107q-63 0 -104 41t-41 111q0 69 41 110.5t104 41.5q62 0 103.5 -41.5
t41.5 -110.5q0 -70 -41.5 -111t-103.5 -41zM237 600h112l94 136h-137z" />
    <glyph glyph-name="uni1EE3" unicode="&#x1ee3;" horiz-adv-x="623" 
d="M293 -12q81 0 143.5 34.5t98.5 95.5t36 141q0 54 -17 100t-48 81h7q64 0 102 41t38 115h-94q0 -36 -19 -51t-51 -15h-196q-81 0 -144 -35t-99 -96t-36 -140q0 -80 36 -141t99 -95.5t144 -34.5zM293 107q-63 0 -104 41t-41 111q0 69 41 110.5t104 41.5q62 0 103.5 -41.5
t41.5 -110.5q0 -70 -41.5 -111t-103.5 -41zM299 -243q34 0 58 24t24 58t-24 58t-58 24t-58 -24t-24 -58t24 -58t58 -24z" />
    <glyph glyph-name="uni1EDD" unicode="&#x1edd;" horiz-adv-x="623" 
d="M293 -12q81 0 143.5 34.5t98.5 95.5t36 141q0 54 -17 100t-48 81h7q64 0 102 41t38 115h-94q0 -36 -19 -51t-51 -15h-196q-81 0 -144 -35t-99 -96t-36 -140q0 -80 36 -141t99 -95.5t144 -34.5zM293 107q-63 0 -104 41t-41 111q0 69 41 110.5t104 41.5q62 0 103.5 -41.5
t41.5 -110.5q0 -70 -41.5 -111t-103.5 -41zM237 600h112l-68 136h-138z" />
    <glyph glyph-name="uni1EDF" unicode="&#x1edf;" horiz-adv-x="623" 
d="M293 -12q81 0 143.5 34.5t98.5 95.5t36 141q0 54 -17 100t-48 81h7q64 0 102 41t38 115h-94q0 -36 -19 -51t-51 -15h-196q-81 0 -144 -35t-99 -96t-36 -140q0 -80 36 -141t99 -95.5t144 -34.5zM293 107q-63 0 -104 41t-41 111q0 69 41 110.5t104 41.5q62 0 103.5 -41.5
t41.5 -110.5q0 -70 -41.5 -111t-103.5 -41zM284 600q57 11 79.5 38t22.5 54q0 40 -28 64.5t-76 24.5q-46 0 -83 -20l20 -62q8 6 19.5 8.5t21.5 2.5q24 0 35 -9.5t11 -24.5q0 -17 -13.5 -29t-40.5 -21z" />
    <glyph glyph-name="uni1EE1" unicode="&#x1ee1;" horiz-adv-x="623" 
d="M293 -12q81 0 143.5 34.5t98.5 95.5t36 141q0 54 -17 100t-48 81h7q64 0 102 41t38 115h-94q0 -36 -19 -51t-51 -15h-196q-81 0 -144 -35t-99 -96t-36 -140q0 -80 36 -141t99 -95.5t144 -34.5zM293 107q-63 0 -104 41t-41 111q0 69 41 110.5t104 41.5q62 0 103.5 -41.5
t41.5 -110.5q0 -70 -41.5 -111t-103.5 -41zM354 603q43 0 77 33.5t32 97.5h-81q-3 -25 -12.5 -35.5t-19.5 -10.5q-16 0 -32 13.5t-36.5 27t-49.5 13.5q-44 0 -77.5 -34.5t-32.5 -97.5h82q3 24 12.5 35.5t19.5 11.5q16 0 32 -13.5t36 -27t50 -13.5z" />
    <glyph glyph-name="ohungarumlaut" unicode="&#x151;" horiz-adv-x="586" 
d="M293 -12q81 0 143.5 34.5t98.5 95.5t36 141q0 79 -35.5 140t-98.5 96t-144 35t-144 -35t-99 -96t-36 -140q0 -80 36 -141t99 -95.5t144 -34.5zM293 107q-63 0 -104 41t-41 111q0 69 41 110.5t104 41.5q62 0 103.5 -41.5t41.5 -110.5q0 -70 -41.5 -111t-103.5 -41z
M328 600h112l94 136h-138zM145 600h112l94 136h-137z" />
    <glyph glyph-name="uni020F" unicode="&#x20f;" horiz-adv-x="586" 
d="M293 -12q81 0 143.5 34.5t98.5 95.5t36 141q0 79 -35.5 140t-98.5 96t-144 35t-144 -35t-99 -96t-36 -140q0 -80 36 -141t99 -95.5t144 -34.5zM293 107q-63 0 -104 41t-41 111q0 69 41 110.5t104 41.5q62 0 103.5 -41.5t41.5 -110.5q0 -70 -41.5 -111t-103.5 -41z
M140 600h91q0 29 17 47t45 18q27 0 44 -17.5t17 -47.5h91q0 62 -42 99t-110 37q-69 0 -111 -37t-42 -99z" />
    <glyph glyph-name="omacron" unicode="&#x14d;" horiz-adv-x="586" 
d="M293 -12q81 0 143.5 34.5t98.5 95.5t36 141q0 79 -35.5 140t-98.5 96t-144 35t-144 -35t-99 -96t-36 -140q0 -80 36 -141t99 -95.5t144 -34.5zM293 107q-63 0 -104 41t-41 111q0 69 41 110.5t104 41.5q62 0 103.5 -41.5t41.5 -110.5q0 -70 -41.5 -111t-103.5 -41z
M139 614h307v95h-307v-95z" />
    <glyph glyph-name="uni1E53" unicode="&#x1e53;" horiz-adv-x="586" 
d="M293 -12q81 0 143.5 34.5t98.5 95.5t36 141q0 79 -35.5 140t-98.5 96t-144 35t-144 -35t-99 -96t-36 -140q0 -80 36 -141t99 -95.5t144 -34.5zM293 107q-63 0 -104 41t-41 111q0 69 41 110.5t104 41.5q62 0 103.5 -41.5t41.5 -110.5q0 -70 -41.5 -111t-103.5 -41z
M139 614h307v95h-307v-95zM237 791h112l94 136h-137z" />
    <glyph glyph-name="uni1E51" unicode="&#x1e51;" horiz-adv-x="586" 
d="M293 -12q81 0 143.5 34.5t98.5 95.5t36 141q0 79 -35.5 140t-98.5 96t-144 35t-144 -35t-99 -96t-36 -140q0 -80 36 -141t99 -95.5t144 -34.5zM293 107q-63 0 -104 41t-41 111q0 69 41 110.5t104 41.5q62 0 103.5 -41.5t41.5 -110.5q0 -70 -41.5 -111t-103.5 -41z
M139 614h307v95h-307v-95zM237 791h112l-68 136h-138z" />
    <glyph glyph-name="uni01EB" unicode="&#x1eb;" horiz-adv-x="586" 
d="M293 -12q81 0 143.5 34.5t98.5 95.5t36 141q0 79 -35.5 140t-98.5 96t-144 35t-144 -35t-99 -96t-36 -140q0 -80 36 -141t99 -95.5t144 -34.5zM293 107q-63 0 -104 41t-41 111q0 69 41 110.5t104 41.5q62 0 103.5 -41.5t41.5 -110.5q0 -70 -41.5 -111t-103.5 -41z
M284 -208q32 0 66.5 11t65.5 37l-37 66q-14 -14 -36.5 -22.5t-46.5 -8.5t-40 12t-16 36q0 25 24 48t85 38l-37 26q-78 -12 -120 -48.5t-42 -86.5q0 -38 20 -61.5t50.5 -35t63.5 -11.5z" />
    <glyph glyph-name="oslash" unicode="&#xf8;" horiz-adv-x="586" 
d="M-21 -5h107l41 41q34 -23 76 -35.5t90 -12.5q81 0 143.5 34.5t98.5 95.5t36 141q0 50 -14.5 93.5t-41.5 77.5l91 93h-107l-40 -41q-34 23 -76 35.5t-90 12.5q-81 0 -144 -35t-99 -96t-36 -140q0 -50 15 -93.5t42 -77.5zM148 259q0 69 41 110.5t104 41.5q43 0 76 -20
l-204 -208q-17 33 -17 76zM293 107q-43 0 -77 20l205 208q17 -34 17 -76q0 -70 -41.5 -111t-103.5 -41z" />
    <glyph glyph-name="oslashacute" unicode="&#x1ff;" horiz-adv-x="586" 
d="M-21 -5h107l41 41q34 -23 76 -35.5t90 -12.5q81 0 143.5 34.5t98.5 95.5t36 141q0 50 -14.5 93.5t-41.5 77.5l91 93h-107l-40 -41q-34 23 -76 35.5t-90 12.5q-81 0 -144 -35t-99 -96t-36 -140q0 -50 15 -93.5t42 -77.5zM148 259q0 69 41 110.5t104 41.5q43 0 76 -20
l-204 -208q-17 33 -17 76zM293 107q-43 0 -77 20l205 208q17 -34 17 -76q0 -70 -41.5 -111t-103.5 -41zM237 600h112l94 136h-137z" />
    <glyph glyph-name="otilde" unicode="&#xf5;" horiz-adv-x="586" 
d="M293 -12q81 0 143.5 34.5t98.5 95.5t36 141q0 79 -35.5 140t-98.5 96t-144 35t-144 -35t-99 -96t-36 -140q0 -80 36 -141t99 -95.5t144 -34.5zM293 107q-63 0 -104 41t-41 111q0 69 41 110.5t104 41.5q62 0 103.5 -41.5t41.5 -110.5q0 -70 -41.5 -111t-103.5 -41z
M354 603q43 0 77 33.5t32 97.5h-81q-3 -25 -12.5 -35.5t-19.5 -10.5q-16 0 -32 13.5t-36.5 27t-49.5 13.5q-44 0 -77.5 -34.5t-32.5 -97.5h82q3 24 12.5 35.5t19.5 11.5q16 0 32 -13.5t36 -27t50 -13.5z" />
    <glyph glyph-name="uni1E4D" unicode="&#x1e4d;" horiz-adv-x="586" 
d="M293 -12q81 0 143.5 34.5t98.5 95.5t36 141q0 79 -35.5 140t-98.5 96t-144 35t-144 -35t-99 -96t-36 -140q0 -80 36 -141t99 -95.5t144 -34.5zM293 107q-63 0 -104 41t-41 111q0 69 41 110.5t104 41.5q62 0 103.5 -41.5t41.5 -110.5q0 -70 -41.5 -111t-103.5 -41z
M235 807h112l94 136h-137zM354 603q43 0 76.5 33.5t32.5 97.5h-82q-3 -25 -12 -35.5t-20 -10.5q-16 0 -31.5 13.5t-36 27t-50.5 13.5q-43 0 -76.5 -34.5t-32.5 -97.5h82q3 24 12.5 35.5t19.5 11.5q16 0 32 -13.5t36 -27t50 -13.5z" />
    <glyph glyph-name="uni1E4F" unicode="&#x1e4f;" horiz-adv-x="586" 
d="M293 -12q81 0 143.5 34.5t98.5 95.5t36 141q0 79 -35.5 140t-98.5 96t-144 35t-144 -35t-99 -96t-36 -140q0 -80 36 -141t99 -95.5t144 -34.5zM293 107q-63 0 -104 41t-41 111q0 69 41 110.5t104 41.5q62 0 103.5 -41.5t41.5 -110.5q0 -70 -41.5 -111t-103.5 -41z
M197 807q32 0 53.5 22t21.5 53t-21.5 53t-53.5 22q-31 0 -52.5 -22t-21.5 -53t21.5 -53t52.5 -22zM393 807q31 0 53 22t22 53t-22 53t-53 22t-53 -22t-22 -53t22 -53t53 -22zM353 603q44 0 77.5 33.5t32.5 97.5h-82q-3 -25 -12 -35.5t-20 -10.5q-16 0 -32 13.5t-36 27
t-50 13.5q-43 0 -76.5 -34.5t-32.5 -97.5h81q3 24 13 35.5t19 11.5q17 0 33 -13.5t36 -27t49 -13.5z" />
    <glyph glyph-name="uni022D" unicode="&#x22d;" horiz-adv-x="586" 
d="M293 -12q81 0 143.5 34.5t98.5 95.5t36 141q0 79 -35.5 140t-98.5 96t-144 35t-144 -35t-99 -96t-36 -140q0 -80 36 -141t99 -95.5t144 -34.5zM293 107q-63 0 -104 41t-41 111q0 69 41 110.5t104 41.5q62 0 103.5 -41.5t41.5 -110.5q0 -70 -41.5 -111t-103.5 -41z
M137 821h307v95h-307v-95zM353 603q44 0 77.5 33.5t31.5 97.5h-81q-3 -25 -12 -35.5t-20 -10.5q-16 0 -32 13.5t-36 27t-50 13.5q-44 0 -77 -34.5t-32 -97.5h81q3 24 13 35.5t19 11.5q17 0 32.5 -13.5t36 -27t49.5 -13.5z" />
    <glyph glyph-name="oe" unicode="&#x153;" horiz-adv-x="992" 
d="M293 -12q66 0 120.5 24.5t90.5 68.5q35 -44 90 -68.5t123 -24.5q90 0 157 44t92 118l-131 23q-16 -32 -47.5 -51.5t-73.5 -19.5q-54 0 -90.5 32t-45.5 88l389 -1l11 33q0 133 -71 204.5t-194 71.5q-67 0 -120.5 -25t-87.5 -68q-37 43 -91.5 68t-120.5 25q-81 0 -144 -35
t-99 -96t-36 -140q0 -80 36 -141t99 -95.5t144 -34.5zM583 321q13 46 46.5 71.5t81.5 25.5q47 0 82.5 -23.5t44.5 -73.5h-255zM293 107q-63 0 -104 41t-41 111q0 69 41 110.5t104 41.5q62 0 103.5 -41.5t41.5 -110.5q0 -70 -41.5 -111t-103.5 -41z" />
    <glyph glyph-name="p" unicode="p" horiz-adv-x="638" 
d="M74 -204h137v211q0 16 -2.5 28.5t-13.5 33.5l20 8q22 -40 60.5 -64.5t99.5 -24.5q74 0 129.5 34.5t87.5 95.5t32 141t-32 141t-87.5 95.5t-129.5 34.5q-61 0 -99.5 -24t-60.5 -65l-20 9q9 15 12.5 28.5t3.5 27.5v12h-137v-722zM350 105q-51 0 -88.5 26t-50.5 70v116
q13 43 50.5 69t88.5 26q61 0 99.5 -42t38.5 -111q0 -70 -38 -112t-100 -42z" />
    <glyph glyph-name="thorn" unicode="&#xfe;" horiz-adv-x="672" 
d="M72 -204h137v211q0 16 -2.5 28.5t-13.5 33.5l20 8q22 -40 60.5 -64.5t99.5 -24.5q74 0 129.5 34.5t87.5 95.5t32 141t-32 141t-87.5 95.5t-129.5 34.5q-61 0 -99.5 -24t-60.5 -65l-20 9q9 15 12.5 28.5t3.5 27.5v194h-137v-904zM348 105q-51 0 -88.5 26t-50.5 70v116
q13 43 50.5 69t88.5 26q61 0 99.5 -42t38.5 -111q0 -70 -38 -112t-100 -42z" />
    <glyph glyph-name="q" unicode="q" horiz-adv-x="638" 
d="M427 -204h137v722h-137v-12q0 -14 3.5 -27.5t12.5 -28.5l-20 -9q-22 41 -60.5 65t-99.5 24q-74 0 -130 -34.5t-87.5 -95.5t-31.5 -141t31.5 -141t87.5 -95.5t130 -34.5q61 0 99.5 24.5t60.5 64.5l20 -8q-11 -21 -13.5 -33.5t-2.5 -28.5v-211zM288 105q-62 0 -100 42
t-38 112q0 69 38.5 111t99.5 42q51 0 88.5 -26t50.5 -69v-116q-13 -44 -50.5 -70t-88.5 -26z" />
    <glyph glyph-name="r" unicode="r" horiz-adv-x="408" 
d="M74 0h137v344q12 28 42 45.5t70 17.5q22 0 38.5 -3t36.5 -10l25 120q-18 9 -41 12.5t-42 3.5q-53 0 -83.5 -26.5t-49.5 -60.5l-20 7q5 10 10.5 25t5.5 36v7h-129v-518z" />
    <glyph glyph-name="racute" unicode="&#x155;" horiz-adv-x="408" 
d="M74 0h137v344q12 28 42 45.5t70 17.5q22 0 38.5 -3t36.5 -10l25 120q-18 9 -41 12.5t-42 3.5q-53 0 -83.5 -26.5t-49.5 -60.5l-20 7q5 10 10.5 25t5.5 36v7h-129v-518zM162 600h112l94 136h-137z" />
    <glyph glyph-name="rcaron" unicode="&#x159;" horiz-adv-x="408" 
d="M74 0h137v344q12 28 42 45.5t70 17.5q22 0 38.5 -3t36.5 -10l25 120q-18 9 -41 12.5t-42 3.5q-53 0 -83.5 -26.5t-49.5 -60.5l-20 7q5 10 10.5 25t5.5 36v7h-129v-518zM153 600h127l103 136h-110l-56 -72l-56 72h-110z" />
    <glyph glyph-name="uni0157" unicode="&#x157;" horiz-adv-x="408" 
d="M74 0h137v344q12 28 42 45.5t70 17.5q22 0 38.5 -3t36.5 -10l25 120q-18 9 -41 12.5t-42 3.5q-53 0 -83.5 -26.5t-49.5 -60.5l-20 7q5 10 10.5 25t5.5 36v7h-129v-518zM77 -348h14q70 0 105 47t35 120q0 47 -22 74.5t-60 27.5q-34 0 -58 -22.5t-24 -59.5q0 -32 21.5 -55
t53.5 -26q-2 -21 -15.5 -34t-39.5 -13h-10v-59z" />
    <glyph glyph-name="uni0211" unicode="&#x211;" horiz-adv-x="408" 
d="M74 0h137v344q12 28 42 45.5t70 17.5q22 0 38.5 -3t36.5 -10l25 120q-18 9 -41 12.5t-42 3.5q-53 0 -83.5 -26.5t-49.5 -60.5l-20 7q5 10 10.5 25t5.5 36v7h-129v-518zM253 600h112l-69 136h-137zM70 600h112l-68 136h-138z" />
    <glyph glyph-name="uni1E5B" unicode="&#x1e5b;" horiz-adv-x="408" 
d="M74 0h137v344q12 28 42 45.5t70 17.5q22 0 38.5 -3t36.5 -10l25 120q-18 9 -41 12.5t-42 3.5q-53 0 -83.5 -26.5t-49.5 -60.5l-20 7q5 10 10.5 25t5.5 36v7h-129v-518zM149 -243q34 0 58 24t24 58t-24 58t-58 24t-58 -24t-24 -58t24 -58t58 -24z" />
    <glyph glyph-name="uni0213" unicode="&#x213;" horiz-adv-x="408" 
d="M74 0h137v344q12 28 42 45.5t70 17.5q22 0 38.5 -3t36.5 -10l25 120q-18 9 -41 12.5t-42 3.5q-53 0 -83.5 -26.5t-49.5 -60.5l-20 7q5 10 10.5 25t5.5 36v7h-129v-518zM65 600h91q0 29 17 47t45 18q27 0 44 -17.5t17 -47.5h91q0 62 -42 99t-110 37q-69 0 -111 -37
t-42 -99z" />
    <glyph glyph-name="rmacronbelow" unicode="&#x1e5f;" horiz-adv-x="408" 
d="M74 0h137v344q12 28 42 45.5t70 17.5q22 0 38.5 -3t36.5 -10l25 120q-18 9 -41 12.5t-42 3.5q-53 0 -83.5 -26.5t-49.5 -60.5l-20 7q5 10 10.5 25t5.5 36v7h-129v-518zM-27 -173h307v95h-307v-95z" />
    <glyph glyph-name="s" unicode="s" horiz-adv-x="506" 
d="M254 -12q103 0 165.5 43.5t62.5 118.5q0 50 -22.5 81t-58 48t-75.5 27t-75 18t-57.5 20t-22.5 35q0 22 20 35t53 13q46 0 71 -21.5t32 -45.5l123 23q-8 45 -39.5 78t-79.5 51t-106 18q-92 0 -148 -44t-54 -120q1 -49 24 -78.5t58 -46t74.5 -25t74.5 -16t57 -19.5t22 -36
q0 -25 -28.5 -39.5t-68.5 -14.5q-54 0 -82.5 22.5t-35.5 48.5l-124 -23q19 -69 79.5 -110t160.5 -41z" />
    <glyph glyph-name="sacute" unicode="&#x15b;" horiz-adv-x="506" 
d="M254 -12q103 0 165.5 43.5t62.5 118.5q0 50 -22.5 81t-58 48t-75.5 27t-75 18t-57.5 20t-22.5 35q0 22 20 35t53 13q46 0 71 -21.5t32 -45.5l123 23q-8 45 -39.5 78t-79.5 51t-106 18q-92 0 -148 -44t-54 -120q1 -49 24 -78.5t58 -46t74.5 -25t74.5 -16t57 -19.5t22 -36
q0 -25 -28.5 -39.5t-68.5 -14.5q-54 0 -82.5 22.5t-35.5 48.5l-124 -23q19 -69 79.5 -110t160.5 -41zM196 600h112l94 136h-137z" />
    <glyph glyph-name="uni1E65" unicode="&#x1e65;" horiz-adv-x="506" 
d="M254 -12q103 0 165.5 43.5t62.5 118.5q0 50 -22.5 81t-58 48t-75.5 27t-75 18t-57.5 20t-22.5 35q0 22 20 35t53 13q46 0 71 -21.5t32 -45.5l123 23q-8 45 -39.5 78t-79.5 51t-106 18q-92 0 -148 -44t-54 -120q1 -49 24 -78.5t58 -46t74.5 -25t74.5 -16t57 -19.5t22 -36
q0 -25 -28.5 -39.5t-68.5 -14.5q-54 0 -82.5 22.5t-35.5 48.5l-124 -23q19 -69 79.5 -110t160.5 -41zM100 692q34 0 58 24t24 58t-24 58t-58 24t-58 -24t-24 -58t24 -58t58 -24zM140 600h112l93 136h-137z" />
    <glyph glyph-name="scaron" unicode="&#x161;" horiz-adv-x="506" 
d="M254 -12q103 0 165.5 43.5t62.5 118.5q0 50 -22.5 81t-58 48t-75.5 27t-75 18t-57.5 20t-22.5 35q0 22 20 35t53 13q46 0 71 -21.5t32 -45.5l123 23q-8 45 -39.5 78t-79.5 51t-106 18q-92 0 -148 -44t-54 -120q1 -49 24 -78.5t58 -46t74.5 -25t74.5 -16t57 -19.5t22 -36
q0 -25 -28.5 -39.5t-68.5 -14.5q-54 0 -82.5 22.5t-35.5 48.5l-124 -23q19 -69 79.5 -110t160.5 -41zM188 600h127l103 136h-110l-56 -72l-56 72h-110z" />
    <glyph glyph-name="uni1E67" unicode="&#x1e67;" horiz-adv-x="506" 
d="M254 -12q103 0 165.5 43.5t62.5 118.5q0 50 -22.5 81t-58 48t-75.5 27t-75 18t-57.5 20t-22.5 35q0 22 20 35t53 13q46 0 71 -21.5t32 -45.5l123 23q-8 45 -39.5 78t-79.5 51t-106 18q-92 0 -148 -44t-54 -120q1 -49 24 -78.5t58 -46t74.5 -25t74.5 -16t57 -19.5t22 -36
q0 -25 -28.5 -39.5t-68.5 -14.5q-54 0 -82.5 22.5t-35.5 48.5l-124 -23q19 -69 79.5 -110t160.5 -41zM188 600h127l103 136h-110l-56 -72l-56 72h-110zM259 818q32 0 55 22.5t23 55.5q0 32 -23 55t-55 23q-33 0 -56 -23t-23 -55q0 -33 23 -55.5t56 -22.5z" />
    <glyph glyph-name="scedilla" unicode="&#x15f;" horiz-adv-x="506" 
d="M254 -12q103 0 165.5 43.5t62.5 118.5q0 50 -22.5 81t-58 48t-75.5 27t-75 18t-57.5 20t-22.5 35q0 22 20 35t53 13q46 0 71 -21.5t32 -45.5l123 23q-8 45 -39.5 78t-79.5 51t-106 18q-92 0 -148 -44t-54 -120q1 -49 24 -78.5t58 -46t74.5 -25t74.5 -16t57 -19.5t22 -36
q0 -25 -28.5 -39.5t-68.5 -14.5q-54 0 -82.5 22.5t-35.5 48.5l-124 -23q19 -69 79.5 -110t160.5 -41zM255 -226q58 0 91.5 28t33.5 80q0 42 -27.5 66t-71.5 24h-5l12 46h-72l-28 -107q25 9 54 9q49 0 49 -33q0 -17 -14 -24.5t-39 -7.5q-16 0 -35 5.5t-34 17.5l-40 -56
q23 -23 56.5 -35.5t69.5 -12.5z" />
    <glyph glyph-name="scircumflex" unicode="&#x15d;" horiz-adv-x="506" 
d="M254 -12q103 0 165.5 43.5t62.5 118.5q0 50 -22.5 81t-58 48t-75.5 27t-75 18t-57.5 20t-22.5 35q0 22 20 35t53 13q46 0 71 -21.5t32 -45.5l123 23q-8 45 -39.5 78t-79.5 51t-106 18q-92 0 -148 -44t-54 -120q1 -49 24 -78.5t58 -46t74.5 -25t74.5 -16t57 -19.5t22 -36
q0 -25 -28.5 -39.5t-68.5 -14.5q-54 0 -82.5 22.5t-35.5 48.5l-124 -23q19 -69 79.5 -110t160.5 -41zM86 600h110l56 72l56 -72h110l-103 136h-127z" />
    <glyph glyph-name="uni0219" unicode="&#x219;" horiz-adv-x="506" 
d="M254 -12q103 0 165.5 43.5t62.5 118.5q0 50 -22.5 81t-58 48t-75.5 27t-75 18t-57.5 20t-22.5 35q0 22 20 35t53 13q46 0 71 -21.5t32 -45.5l123 23q-8 45 -39.5 78t-79.5 51t-106 18q-92 0 -148 -44t-54 -120q1 -49 24 -78.5t58 -46t74.5 -25t74.5 -16t57 -19.5t22 -36
q0 -25 -28.5 -39.5t-68.5 -14.5q-54 0 -82.5 22.5t-35.5 48.5l-124 -23q19 -69 79.5 -110t160.5 -41zM187 -348h14q70 0 105 47t35 120q0 47 -22 74.5t-60 27.5q-34 0 -58 -22.5t-24 -59.5q0 -32 21.5 -55t53.5 -26q-2 -21 -15.5 -34t-39.5 -13h-10v-59z" />
    <glyph glyph-name="uni1E61" unicode="&#x1e61;" horiz-adv-x="506" 
d="M254 -12q103 0 165.5 43.5t62.5 118.5q0 50 -22.5 81t-58 48t-75.5 27t-75 18t-57.5 20t-22.5 35q0 22 20 35t53 13q46 0 71 -21.5t32 -45.5l123 23q-8 45 -39.5 78t-79.5 51t-106 18q-92 0 -148 -44t-54 -120q1 -49 24 -78.5t58 -46t74.5 -25t74.5 -16t57 -19.5t22 -36
q0 -25 -28.5 -39.5t-68.5 -14.5q-54 0 -82.5 22.5t-35.5 48.5l-124 -23q19 -69 79.5 -110t160.5 -41zM259 600q32 0 55 22.5t23 55.5q0 32 -23 55t-55 23q-33 0 -56 -23t-23 -55q0 -33 23 -55.5t56 -22.5z" />
    <glyph glyph-name="uni1E63" unicode="&#x1e63;" horiz-adv-x="506" 
d="M254 -12q103 0 165.5 43.5t62.5 118.5q0 50 -22.5 81t-58 48t-75.5 27t-75 18t-57.5 20t-22.5 35q0 22 20 35t53 13q46 0 71 -21.5t32 -45.5l123 23q-8 45 -39.5 78t-79.5 51t-106 18q-92 0 -148 -44t-54 -120q1 -49 24 -78.5t58 -46t74.5 -25t74.5 -16t57 -19.5t22 -36
q0 -25 -28.5 -39.5t-68.5 -14.5q-54 0 -82.5 22.5t-35.5 48.5l-124 -23q19 -69 79.5 -110t160.5 -41zM258 -243q34 0 58 24t24 58t-24 58t-58 24t-58 -24t-24 -58t24 -58t58 -24z" />
    <glyph glyph-name="uni1E69" unicode="&#x1e69;" horiz-adv-x="506" 
d="M254 -12q103 0 165.5 43.5t62.5 118.5q0 50 -22.5 81t-58 48t-75.5 27t-75 18t-57.5 20t-22.5 35q0 22 20 35t53 13q46 0 71 -21.5t32 -45.5l123 23q-8 45 -39.5 78t-79.5 51t-106 18q-92 0 -148 -44t-54 -120q1 -49 24 -78.5t58 -46t74.5 -25t74.5 -16t57 -19.5t22 -36
q0 -25 -28.5 -39.5t-68.5 -14.5q-54 0 -82.5 22.5t-35.5 48.5l-124 -23q19 -69 79.5 -110t160.5 -41zM258 -243q34 0 58 24t24 58t-24 58t-58 24t-58 -24t-24 -58t24 -58t58 -24zM259 600q32 0 55 22.5t23 55.5q0 32 -23 55t-55 23q-33 0 -56 -23t-23 -55q0 -33 23 -55.5
t56 -22.5z" />
    <glyph glyph-name="germandbls" unicode="&#xdf;" horiz-adv-x="702" 
d="M477 -12q58 0 103 19.5t71.5 56t26.5 86.5q0 44 -15 71t-39 42t-50.5 23.5t-50 15t-38.5 15t-15 25.5q0 15 13.5 27.5t33 26t39 32t33 45.5t13.5 67q0 67 -34.5 111.5t-93 66.5t-129.5 22q-82 0 -143 -32.5t-94.5 -91.5t-33.5 -139v-477h134v477q0 69 36.5 106.5
t100.5 37.5q54 0 88.5 -26t34.5 -71q0 -25 -17.5 -43.5t-41 -37t-41 -42.5t-17.5 -59q0 -36 14.5 -58t37 -35t47.5 -22.5t47.5 -19t37 -23.5t14.5 -39t-23 -39.5t-58 -14.5q-43 0 -67 22.5t-29 48.5l-109 -23q16 -69 68 -110t146 -41z" />
    <glyph glyph-name="t" unicode="t" horiz-adv-x="388" 
d="M283 -6q34 0 59 4.5t44 12.5l-29 109q-15 -4 -33 -6.5t-30 -2.5q-27 0 -43.5 15t-16.5 50v227h139v115h-139v133h-137v-133h-107v-115h107v-235q0 -94 50 -134t136 -40z" />
    <glyph glyph-name="tbar" unicode="&#x167;" horiz-adv-x="388" 
d="M-11 207h108v-39q0 -94 50 -134t136 -40q34 0 59 4.5t44 12.5l-29 109q-15 -4 -33 -6.5t-30 -2.5q-27 0 -43.5 15t-16.5 50v31h139v103h-139v93h139v115h-139v133h-137v-133h-107v-115h107v-93h-108v-103z" />
    <glyph glyph-name="tcaron" unicode="&#x165;" horiz-adv-x="478" 
d="M348 541h105l24 171h-129v-171zM283 -6q34 0 59 4.5t44 12.5l-29 109q-15 -4 -33 -6.5t-30 -2.5q-27 0 -43.5 15t-16.5 50v227h139v115h-139v133h-137v-133h-107v-115h107v-235q0 -94 50 -134t136 -40z" />
    <glyph glyph-name="uni0163" unicode="&#x163;" horiz-adv-x="388" 
d="M283 -6q34 0 59 4.5t44 12.5l-29 109q-15 -4 -33 -6.5t-30 -2.5q-27 0 -43.5 15t-16.5 50v227h139v115h-139v133h-137v-133h-107v-115h107v-235q0 -94 50 -134t136 -40zM286 -226q58 0 91.5 28t33.5 80q0 42 -27.5 66t-71.5 24h-5l12 46h-72l-28 -107q25 9 54 9
q49 0 49 -33q0 -17 -14 -24.5t-39 -7.5q-16 0 -35 5.5t-34 17.5l-40 -56q23 -23 56.5 -35.5t69.5 -12.5z" />
    <glyph glyph-name="uni021B" unicode="&#x21b;" horiz-adv-x="388" 
d="M283 -6q34 0 59 4.5t44 12.5l-29 109q-15 -4 -33 -6.5t-30 -2.5q-27 0 -43.5 15t-16.5 50v227h139v115h-139v133h-137v-133h-107v-115h107v-235q0 -94 50 -134t136 -40zM218 -348h14q70 0 105 47t35 120q0 47 -22 74.5t-60 27.5q-34 0 -58 -22.5t-24 -59.5
q0 -32 21.5 -55t53.5 -26q-2 -21 -15.5 -34t-39.5 -13h-10v-59z" />
    <glyph glyph-name="uni1E97" unicode="&#x1e97;" horiz-adv-x="388" 
d="M283 -6q34 0 59 4.5t44 12.5l-29 109q-15 -4 -33 -6.5t-30 -2.5q-27 0 -43.5 15t-16.5 50v227h139v115h-139v133h-137v-133h-107v-115h107v-235q0 -94 50 -134t136 -40zM72 734q31 0 53 22t22 53t-22 53t-53 22t-53 -22t-22 -53t22 -53t53 -22zM268 734q31 0 53 22t22 53
t-22 53t-53 22t-53 -22t-22 -53t22 -53t53 -22z" />
    <glyph glyph-name="uni1E6D" unicode="&#x1e6d;" horiz-adv-x="388" 
d="M283 -6q34 0 59 4.5t44 12.5l-29 109q-15 -4 -33 -6.5t-30 -2.5q-27 0 -43.5 15t-16.5 50v227h139v115h-139v133h-137v-133h-107v-115h107v-235q0 -94 50 -134t136 -40zM289 -243q34 0 58 24t24 58t-24 58t-58 24t-58 -24t-24 -58t24 -58t58 -24z" />
    <glyph glyph-name="tmacronbelow" unicode="&#x1e6f;" horiz-adv-x="388" 
d="M283 -6q34 0 59 4.5t44 12.5l-29 109q-15 -4 -33 -6.5t-30 -2.5q-27 0 -43.5 15t-16.5 50v227h139v115h-139v133h-137v-133h-107v-115h107v-235q0 -94 50 -134t136 -40zM114 -173h307v95h-307v-95z" />
    <glyph glyph-name="u" unicode="u" horiz-adv-x="629" 
d="M265 -12q56 0 96 23.5t62 61.5l19 -8q-5 -9 -10.5 -23.5t-5.5 -36.5v-5h128v518h-136v-359q-21 -27 -51.5 -40t-60.5 -13q-50 0 -77.5 24.5t-27.5 76.5v311h-137v-322q0 -100 54.5 -154t146.5 -54z" />
    <glyph glyph-name="uacute" unicode="&#xfa;" horiz-adv-x="629" 
d="M265 -12q56 0 96 23.5t62 61.5l19 -8q-5 -9 -10.5 -23.5t-5.5 -36.5v-5h128v518h-136v-359q-21 -27 -51.5 -40t-60.5 -13q-50 0 -77.5 24.5t-27.5 76.5v311h-137v-322q0 -100 54.5 -154t146.5 -54zM257 600h112l94 136h-137z" />
    <glyph glyph-name="ubreve" unicode="&#x16d;" horiz-adv-x="629" 
d="M265 -12q56 0 96 23.5t62 61.5l19 -8q-5 -9 -10.5 -23.5t-5.5 -36.5v-5h128v518h-136v-359q-21 -27 -51.5 -40t-60.5 -13q-50 0 -77.5 24.5t-27.5 76.5v311h-137v-322q0 -100 54.5 -154t146.5 -54zM313 600q68 0 110 37t42 99h-91q0 -30 -17 -47.5t-44 -17.5
q-28 0 -45 18t-17 47h-91q0 -62 42 -99t111 -37z" />
    <glyph glyph-name="ucircumflex" unicode="&#xfb;" horiz-adv-x="629" 
d="M265 -12q56 0 96 23.5t62 61.5l19 -8q-5 -9 -10.5 -23.5t-5.5 -36.5v-5h128v518h-136v-359q-21 -27 -51.5 -40t-60.5 -13q-50 0 -77.5 24.5t-27.5 76.5v311h-137v-322q0 -100 54.5 -154t146.5 -54zM147 600h110l56 72l56 -72h110l-103 136h-127z" />
    <glyph glyph-name="uni0215" unicode="&#x215;" horiz-adv-x="629" 
d="M265 -12q56 0 96 23.5t62 61.5l19 -8q-5 -9 -10.5 -23.5t-5.5 -36.5v-5h128v518h-136v-359q-21 -27 -51.5 -40t-60.5 -13q-50 0 -77.5 24.5t-27.5 76.5v311h-137v-322q0 -100 54.5 -154t146.5 -54zM349 600h112l-69 136h-137zM166 600h112l-68 136h-138z" />
    <glyph glyph-name="udieresis" unicode="&#xfc;" horiz-adv-x="629" 
d="M265 -12q56 0 96 23.5t62 61.5l19 -8q-5 -9 -10.5 -23.5t-5.5 -36.5v-5h128v518h-136v-359q-21 -27 -51.5 -40t-60.5 -13q-50 0 -77.5 24.5t-27.5 76.5v311h-137v-322q0 -100 54.5 -154t146.5 -54zM219 600q31 0 53 22t22 53t-22 53t-53 22t-53 -22t-22 -53t22 -53
t53 -22zM415 600q31 0 53 22t22 53t-22 53t-53 22t-53 -22t-22 -53t22 -53t53 -22z" />
    <glyph glyph-name="uni1EE5" unicode="&#x1ee5;" horiz-adv-x="629" 
d="M265 -12q56 0 96 23.5t62 61.5l19 -8q-5 -9 -10.5 -23.5t-5.5 -36.5v-5h128v518h-136v-359q-21 -27 -51.5 -40t-60.5 -13q-50 0 -77.5 24.5t-27.5 76.5v311h-137v-322q0 -100 54.5 -154t146.5 -54zM319 -243q34 0 58 24t24 58t-24 58t-58 24t-58 -24t-24 -58t24 -58
t58 -24z" />
    <glyph glyph-name="ugrave" unicode="&#xf9;" horiz-adv-x="629" 
d="M265 -12q56 0 96 23.5t62 61.5l19 -8q-5 -9 -10.5 -23.5t-5.5 -36.5v-5h128v518h-136v-359q-21 -27 -51.5 -40t-60.5 -13q-50 0 -77.5 24.5t-27.5 76.5v311h-137v-322q0 -100 54.5 -154t146.5 -54zM257 600h112l-68 136h-138z" />
    <glyph glyph-name="uni1EE7" unicode="&#x1ee7;" horiz-adv-x="629" 
d="M265 -12q56 0 96 23.5t62 61.5l19 -8q-5 -9 -10.5 -23.5t-5.5 -36.5v-5h128v518h-136v-359q-21 -27 -51.5 -40t-60.5 -13q-50 0 -77.5 24.5t-27.5 76.5v311h-137v-322q0 -100 54.5 -154t146.5 -54zM304 600q57 11 79.5 38t22.5 54q0 40 -28 64.5t-76 24.5q-46 0 -83 -20
l20 -62q8 6 19.5 8.5t21.5 2.5q24 0 35 -9.5t11 -24.5q0 -17 -13.5 -29t-40.5 -21z" />
    <glyph glyph-name="uhorn" unicode="&#x1b0;" horiz-adv-x="606" 
d="M261 -12q56 0 96 23.5t62 61.5l19 -8q-5 -9 -10.5 -23.5t-5.5 -36.5v-5h128v429q57 5 90.5 45.5t33.5 109.5h-95q0 -36 -18.5 -51t-50.5 -15h-96v-359q-21 -27 -51.5 -40t-60.5 -13q-50 0 -77.5 24.5t-27.5 76.5v311h-137v-322q0 -100 54.5 -154t146.5 -54z" />
    <glyph glyph-name="uni1EE9" unicode="&#x1ee9;" horiz-adv-x="606" 
d="M261 -12q56 0 96 23.5t62 61.5l19 -8q-5 -9 -10.5 -23.5t-5.5 -36.5v-5h128v429q57 5 90.5 45.5t33.5 109.5h-95q0 -36 -18.5 -51t-50.5 -15h-96v-359q-21 -27 -51.5 -40t-60.5 -13q-50 0 -77.5 24.5t-27.5 76.5v311h-137v-322q0 -100 54.5 -154t146.5 -54zM253 600h112
l94 136h-137z" />
    <glyph glyph-name="uni1EF1" unicode="&#x1ef1;" horiz-adv-x="606" 
d="M261 -12q56 0 96 23.5t62 61.5l19 -8q-5 -9 -10.5 -23.5t-5.5 -36.5v-5h128v429q57 5 90.5 45.5t33.5 109.5h-95q0 -36 -18.5 -51t-50.5 -15h-96v-359q-21 -27 -51.5 -40t-60.5 -13q-50 0 -77.5 24.5t-27.5 76.5v311h-137v-322q0 -100 54.5 -154t146.5 -54zM315 -243
q34 0 58 24t24 58t-24 58t-58 24t-58 -24t-24 -58t24 -58t58 -24z" />
    <glyph glyph-name="uni1EEB" unicode="&#x1eeb;" horiz-adv-x="606" 
d="M261 -12q56 0 96 23.5t62 61.5l19 -8q-5 -9 -10.5 -23.5t-5.5 -36.5v-5h128v429q57 5 90.5 45.5t33.5 109.5h-95q0 -36 -18.5 -51t-50.5 -15h-96v-359q-21 -27 -51.5 -40t-60.5 -13q-50 0 -77.5 24.5t-27.5 76.5v311h-137v-322q0 -100 54.5 -154t146.5 -54zM253 600h112
l-68 136h-138z" />
    <glyph glyph-name="uni1EED" unicode="&#x1eed;" horiz-adv-x="606" 
d="M261 -12q56 0 96 23.5t62 61.5l19 -8q-5 -9 -10.5 -23.5t-5.5 -36.5v-5h128v429q57 5 90.5 45.5t33.5 109.5h-95q0 -36 -18.5 -51t-50.5 -15h-96v-359q-21 -27 -51.5 -40t-60.5 -13q-50 0 -77.5 24.5t-27.5 76.5v311h-137v-322q0 -100 54.5 -154t146.5 -54zM300 600
q57 11 79.5 38t22.5 54q0 40 -28 64.5t-76 24.5q-46 0 -83 -20l20 -62q8 6 19.5 8.5t21.5 2.5q24 0 35 -9.5t11 -24.5q0 -17 -13.5 -29t-40.5 -21z" />
    <glyph glyph-name="uni1EEF" unicode="&#x1eef;" horiz-adv-x="606" 
d="M261 -12q56 0 96 23.5t62 61.5l19 -8q-5 -9 -10.5 -23.5t-5.5 -36.5v-5h128v429q57 5 90.5 45.5t33.5 109.5h-95q0 -36 -18.5 -51t-50.5 -15h-96v-359q-21 -27 -51.5 -40t-60.5 -13q-50 0 -77.5 24.5t-27.5 76.5v311h-137v-322q0 -100 54.5 -154t146.5 -54zM370 603
q43 0 77 33.5t32 97.5h-81q-3 -25 -12.5 -35.5t-19.5 -10.5q-16 0 -32 13.5t-36.5 27t-49.5 13.5q-44 0 -77.5 -34.5t-32.5 -97.5h82q3 24 12.5 35.5t19.5 11.5q16 0 32 -13.5t36 -27t50 -13.5z" />
    <glyph glyph-name="uhungarumlaut" unicode="&#x171;" horiz-adv-x="629" 
d="M265 -12q56 0 96 23.5t62 61.5l19 -8q-5 -9 -10.5 -23.5t-5.5 -36.5v-5h128v518h-136v-359q-21 -27 -51.5 -40t-60.5 -13q-50 0 -77.5 24.5t-27.5 76.5v311h-137v-322q0 -100 54.5 -154t146.5 -54zM348 600h112l94 136h-138zM165 600h112l94 136h-137z" />
    <glyph glyph-name="uni0217" unicode="&#x217;" horiz-adv-x="629" 
d="M265 -12q56 0 96 23.5t62 61.5l19 -8q-5 -9 -10.5 -23.5t-5.5 -36.5v-5h128v518h-136v-359q-21 -27 -51.5 -40t-60.5 -13q-50 0 -77.5 24.5t-27.5 76.5v311h-137v-322q0 -100 54.5 -154t146.5 -54zM160 600h91q0 29 17 47t45 18q27 0 44 -17.5t17 -47.5h91q0 62 -42 99
t-110 37q-69 0 -111 -37t-42 -99z" />
    <glyph glyph-name="umacron" unicode="&#x16b;" horiz-adv-x="629" 
d="M265 -12q56 0 96 23.5t62 61.5l19 -8q-5 -9 -10.5 -23.5t-5.5 -36.5v-5h128v518h-136v-359q-21 -27 -51.5 -40t-60.5 -13q-50 0 -77.5 24.5t-27.5 76.5v311h-137v-322q0 -100 54.5 -154t146.5 -54zM159 614h307v95h-307v-95z" />
    <glyph glyph-name="uni1E7B" unicode="&#x1e7b;" horiz-adv-x="629" 
d="M265 -12q56 0 96 23.5t62 61.5l19 -8q-5 -9 -10.5 -23.5t-5.5 -36.5v-5h128v518h-136v-359q-21 -27 -51.5 -40t-60.5 -13q-50 0 -77.5 24.5t-27.5 76.5v311h-137v-322q0 -100 54.5 -154t146.5 -54zM159 614h307v95h-307v-95zM219 791q31 0 53 22t22 53t-22 53t-53 22
t-53 -22t-22 -53t22 -53t53 -22zM415 791q31 0 53 22t22 53t-22 53t-53 22t-53 -22t-22 -53t22 -53t53 -22z" />
    <glyph glyph-name="uogonek" unicode="&#x173;" horiz-adv-x="629" 
d="M265 -12q56 0 96 23.5t62 61.5l19 -8q-5 -9 -10.5 -23.5t-5.5 -36.5v-5h128v518h-136v-359q-21 -27 -51.5 -40t-60.5 -13q-50 0 -77.5 24.5t-27.5 76.5v311h-137v-322q0 -100 54.5 -154t146.5 -54zM464 -208q32 0 66.5 11t65.5 37l-37 66q-14 -14 -36.5 -22.5t-46.5 -8.5
t-40 12t-16 36q0 25 24 48t85 38l-37 26q-78 -12 -120 -48.5t-42 -86.5q0 -38 20 -61.5t50.5 -35t63.5 -11.5z" />
    <glyph glyph-name="uring" unicode="&#x16f;" horiz-adv-x="629" 
d="M265 -12q56 0 96 23.5t62 61.5l19 -8q-5 -9 -10.5 -23.5t-5.5 -36.5v-5h128v518h-136v-359q-21 -27 -51.5 -40t-60.5 -13q-50 0 -77.5 24.5t-27.5 76.5v311h-137v-322q0 -100 54.5 -154t146.5 -54zM313 600q54 0 89 34.5t35 81.5q0 49 -35 83t-89 34t-89 -34t-35 -83
q0 -47 35 -81.5t89 -34.5zM313 667q-19 0 -34 13t-15 36q0 24 15 36.5t34 12.5q20 0 35 -13.5t15 -35.5q0 -21 -15 -35t-35 -14z" />
    <glyph glyph-name="utilde" unicode="&#x169;" horiz-adv-x="629" 
d="M265 -12q56 0 96 23.5t62 61.5l19 -8q-5 -9 -10.5 -23.5t-5.5 -36.5v-5h128v518h-136v-359q-21 -27 -51.5 -40t-60.5 -13q-50 0 -77.5 24.5t-27.5 76.5v311h-137v-322q0 -100 54.5 -154t146.5 -54zM374 603q43 0 77 33.5t32 97.5h-81q-3 -25 -12.5 -35.5t-19.5 -10.5
q-16 0 -32 13.5t-36.5 27t-49.5 13.5q-44 0 -77.5 -34.5t-32.5 -97.5h82q3 24 12.5 35.5t19.5 11.5q16 0 32 -13.5t36 -27t50 -13.5z" />
    <glyph glyph-name="uni1E79" unicode="&#x1e79;" horiz-adv-x="629" 
d="M265 -12q56 0 96 23.5t62 61.5l19 -8q-5 -9 -10.5 -23.5t-5.5 -36.5v-5h128v518h-136v-359q-21 -27 -51.5 -40t-60.5 -13q-50 0 -77.5 24.5t-27.5 76.5v311h-137v-322q0 -100 54.5 -154t146.5 -54zM255 807h112l94 136h-137zM374 603q43 0 76.5 33.5t32.5 97.5h-82
q-3 -25 -12 -35.5t-20 -10.5q-16 0 -31.5 13.5t-36 27t-50.5 13.5q-43 0 -76.5 -34.5t-32.5 -97.5h82q3 24 12.5 35.5t19.5 11.5q16 0 32 -13.5t36 -27t50 -13.5z" />
    <glyph glyph-name="v" unicode="v" horiz-adv-x="561" 
d="M214 0h134l219 518h-148l-105 -257q-14 -34 -18 -60.5t-5 -37.5h-19q-1 11 -5 37.5t-18 60.5l-105 257h-150z" />
    <glyph glyph-name="w" unicode="w" horiz-adv-x="783" 
d="M154 0h134l77 242q11 34 14 63t3 37h19q0 -8 3 -37t14 -63l77 -242h133l160 518h-141l-69 -241q-10 -34 -11.5 -63t-1.5 -36h-20q0 8 -3 36.5t-14 62.5l-77 241h-119l-77 -241q-11 -35 -14 -63t-3 -36h-19q0 16 -3 42t-11 57l-69 241h-142z" />
    <glyph glyph-name="wacute" unicode="&#x1e83;" horiz-adv-x="783" 
d="M154 0h134l77 242q11 34 14 63t3 37h19q0 -8 3 -37t14 -63l77 -242h133l160 518h-141l-69 -241q-10 -34 -11.5 -63t-1.5 -36h-20q0 8 -3 36.5t-14 62.5l-77 241h-119l-77 -241q-11 -35 -14 -63t-3 -36h-19q0 16 -3 42t-11 57l-69 241h-142zM335 600h112l94 136h-137z" />
    <glyph glyph-name="wcircumflex" unicode="&#x175;" horiz-adv-x="783" 
d="M154 0h134l77 242q11 34 14 63t3 37h19q0 -8 3 -37t14 -63l77 -242h133l160 518h-141l-69 -241q-10 -34 -11.5 -63t-1.5 -36h-20q0 8 -3 36.5t-14 62.5l-77 241h-119l-77 -241q-11 -35 -14 -63t-3 -36h-19q0 16 -3 42t-11 57l-69 241h-142zM225 600h110l56 72l56 -72h110
l-103 136h-127z" />
    <glyph glyph-name="wdieresis" unicode="&#x1e85;" horiz-adv-x="783" 
d="M154 0h134l77 242q11 34 14 63t3 37h19q0 -8 3 -37t14 -63l77 -242h133l160 518h-141l-69 -241q-10 -34 -11.5 -63t-1.5 -36h-20q0 8 -3 36.5t-14 62.5l-77 241h-119l-77 -241q-11 -35 -14 -63t-3 -36h-19q0 16 -3 42t-11 57l-69 241h-142zM298 600q31 0 53 22t22 53
t-22 53t-53 22t-53 -22t-22 -53t22 -53t53 -22zM494 600q31 0 53 22t22 53t-22 53t-53 22t-53 -22t-22 -53t22 -53t53 -22z" />
    <glyph glyph-name="wgrave" unicode="&#x1e81;" horiz-adv-x="783" 
d="M154 0h134l77 242q11 34 14 63t3 37h19q0 -8 3 -37t14 -63l77 -242h133l160 518h-141l-69 -241q-10 -34 -11.5 -63t-1.5 -36h-20q0 8 -3 36.5t-14 62.5l-77 241h-119l-77 -241q-11 -35 -14 -63t-3 -36h-19q0 16 -3 42t-11 57l-69 241h-142zM335 600h112l-68 136h-138z
" />
    <glyph glyph-name="x" unicode="x" horiz-adv-x="570" 
d="M411 0h165l-208 266l198 252h-165l-75 -93q-18 -23 -23 -41.5t-7 -35.5h-19q-2 17 -8.5 35t-24.5 40l-74 95h-166l199 -252l-209 -266h166l84 108q18 23 24 40.5t8 34.5h19q2 -18 8 -36t23 -41z" />
    <glyph glyph-name="y" unicode="y" horiz-adv-x="569" 
d="M127 -216q63 0 100 21.5t61 61t48 96.5l239 555h-148l-108 -261q-14 -33 -19 -59.5t-5 -36.5h-19q0 10 -5 36.5t-19 59.5l-108 261h-150l222 -513l-14 -35q-12 -31 -31 -49.5t-58 -18.5q-36 0 -64 7v-116q15 -4 37 -6.5t41 -2.5z" />
    <glyph glyph-name="yacute" unicode="&#xfd;" horiz-adv-x="569" 
d="M127 -216q63 0 100 21.5t61 61t48 96.5l239 555h-148l-108 -261q-14 -33 -19 -59.5t-5 -36.5h-19q0 10 -5 36.5t-19 59.5l-108 261h-150l222 -513l-14 -35q-12 -31 -31 -49.5t-58 -18.5q-36 0 -64 7v-116q15 -4 37 -6.5t41 -2.5zM228 600h112l94 136h-137z" />
    <glyph glyph-name="ycircumflex" unicode="&#x177;" horiz-adv-x="569" 
d="M127 -216q63 0 100 21.5t61 61t48 96.5l239 555h-148l-108 -261q-14 -33 -19 -59.5t-5 -36.5h-19q0 10 -5 36.5t-19 59.5l-108 261h-150l222 -513l-14 -35q-12 -31 -31 -49.5t-58 -18.5q-36 0 -64 7v-116q15 -4 37 -6.5t41 -2.5zM118 600h110l56 72l56 -72h110l-103 136
h-127z" />
    <glyph glyph-name="ydieresis" unicode="&#xff;" horiz-adv-x="569" 
d="M127 -216q63 0 100 21.5t61 61t48 96.5l239 555h-148l-108 -261q-14 -33 -19 -59.5t-5 -36.5h-19q0 10 -5 36.5t-19 59.5l-108 261h-150l222 -513l-14 -35q-12 -31 -31 -49.5t-58 -18.5q-36 0 -64 7v-116q15 -4 37 -6.5t41 -2.5zM191 600q31 0 53 22t22 53t-22 53t-53 22
t-53 -22t-22 -53t22 -53t53 -22zM387 600q31 0 53 22t22 53t-22 53t-53 22t-53 -22t-22 -53t22 -53t53 -22z" />
    <glyph glyph-name="uni1E8F" unicode="&#x1e8f;" horiz-adv-x="569" 
d="M127 -216q63 0 100 21.5t61 61t48 96.5l239 555h-148l-108 -261q-14 -33 -19 -59.5t-5 -36.5h-19q0 10 -5 36.5t-19 59.5l-108 261h-150l222 -513l-14 -35q-12 -31 -31 -49.5t-58 -18.5q-36 0 -64 7v-116q15 -4 37 -6.5t41 -2.5zM292 600q32 0 55 22.5t23 55.5
q0 32 -23 55t-55 23q-33 0 -56 -23t-23 -55q0 -33 23 -55.5t56 -22.5z" />
    <glyph glyph-name="uni1EF5" unicode="&#x1ef5;" horiz-adv-x="569" 
d="M127 -216q63 0 100 21.5t61 61t48 96.5l239 555h-148l-108 -261q-14 -33 -19 -59.5t-5 -36.5h-19q0 10 -5 36.5t-19 59.5l-108 261h-150l222 -513l-14 -35q-12 -31 -31 -49.5t-58 -18.5q-36 0 -64 7v-116q15 -4 37 -6.5t41 -2.5zM527 -12q34 0 58 24t24 58t-24 58t-58 24
t-58 -24t-24 -58t24 -58t58 -24z" />
    <glyph glyph-name="ygrave" unicode="&#x1ef3;" horiz-adv-x="569" 
d="M127 -216q63 0 100 21.5t61 61t48 96.5l239 555h-148l-108 -261q-14 -33 -19 -59.5t-5 -36.5h-19q0 10 -5 36.5t-19 59.5l-108 261h-150l222 -513l-14 -35q-12 -31 -31 -49.5t-58 -18.5q-36 0 -64 7v-116q15 -4 37 -6.5t41 -2.5zM228 600h112l-68 136h-138z" />
    <glyph glyph-name="uni1EF7" unicode="&#x1ef7;" horiz-adv-x="569" 
d="M127 -216q63 0 100 21.5t61 61t48 96.5l239 555h-148l-108 -261q-14 -33 -19 -59.5t-5 -36.5h-19q0 10 -5 36.5t-19 59.5l-108 261h-150l222 -513l-14 -35q-12 -31 -31 -49.5t-58 -18.5q-36 0 -64 7v-116q15 -4 37 -6.5t41 -2.5zM276 600q57 11 79.5 38t22.5 54
q0 40 -28 64.5t-76 24.5q-46 0 -83 -20l20 -62q8 6 19.5 8.5t21.5 2.5q24 0 35 -9.5t11 -24.5q0 -17 -13.5 -29t-40.5 -21z" />
    <glyph glyph-name="uni0233" unicode="&#x233;" horiz-adv-x="569" 
d="M127 -216q63 0 100 21.5t61 61t48 96.5l239 555h-148l-108 -261q-14 -33 -19 -59.5t-5 -36.5h-19q0 10 -5 36.5t-19 59.5l-108 261h-150l222 -513l-14 -35q-12 -31 -31 -49.5t-58 -18.5q-36 0 -64 7v-116q15 -4 37 -6.5t41 -2.5zM131 614h307v95h-307v-95z" />
    <glyph glyph-name="uni1EF9" unicode="&#x1ef9;" horiz-adv-x="569" 
d="M127 -216q63 0 100 21.5t61 61t48 96.5l239 555h-148l-108 -261q-14 -33 -19 -59.5t-5 -36.5h-19q0 10 -5 36.5t-19 59.5l-108 261h-150l222 -513l-14 -35q-12 -31 -31 -49.5t-58 -18.5q-36 0 -64 7v-116q15 -4 37 -6.5t41 -2.5zM346 603q43 0 77 33.5t32 97.5h-81
q-3 -25 -12.5 -35.5t-19.5 -10.5q-16 0 -32 13.5t-36.5 27t-49.5 13.5q-44 0 -77.5 -34.5t-32.5 -97.5h82q3 24 12.5 35.5t19.5 11.5q16 0 32 -13.5t36 -27t50 -13.5z" />
    <glyph glyph-name="z" unicode="z" horiz-adv-x="440" 
d="M-6 0h451v115h-220q-22 0 -36.5 -6t-23.5 -11l-8 20q14 5 26.5 13t23.5 22l229 268v97h-428v-114h200q22 0 37 5.5t24 10.5l8 -20q-10 -5 -23.5 -11.5t-27.5 -22.5l-232 -269v-97z" />
    <glyph glyph-name="zacute" unicode="&#x17a;" horiz-adv-x="440" 
d="M-6 0h451v115h-220q-22 0 -36.5 -6t-23.5 -11l-8 20q14 5 26.5 13t23.5 22l229 268v97h-428v-114h200q22 0 37 5.5t24 10.5l8 -20q-10 -5 -23.5 -11.5t-27.5 -22.5l-232 -269v-97zM164 600h112l94 136h-137z" />
    <glyph glyph-name="zcaron" unicode="&#x17e;" horiz-adv-x="440" 
d="M-6 0h451v115h-220q-22 0 -36.5 -6t-23.5 -11l-8 20q14 5 26.5 13t23.5 22l229 268v97h-428v-114h200q22 0 37 5.5t24 10.5l8 -20q-10 -5 -23.5 -11.5t-27.5 -22.5l-232 -269v-97zM156 600h127l103 136h-110l-56 -72l-56 72h-110z" />
    <glyph glyph-name="zdotaccent" unicode="&#x17c;" horiz-adv-x="440" 
d="M-6 0h451v115h-220q-22 0 -36.5 -6t-23.5 -11l-8 20q14 5 26.5 13t23.5 22l229 268v97h-428v-114h200q22 0 37 5.5t24 10.5l8 -20q-10 -5 -23.5 -11.5t-27.5 -22.5l-232 -269v-97zM227 600q32 0 55 22.5t23 55.5q0 32 -23 55t-55 23q-33 0 -56 -23t-23 -55
q0 -33 23 -55.5t56 -22.5z" />
    <glyph glyph-name="uni1E93" unicode="&#x1e93;" horiz-adv-x="440" 
d="M-6 0h451v115h-220q-22 0 -36.5 -6t-23.5 -11l-8 20q14 5 26.5 13t23.5 22l229 268v97h-428v-114h200q22 0 37 5.5t24 10.5l8 -20q-10 -5 -23.5 -11.5t-27.5 -22.5l-232 -269v-97zM226 -243q34 0 58 24t24 58t-24 58t-58 24t-58 -24t-24 -58t24 -58t58 -24z" />
    <glyph glyph-name="f.liga" horiz-adv-x="415" 
d="M112 0h136v403h142v115h-142v27q0 44 27.5 66.5t89.5 22.5q47 0 87.5 -11t88.5 -37l41 108q-101 57 -217 57q-119 0 -186 -55.5t-67 -150.5v-27h-118v-115h118v-403z" />
    <glyph glyph-name="f.liga2" horiz-adv-x="415" 
d="M112 0h136v403h342v115h-342v33q0 39 20.5 61t61.5 22q28 0 60 -9l29 109q-43 17 -95 17q-96 0 -154 -54.5t-58 -145.5v-33h-118v-115h118v-403z" />
    <glyph glyph-name="a.ss01" horiz-adv-x="642" 
d="M274 -12q61 0 102 23t63 63l10 -3q-6 -21 -8.5 -32.5t-2.5 -26.5v-12h137v518h-137v-9q0 -16 3 -30.5t8 -31.5l-10 -4q-22 41 -63 64t-102 23q-74 0 -130 -34.5t-87.5 -95.5t-31.5 -141t31.5 -141t87.5 -95.5t130 -34.5zM299 105q-62 0 -100 42t-38 112q0 69 38.5 111
t99.5 42q51 0 88.5 -26t50.5 -69v-116q-13 -44 -50.5 -70t-88.5 -26z" />
    <glyph glyph-name="aacute.ss01" horiz-adv-x="642" 
d="M274 -12q61 0 102 23t63 63l10 -3q-6 -21 -8.5 -32.5t-2.5 -26.5v-12h137v518h-137v-9q0 -16 3 -30.5t8 -31.5l-10 -4q-22 41 -63 64t-102 23q-74 0 -130 -34.5t-87.5 -95.5t-31.5 -141t31.5 -141t87.5 -95.5t130 -34.5zM299 105q-62 0 -100 42t-38 112q0 69 38.5 111
t99.5 42q51 0 88.5 -26t50.5 -69v-116q-13 -44 -50.5 -70t-88.5 -26zM232 600h112l94 136h-137z" />
    <glyph glyph-name="abreve.ss01" horiz-adv-x="642" 
d="M274 -12q61 0 102 23t63 63l10 -3q-6 -21 -8.5 -32.5t-2.5 -26.5v-12h137v518h-137v-9q0 -16 3 -30.5t8 -31.5l-10 -4q-22 41 -63 64t-102 23q-74 0 -130 -34.5t-87.5 -95.5t-31.5 -141t31.5 -141t87.5 -95.5t130 -34.5zM299 105q-62 0 -100 42t-38 112q0 69 38.5 111
t99.5 42q51 0 88.5 -26t50.5 -69v-116q-13 -44 -50.5 -70t-88.5 -26zM288 600q68 0 110 37t42 99h-91q0 -30 -17 -47.5t-44 -17.5q-28 0 -45 18t-17 47h-91q0 -62 42 -99t111 -37z" />
    <glyph glyph-name="uni1EAF.ss01" horiz-adv-x="642" 
d="M274 -12q61 0 102 23t63 63l10 -3q-6 -21 -8.5 -32.5t-2.5 -26.5v-12h137v518h-137v-9q0 -16 3 -30.5t8 -31.5l-10 -4q-22 41 -63 64t-102 23q-74 0 -130 -34.5t-87.5 -95.5t-31.5 -141t31.5 -141t87.5 -95.5t130 -34.5zM299 105q-62 0 -100 42t-38 112q0 69 38.5 111
t99.5 42q51 0 88.5 -26t50.5 -69v-116q-13 -44 -50.5 -70t-88.5 -26zM288 600q68 0 110 37t42 99h-91q0 -30 -17 -47.5t-44 -17.5q-28 0 -45 18t-17 47h-91q0 -62 42 -99t111 -37zM232 818h112l94 136h-137z" />
    <glyph glyph-name="uni1EB7.ss01" horiz-adv-x="642" 
d="M274 -12q61 0 102 23t63 63l10 -3q-6 -21 -8.5 -32.5t-2.5 -26.5v-12h137v518h-137v-9q0 -16 3 -30.5t8 -31.5l-10 -4q-22 41 -63 64t-102 23q-74 0 -130 -34.5t-87.5 -95.5t-31.5 -141t31.5 -141t87.5 -95.5t130 -34.5zM299 105q-62 0 -100 42t-38 112q0 69 38.5 111
t99.5 42q51 0 88.5 -26t50.5 -69v-116q-13 -44 -50.5 -70t-88.5 -26zM294 -243q34 0 58 24t24 58t-24 58t-58 24t-58 -24t-24 -58t24 -58t58 -24zM288 600q68 0 110 37t42 99h-91q0 -30 -17 -47.5t-44 -17.5q-28 0 -45 18t-17 47h-91q0 -62 42 -99t111 -37z" />
    <glyph glyph-name="uni1EB1.ss01" horiz-adv-x="642" 
d="M274 -12q61 0 102 23t63 63l10 -3q-6 -21 -8.5 -32.5t-2.5 -26.5v-12h137v518h-137v-9q0 -16 3 -30.5t8 -31.5l-10 -4q-22 41 -63 64t-102 23q-74 0 -130 -34.5t-87.5 -95.5t-31.5 -141t31.5 -141t87.5 -95.5t130 -34.5zM299 105q-62 0 -100 42t-38 112q0 69 38.5 111
t99.5 42q51 0 88.5 -26t50.5 -69v-116q-13 -44 -50.5 -70t-88.5 -26zM232 818h112l-68 136h-138zM288 600q69 0 111 37t42 99h-91q0 -30 -17 -47.5t-45 -17.5t-44.5 18t-16.5 47h-91q0 -62 42 -99t110 -37z" />
    <glyph glyph-name="uni1EB3.ss01" horiz-adv-x="642" 
d="M274 -12q61 0 102 23t63 63l10 -3q-6 -21 -8.5 -32.5t-2.5 -26.5v-12h137v518h-137v-9q0 -16 3 -30.5t8 -31.5l-10 -4q-22 41 -63 64t-102 23q-74 0 -130 -34.5t-87.5 -95.5t-31.5 -141t31.5 -141t87.5 -95.5t130 -34.5zM299 105q-62 0 -100 42t-38 112q0 69 38.5 111
t99.5 42q51 0 88.5 -26t50.5 -69v-116q-13 -44 -50.5 -70t-88.5 -26zM288 600q68 0 110 37t42 99h-91q0 -30 -17 -47.5t-44 -17.5q-28 0 -45 18t-17 47h-91q0 -62 42 -99t111 -37zM279 818q57 11 79.5 38t22.5 54q0 40 -28 64.5t-76 24.5q-46 0 -83 -20l20 -62q8 6 19.5 8.5
t21.5 2.5q24 0 35 -9.5t11 -24.5q0 -17 -13.5 -29t-40.5 -21z" />
    <glyph glyph-name="uni1EB5.ss01" horiz-adv-x="642" 
d="M274 -12q61 0 102 23t63 63l10 -3q-6 -21 -8.5 -32.5t-2.5 -26.5v-12h137v518h-137v-9q0 -16 3 -30.5t8 -31.5l-10 -4q-22 41 -63 64t-102 23q-74 0 -130 -34.5t-87.5 -95.5t-31.5 -141t31.5 -141t87.5 -95.5t130 -34.5zM299 105q-62 0 -100 42t-38 112q0 69 38.5 111
t99.5 42q51 0 88.5 -26t50.5 -69v-116q-13 -44 -50.5 -70t-88.5 -26zM336 821q35 0 62 33.5t26 97.5h-65q-3 -25 -10 -35.5t-16 -10.5q-13 0 -25.5 13.5t-29 27t-39.5 13.5q-35 0 -61.5 -34.5t-26.5 -97.5h65q3 24 11 35.5t15 11.5q13 0 26 -13.5t29 -27t39 -13.5zM288 600
q69 0 111 37t42 99h-91q0 -30 -17 -47.5t-45 -17.5t-44.5 18t-16.5 47h-91q0 -62 42 -99t110 -37z" />
    <glyph glyph-name="acircumflex.ss01" horiz-adv-x="642" 
d="M274 -12q61 0 102 23t63 63l10 -3q-6 -21 -8.5 -32.5t-2.5 -26.5v-12h137v518h-137v-9q0 -16 3 -30.5t8 -31.5l-10 -4q-22 41 -63 64t-102 23q-74 0 -130 -34.5t-87.5 -95.5t-31.5 -141t31.5 -141t87.5 -95.5t130 -34.5zM299 105q-62 0 -100 42t-38 112q0 69 38.5 111
t99.5 42q51 0 88.5 -26t50.5 -69v-116q-13 -44 -50.5 -70t-88.5 -26zM122 600h110l56 72l56 -72h110l-103 136h-127z" />
    <glyph glyph-name="uni1EA5.ss01" horiz-adv-x="642" 
d="M274 -12q61 0 102 23t63 63l10 -3q-6 -21 -8.5 -32.5t-2.5 -26.5v-12h137v518h-137v-9q0 -16 3 -30.5t8 -31.5l-10 -4q-22 41 -63 64t-102 23q-74 0 -130 -34.5t-87.5 -95.5t-31.5 -141t31.5 -141t87.5 -95.5t130 -34.5zM299 105q-62 0 -100 42t-38 112q0 69 38.5 111
t99.5 42q51 0 88.5 -26t50.5 -69v-116q-13 -44 -50.5 -70t-88.5 -26zM122 600h110l56 72l56 -72h110l-103 136h-127zM435 674h112l94 136h-137z" />
    <glyph glyph-name="uni1EAD.ss01" horiz-adv-x="642" 
d="M274 -12q61 0 102 23t63 63l10 -3q-6 -21 -8.5 -32.5t-2.5 -26.5v-12h137v518h-137v-9q0 -16 3 -30.5t8 -31.5l-10 -4q-22 41 -63 64t-102 23q-74 0 -130 -34.5t-87.5 -95.5t-31.5 -141t31.5 -141t87.5 -95.5t130 -34.5zM299 105q-62 0 -100 42t-38 112q0 69 38.5 111
t99.5 42q51 0 88.5 -26t50.5 -69v-116q-13 -44 -50.5 -70t-88.5 -26zM294 -243q34 0 58 24t24 58t-24 58t-58 24t-58 -24t-24 -58t24 -58t58 -24zM122 600h110l56 72l56 -72h110l-103 136h-127z" />
    <glyph glyph-name="uni1EA7.ss01" horiz-adv-x="642" 
d="M274 -12q61 0 102 23t63 63l10 -3q-6 -21 -8.5 -32.5t-2.5 -26.5v-12h137v518h-137v-9q0 -16 3 -30.5t8 -31.5l-10 -4q-22 41 -63 64t-102 23q-74 0 -130 -34.5t-87.5 -95.5t-31.5 -141t31.5 -141t87.5 -95.5t130 -34.5zM299 105q-62 0 -100 42t-38 112q0 69 38.5 111
t99.5 42q51 0 88.5 -26t50.5 -69v-116q-13 -44 -50.5 -70t-88.5 -26zM122 600h110l56 72l56 -72h110l-103 136h-127zM435 674h112l-68 136h-138z" />
    <glyph glyph-name="uni1EA9.ss01" horiz-adv-x="642" 
d="M274 -12q61 0 102 23t63 63l10 -3q-6 -21 -8.5 -32.5t-2.5 -26.5v-12h137v518h-137v-9q0 -16 3 -30.5t8 -31.5l-10 -4q-22 41 -63 64t-102 23q-74 0 -130 -34.5t-87.5 -95.5t-31.5 -141t31.5 -141t87.5 -95.5t130 -34.5zM299 105q-62 0 -100 42t-38 112q0 69 38.5 111
t99.5 42q51 0 88.5 -26t50.5 -69v-116q-13 -44 -50.5 -70t-88.5 -26zM122 600h110l56 72l56 -72h110l-103 136h-127zM482 674q57 11 79.5 38t22.5 54q0 40 -28 64.5t-76 24.5q-46 0 -83 -20l20 -62q8 6 19.5 8.5t21.5 2.5q24 0 35 -9.5t11 -24.5q0 -17 -13.5 -29t-40.5 -21z
" />
    <glyph glyph-name="uni1EAB.ss01" horiz-adv-x="642" 
d="M274 -12q61 0 102 23t63 63l10 -3q-6 -21 -8.5 -32.5t-2.5 -26.5v-12h137v518h-137v-9q0 -16 3 -30.5t8 -31.5l-10 -4q-22 41 -63 64t-102 23q-74 0 -130 -34.5t-87.5 -95.5t-31.5 -141t31.5 -141t87.5 -95.5t130 -34.5zM299 105q-62 0 -100 42t-38 112q0 69 38.5 111
t99.5 42q51 0 88.5 -26t50.5 -69v-116q-13 -44 -50.5 -70t-88.5 -26zM343 821q40 0 70 33.5t29 97.5h-73q-3 -25 -11.5 -35.5t-17.5 -10.5q-14 0 -28.5 13.5t-33 27t-44.5 13.5q-40 0 -70 -34.5t-28 -97.5h72q3 24 11.5 35.5t17.5 11.5q15 0 29.5 -13.5t32.5 -27t44 -13.5z
M122 600h110l56 72l56 -72h110l-103 136h-127z" />
    <glyph glyph-name="uni0201.ss01" horiz-adv-x="642" 
d="M274 -12q61 0 102 23t63 63l10 -3q-6 -21 -8.5 -32.5t-2.5 -26.5v-12h137v518h-137v-9q0 -16 3 -30.5t8 -31.5l-10 -4q-22 41 -63 64t-102 23q-74 0 -130 -34.5t-87.5 -95.5t-31.5 -141t31.5 -141t87.5 -95.5t130 -34.5zM299 105q-62 0 -100 42t-38 112q0 69 38.5 111
t99.5 42q51 0 88.5 -26t50.5 -69v-116q-13 -44 -50.5 -70t-88.5 -26zM324 600h112l-69 136h-137zM141 600h112l-68 136h-138z" />
    <glyph glyph-name="adieresis.ss01" horiz-adv-x="642" 
d="M274 -12q61 0 102 23t63 63l10 -3q-6 -21 -8.5 -32.5t-2.5 -26.5v-12h137v518h-137v-9q0 -16 3 -30.5t8 -31.5l-10 -4q-22 41 -63 64t-102 23q-74 0 -130 -34.5t-87.5 -95.5t-31.5 -141t31.5 -141t87.5 -95.5t130 -34.5zM299 105q-62 0 -100 42t-38 112q0 69 38.5 111
t99.5 42q51 0 88.5 -26t50.5 -69v-116q-13 -44 -50.5 -70t-88.5 -26zM194 600q31 0 53 22t22 53t-22 53t-53 22t-53 -22t-22 -53t22 -53t53 -22zM390 600q31 0 53 22t22 53t-22 53t-53 22t-53 -22t-22 -53t22 -53t53 -22z" />
    <glyph glyph-name="uni1EA1.ss01" horiz-adv-x="642" 
d="M274 -12q61 0 102 23t63 63l10 -3q-6 -21 -8.5 -32.5t-2.5 -26.5v-12h137v518h-137v-9q0 -16 3 -30.5t8 -31.5l-10 -4q-22 41 -63 64t-102 23q-74 0 -130 -34.5t-87.5 -95.5t-31.5 -141t31.5 -141t87.5 -95.5t130 -34.5zM299 105q-62 0 -100 42t-38 112q0 69 38.5 111
t99.5 42q51 0 88.5 -26t50.5 -69v-116q-13 -44 -50.5 -70t-88.5 -26zM294 -243q34 0 58 24t24 58t-24 58t-58 24t-58 -24t-24 -58t24 -58t58 -24z" />
    <glyph glyph-name="agrave.ss01" horiz-adv-x="642" 
d="M274 -12q61 0 102 23t63 63l10 -3q-6 -21 -8.5 -32.5t-2.5 -26.5v-12h137v518h-137v-9q0 -16 3 -30.5t8 -31.5l-10 -4q-22 41 -63 64t-102 23q-74 0 -130 -34.5t-87.5 -95.5t-31.5 -141t31.5 -141t87.5 -95.5t130 -34.5zM299 105q-62 0 -100 42t-38 112q0 69 38.5 111
t99.5 42q51 0 88.5 -26t50.5 -69v-116q-13 -44 -50.5 -70t-88.5 -26zM232 600h112l-68 136h-138z" />
    <glyph glyph-name="uni1EA3.ss01" horiz-adv-x="642" 
d="M274 -12q61 0 102 23t63 63l10 -3q-6 -21 -8.5 -32.5t-2.5 -26.5v-12h137v518h-137v-9q0 -16 3 -30.5t8 -31.5l-10 -4q-22 41 -63 64t-102 23q-74 0 -130 -34.5t-87.5 -95.5t-31.5 -141t31.5 -141t87.5 -95.5t130 -34.5zM299 105q-62 0 -100 42t-38 112q0 69 38.5 111
t99.5 42q51 0 88.5 -26t50.5 -69v-116q-13 -44 -50.5 -70t-88.5 -26zM279 600q57 11 79.5 38t22.5 54q0 40 -28 64.5t-76 24.5q-46 0 -83 -20l20 -62q8 6 19.5 8.5t21.5 2.5q24 0 35 -9.5t11 -24.5q0 -17 -13.5 -29t-40.5 -21z" />
    <glyph glyph-name="uni0203.ss01" horiz-adv-x="642" 
d="M274 -12q61 0 102 23t63 63l10 -3q-6 -21 -8.5 -32.5t-2.5 -26.5v-12h137v518h-137v-9q0 -16 3 -30.5t8 -31.5l-10 -4q-22 41 -63 64t-102 23q-74 0 -130 -34.5t-87.5 -95.5t-31.5 -141t31.5 -141t87.5 -95.5t130 -34.5zM299 105q-62 0 -100 42t-38 112q0 69 38.5 111
t99.5 42q51 0 88.5 -26t50.5 -69v-116q-13 -44 -50.5 -70t-88.5 -26zM135 600h91q0 29 17 47t45 18q27 0 44 -17.5t17 -47.5h91q0 62 -42 99t-110 37q-69 0 -111 -37t-42 -99z" />
    <glyph glyph-name="amacron.ss01" horiz-adv-x="642" 
d="M274 -12q61 0 102 23t63 63l10 -3q-6 -21 -8.5 -32.5t-2.5 -26.5v-12h137v518h-137v-9q0 -16 3 -30.5t8 -31.5l-10 -4q-22 41 -63 64t-102 23q-74 0 -130 -34.5t-87.5 -95.5t-31.5 -141t31.5 -141t87.5 -95.5t130 -34.5zM299 105q-62 0 -100 42t-38 112q0 69 38.5 111
t99.5 42q51 0 88.5 -26t50.5 -69v-116q-13 -44 -50.5 -70t-88.5 -26zM134 614h307v95h-307v-95z" />
    <glyph glyph-name="aogonek.ss01" horiz-adv-x="642" 
d="M274 -12q61 0 102 23t63 63l10 -3q-6 -21 -8.5 -32.5t-2.5 -26.5v-12h137v518h-137v-9q0 -16 3 -30.5t8 -31.5l-10 -4q-22 41 -63 64t-102 23q-74 0 -130 -34.5t-87.5 -95.5t-31.5 -141t31.5 -141t87.5 -95.5t130 -34.5zM299 105q-62 0 -100 42t-38 112q0 69 38.5 111
t99.5 42q51 0 88.5 -26t50.5 -69v-116q-13 -44 -50.5 -70t-88.5 -26zM468 -213q32 0 66.5 11t65.5 37l-37 66q-14 -14 -36.5 -22.5t-46.5 -8.5t-40 12t-16 36q0 25 24 48t85 38l-37 26q-78 -12 -120 -48.5t-42 -86.5q0 -38 20 -61.5t50.5 -35t63.5 -11.5z" />
    <glyph glyph-name="l.ss01" horiz-adv-x="274" 
d="M69 0h136v712h-136v-712z" />
    <glyph glyph-name="lacute.ss01" horiz-adv-x="274" 
d="M69 0h136v712h-136v-712zM81 828h112l94 136h-137z" />
    <glyph glyph-name="lcaron.ss01" horiz-adv-x="449" 
d="M74 0h137v712h-137v-712zM287 541h106l23 171h-129v-171z" />
    <glyph glyph-name="uni013C.ss01" horiz-adv-x="274" 
d="M69 0h136v712h-136v-712zM72 -348h14q70 0 105 47t35 120q0 47 -22 74.5t-60 27.5q-34 0 -58 -22.5t-24 -59.5q0 -32 21.5 -55t53.5 -26q-2 -21 -15.5 -34t-39.5 -13h-10v-59z" />
    <glyph glyph-name="ldot.ss01" horiz-adv-x="448" 
d="M74 0h137v712h-137v-712zM334 271q34 0 58 24t24 58t-24 58t-58 24t-58 -24t-24 -58t24 -58t58 -24z" />
    <glyph glyph-name="uni1E37.ss01" horiz-adv-x="274" 
d="M69 0h136v712h-136v-712zM143 -243q34 0 58 24t24 58t-24 58t-58 24t-58 -24t-24 -58t24 -58t58 -24z" />
    <glyph glyph-name="uni01C9.ss01" horiz-adv-x="571" 
d="M69 0h136v712h-136v-712zM428 577q33 0 56.5 23.5t23.5 56.5t-23.5 56.5t-56.5 23.5t-56 -23.5t-23 -56.5t23 -56.5t56 -23.5zM308 -214q94 0 141.5 47.5t47.5 134.5v550h-137v-550q0 -35 -14.5 -50t-50.5 -15q-29 0 -57 7v-117q16 -3 34 -5t36 -2z" />
    <glyph glyph-name="lmacronbelow.ss01" horiz-adv-x="274" 
d="M69 0h136v712h-136v-712zM-32 -173h307v95h-307v-95z" />
    <glyph glyph-name="lslash.ss01" horiz-adv-x="274" 
d="M69 0h136v343l89 28v104l-89 -29v266h-136v-309l-89 -28v-104l89 29v-300z" />
    <glyph glyph-name="ordfeminine" unicode="&#xaa;" horiz-adv-x="329" 
d="M114 372q27 0 53 9.5t43 36.5h12q3 -24 23 -34.5t51 -10.5q16 0 42 2v67q-3 0 -5.5 -0.5t-4.5 -0.5q-20 0 -22 18.5t-2 36.5v97q0 55 -41 83t-101 28q-54 0 -96.5 -27t-53.5 -73l91 -16q13 34 52 34q17 0 34 -10.5t17 -32.5v-3l-62 -12q-37 -8 -67 -19.5t-47.5 -32
t-17.5 -56.5q0 -37 28 -60.5t74 -23.5zM105 468q0 12 12 19.5t32 12.5l57 15v-30q-11 -38 -65 -38q-16 0 -26 5t-10 16z" />
    <glyph glyph-name="ordmasculine" unicode="&#xba;" horiz-adv-x="358" 
d="M179 372q50 0 89 21t61.5 58.5t22.5 86.5q0 48 -22 85.5t-61 59t-90 21.5t-90 -21.5t-61 -59t-22 -85.5q0 -49 22 -86.5t61 -58.5t90 -21zM179 457q-34 0 -56 21.5t-22 59.5q0 37 22 59t56 22t55.5 -22t21.5 -59q0 -38 -22 -59.5t-55 -21.5z" />
    <glyph glyph-name="pi" unicode="&#x3c0;" horiz-adv-x="732" 
d="M627 -6q34 0 59 4.5t44 12.5l-29 109q-15 -4 -33 -6.5t-30 -2.5q-27 0 -43.5 15t-16.5 50v227h139v115h-727v-115h107v-403h137v403h207v-235q0 -94 50 -134t136 -40z" />
    <glyph glyph-name="zero" unicode="0" horiz-adv-x="669" 
d="M335 -12q91 0 161 45t109.5 127.5t39.5 193.5t-39.5 191.5t-109.5 123.5t-161 43t-161 -43t-110 -123.5t-40 -191.5t40 -193.5t110 -127.5t161 -45zM335 107q-52 0 -91.5 30t-61.5 85.5t-22 131.5q0 114 49 176.5t126 62.5t126 -62.5t49 -176.5q0 -76 -22.5 -131.5
t-62 -85.5t-90.5 -30z" />
    <glyph glyph-name="one" unicode="1" horiz-adv-x="388" 
d="M168 0h136v700h-97l-183 -107v-140l144 80v-533z" />
    <glyph glyph-name="two" unicode="2" horiz-adv-x="579" 
d="M31 0h514v111h-379q-1 39 25.5 68t68.5 54.5t89.5 51t89.5 56t68.5 71t26.5 95.5q0 62 -30.5 108t-86 71.5t-129.5 25.5q-68 0 -123 -22.5t-91.5 -64t-49.5 -97.5l129 -26q12 38 44 67t94 29q50 0 82.5 -23.5t32.5 -62.5q0 -31 -20 -55t-53.5 -44.5t-73.5 -41.5t-80 -45
t-73.5 -56t-54 -74t-20.5 -99v-97z" />
    <glyph glyph-name="three" unicode="3" horiz-adv-x="596" 
d="M302 -11q78 0 139 25.5t95.5 70.5t34.5 103q0 65 -38 104.5t-109 45.5v20q63 15 95 50t32 104q0 58 -32 103t-88 70.5t-129 25.5q-65 0 -118.5 -22.5t-89.5 -64t-48 -97.5l129 -26q11 41 43.5 68.5t86.5 27.5q53 0 83.5 -29t30.5 -72q0 -44 -27.5 -68.5t-73.5 -24.5h-78
v-111h90q49 0 79 -23t30 -64q0 -45 -37 -73.5t-100 -28.5q-64 0 -101 32t-48 76l-129 -26q14 -60 52.5 -104t96.5 -68t129 -24z" />
    <glyph glyph-name="four" unicode="4" horiz-adv-x="622" 
d="M391 0h136v158h90v115h-90v427h-160l-343 -431v-111h367v-158zM168 273l223 284v-284h-223z" />
    <glyph glyph-name="five" unicode="5" horiz-adv-x="586" 
d="M291 -11q75 0 133.5 29.5t92.5 83t34 123.5q0 68 -30.5 118.5t-83.5 79t-120 28.5q-41 0 -70 -11t-56 -39l-20 14q9 11 16.5 29t10.5 43l11 101h310v112h-425l-41 -385l111 -26q25 29 56 40t68 11q59 0 95 -31t36 -84q0 -56 -35.5 -89t-92.5 -33q-61 0 -96 32t-42 76
l-129 -26q18 -90 89 -143t178 -53z" />
    <glyph glyph-name="six" unicode="6" horiz-adv-x="611" 
d="M319 -12q77 0 136 30.5t92.5 83t33.5 118.5q0 65 -31.5 115t-88 78.5t-131.5 28.5q-52 0 -93.5 -17t-72.5 -55l-20 12q8 11 15 25t13 46q13 73 54.5 109t101.5 36q54 0 86.5 -23t42.5 -63l129 26q-12 55 -48.5 94t-90 59.5t-116.5 20.5q-92 0 -161 -43.5t-107.5 -127.5
t-38.5 -206q0 -104 33 -182t98.5 -121.5t163.5 -43.5zM313 102q-55 0 -95.5 40.5t-52.5 129.5q28 28 66.5 43.5t85.5 15.5q62 0 97 -32t35 -82t-37 -82.5t-99 -32.5z" />
    <glyph glyph-name="seven" unicode="7" horiz-adv-x="584" 
d="M129 0h152q4 173 79 323t199 272v105h-535v-123h293q29 0 50 6t31 10l8 -19q-9 -4 -27 -14t-36 -29q-94 -102 -151.5 -239t-62.5 -292z" />
    <glyph glyph-name="eight" unicode="8" horiz-adv-x="578" 
d="M289 -11q79 0 138.5 24.5t93 69t33.5 103.5q0 70 -42.5 111t-105.5 47v20q53 12 89 50t36 99q0 58 -31 103t-85.5 70t-125.5 25t-125.5 -25t-85.5 -70t-31 -103q0 -60 35.5 -98.5t90.5 -50.5v-19q-68 -7 -108.5 -49.5t-40.5 -109.5q0 -60 34 -104.5t93.5 -68.5t137.5 -24
zM289 404q-48 0 -80.5 27t-32.5 70t32.5 70.5t80.5 27.5t80.5 -27.5t32.5 -70.5t-32.5 -70t-80.5 -27zM289 101q-57 0 -94.5 27.5t-37.5 72.5t37.5 72.5t94.5 27.5t94.5 -27.5t37.5 -72.5t-37.5 -72.5t-94.5 -27.5z" />
    <glyph glyph-name="nine" unicode="9" horiz-adv-x="611" 
d="M280 -12q93 0 162 43.5t107 127.5t38 206q0 104 -33 182t-98.5 121.5t-163.5 43.5q-77 0 -136 -30.5t-92 -83t-33 -118.5q0 -65 31 -115t87.5 -78.5t131.5 -28.5q52 0 93.5 16.5t72.5 55.5l20 -13q-7 -10 -14 -22t-11 -33q-15 -84 -56.5 -122t-102.5 -38q-54 0 -86.5 23
t-42.5 63l-128 -26q11 -55 47.5 -94t90 -59.5t116.5 -20.5zM295 369q-62 0 -97 31.5t-35 81.5q0 51 36.5 83.5t98.5 32.5q55 0 96 -40.5t52 -129.5q-28 -28 -66.5 -43.5t-84.5 -15.5z" />
    <glyph glyph-name="zero.zero" horiz-adv-x="669" 
d="M335 -12q91 0 161 45t109.5 127.5t39.5 193.5t-39.5 191.5t-109.5 123.5t-161 43t-161 -43t-110 -123.5t-40 -191.5t40 -193.5t110 -127.5t161 -45zM160 354q0 114 49 176.5t126 62.5q76 0 123 -59l-284 -288q-14 48 -14 108zM335 107q-78 0 -126 66l285 290
q16 -48 16 -109q0 -76 -22.5 -131.5t-62 -85.5t-90.5 -30z" />
    <glyph glyph-name="zero.tf" horiz-adv-x="669" 
d="M335 -12q91 0 161 45t109.5 127.5t39.5 193.5t-39.5 191.5t-109.5 123.5t-161 43t-161 -43t-110 -123.5t-40 -191.5t40 -193.5t110 -127.5t161 -45zM335 107q-52 0 -91.5 30t-61.5 85.5t-22 131.5q0 114 49 176.5t126 62.5t126 -62.5t49 -176.5q0 -76 -22.5 -131.5
t-62 -85.5t-90.5 -30z" />
    <glyph glyph-name="one.tf" horiz-adv-x="562" 
d="M24 0h514v111h-189v589h-97l-182 -107v-140l143 80v-422h-189v-111z" />
    <glyph glyph-name="two.tf" horiz-adv-x="579" 
d="M31 0h514v111h-379q-1 39 25.5 68t68.5 54.5t89.5 51t89.5 56t68.5 71t26.5 95.5q0 62 -30.5 108t-86 71.5t-129.5 25.5q-68 0 -123 -22.5t-91.5 -64t-49.5 -97.5l129 -26q12 38 44 67t94 29q50 0 82.5 -23.5t32.5 -62.5q0 -31 -20 -55t-53.5 -44.5t-73.5 -41.5t-80 -45
t-73.5 -56t-54 -74t-20.5 -99v-97z" />
    <glyph glyph-name="three.tf" horiz-adv-x="596" 
d="M302 -11q78 0 139 25.5t95.5 70.5t34.5 103q0 65 -38 104.5t-109 45.5v20q63 15 95 50t32 104q0 58 -32 103t-88 70.5t-129 25.5q-65 0 -118.5 -22.5t-89.5 -64t-48 -97.5l129 -26q11 41 43.5 68.5t86.5 27.5q53 0 83.5 -29t30.5 -72q0 -44 -27.5 -68.5t-73.5 -24.5h-78
v-111h90q49 0 79 -23t30 -64q0 -45 -37 -73.5t-100 -28.5q-64 0 -101 32t-48 76l-129 -26q14 -60 52.5 -104t96.5 -68t129 -24z" />
    <glyph glyph-name="four.tf" horiz-adv-x="622" 
d="M391 0h136v158h90v115h-90v427h-160l-343 -431v-111h367v-158zM168 273l223 284v-284h-223z" />
    <glyph glyph-name="five.tf" horiz-adv-x="586" 
d="M291 -11q75 0 133.5 29.5t92.5 83t34 123.5q0 68 -30.5 118.5t-83.5 79t-120 28.5q-41 0 -70 -11t-56 -39l-20 14q9 11 16.5 29t10.5 43l11 101h310v112h-425l-41 -385l111 -26q25 29 56 40t68 11q59 0 95 -31t36 -84q0 -56 -35.5 -89t-92.5 -33q-61 0 -96 32t-42 76
l-129 -26q18 -90 89 -143t178 -53z" />
    <glyph glyph-name="six.tf" horiz-adv-x="611" 
d="M319 -12q77 0 136 30.5t92.5 83t33.5 118.5q0 65 -31.5 115t-88 78.5t-131.5 28.5q-52 0 -93.5 -17t-72.5 -55l-20 12q8 11 15 25t13 46q13 73 54.5 109t101.5 36q54 0 86.5 -23t42.5 -63l129 26q-12 55 -48.5 94t-90 59.5t-116.5 20.5q-92 0 -161 -43.5t-107.5 -127.5
t-38.5 -206q0 -104 33 -182t98.5 -121.5t163.5 -43.5zM313 102q-55 0 -95.5 40.5t-52.5 129.5q28 28 66.5 43.5t85.5 15.5q62 0 97 -32t35 -82t-37 -82.5t-99 -32.5z" />
    <glyph glyph-name="seven.tf" horiz-adv-x="584" 
d="M129 0h152q4 173 79 323t199 272v105h-535v-123h293q29 0 50 6t31 10l8 -19q-9 -4 -27 -14t-36 -29q-94 -102 -151.5 -239t-62.5 -292z" />
    <glyph glyph-name="eight.tf" horiz-adv-x="578" 
d="M289 -11q79 0 138.5 24.5t93 69t33.5 103.5q0 70 -42.5 111t-105.5 47v20q53 12 89 50t36 99q0 58 -31 103t-85.5 70t-125.5 25t-125.5 -25t-85.5 -70t-31 -103q0 -60 35.5 -98.5t90.5 -50.5v-19q-68 -7 -108.5 -49.5t-40.5 -109.5q0 -60 34 -104.5t93.5 -68.5t137.5 -24
zM289 404q-48 0 -80.5 27t-32.5 70t32.5 70.5t80.5 27.5t80.5 -27.5t32.5 -70.5t-32.5 -70t-80.5 -27zM289 101q-57 0 -94.5 27.5t-37.5 72.5t37.5 72.5t94.5 27.5t94.5 -27.5t37.5 -72.5t-37.5 -72.5t-94.5 -27.5z" />
    <glyph glyph-name="nine.tf" horiz-adv-x="611" 
d="M280 -12q93 0 162 43.5t107 127.5t38 206q0 104 -33 182t-98.5 121.5t-163.5 43.5q-77 0 -136 -30.5t-92 -83t-33 -118.5q0 -65 31 -115t87.5 -78.5t131.5 -28.5q52 0 93.5 16.5t72.5 55.5l20 -13q-7 -10 -14 -22t-11 -33q-15 -84 -56.5 -122t-102.5 -38q-54 0 -86.5 23
t-42.5 63l-128 -26q11 -55 47.5 -94t90 -59.5t116.5 -20.5zM295 369q-62 0 -97 31.5t-35 81.5q0 51 36.5 83.5t98.5 32.5q55 0 96 -40.5t52 -129.5q-28 -28 -66.5 -43.5t-84.5 -15.5z" />
    <glyph glyph-name="zero.tf.zero" horiz-adv-x="669" 
d="M335 -12q91 0 161 45t109.5 127.5t39.5 193.5t-39.5 191.5t-109.5 123.5t-161 43t-161 -43t-110 -123.5t-40 -191.5t40 -193.5t110 -127.5t161 -45zM160 354q0 114 49 176.5t126 62.5q76 0 123 -59l-284 -288q-14 48 -14 108zM335 107q-78 0 -126 66l285 290
q16 -48 16 -109q0 -76 -22.5 -131.5t-62 -85.5t-90.5 -30z" />
    <glyph glyph-name="zero.dnom" horiz-adv-x="332" 
d="M166 -6q74 0 116.5 48t42.5 129q0 79 -42.5 125t-116.5 46q-73 0 -116 -46t-43 -125q0 -81 43 -129t116 -48zM166 73q-32 0 -50.5 26.5t-18.5 71.5q0 42 18.5 67t50.5 25t50.5 -24.5t18.5 -67.5q0 -45 -18.5 -71.5t-50.5 -26.5z" />
    <glyph glyph-name="one.dnom" horiz-adv-x="207" 
d="M81 0h91v336h-61l-104 -58v-94l74 39v-223z" />
    <glyph glyph-name="two.dnom" horiz-adv-x="286" 
d="M10 0h264v73h-174q0 12 17 22t42 21.5t50.5 27.5t42.5 38t17 54q0 47 -35 76.5t-91 29.5q-52 0 -89 -25.5t-47 -66.5l85 -18q7 16 20 25.5t34 9.5q16 0 27.5 -8.5t11.5 -22.5q0 -17 -18 -28.5t-44 -23t-52 -26.5t-43.5 -38t-17.5 -58v-62z" />
    <glyph glyph-name="three.dnom" horiz-adv-x="290" 
d="M147 -5q60 0 98 26.5t38 67.5q0 33 -18.5 51t-51.5 22v9q34 7 48.5 23.5t14.5 48.5q0 43 -36 71t-94 28q-49 0 -85 -25t-45 -68l83 -18q6 18 19.5 26.5t29.5 8.5q17 0 28.5 -10t11.5 -25q0 -14 -10.5 -22.5t-27.5 -8.5h-34v-72h43q16 0 26 -7.5t10 -19.5q0 -13 -13 -22
t-33 -9q-19 0 -34.5 10.5t-22.5 27.5l-85 -18q10 -44 48.5 -69.5t91.5 -25.5z" />
    <glyph glyph-name="four.dnom" horiz-adv-x="313" 
d="M180 0h92v61h43v77h-43v198h-106l-159 -200v-75h173v-61zM99 138l81 105v-105h-81z" />
    <glyph glyph-name="five.dnom" horiz-adv-x="285" 
d="M141 -5q57 0 94.5 32.5t37.5 83.5q0 49 -31 79.5t-75 30.5q-15 0 -29.5 -4t-28.5 -15l-10 7q3 4 5 11t3 14l4 28h142v74h-217l-17 -185l75 -21q17 18 47 18q20 0 32 -10.5t12 -27.5q0 -18 -12.5 -29t-31.5 -11q-16 0 -31 9.5t-18 28.5l-85 -18q10 -44 45 -69.5t89 -25.5z
" />
    <glyph glyph-name="six.dnom" horiz-adv-x="301" 
d="M159 -6q57 0 94 32.5t37 80.5q0 46 -33.5 76t-89.5 30q-15 0 -34 -4.5t-34 -18.5l-10 8q6 7 14 25q8 25 23.5 34.5t34.5 9.5q38 0 49 -30l85 17q-10 43 -46.5 65.5t-83.5 22.5q-69 0 -113.5 -45t-44.5 -132q0 -76 37.5 -123.5t114.5 -47.5zM154 69q-20 0 -36 13t-18 42
q11 8 26 12.5t28 4.5q25 0 36.5 -10t11.5 -26t-13 -26t-35 -10z" />
    <glyph glyph-name="seven.dnom" horiz-adv-x="286" 
d="M52 0h104q3 85 34 147.5t89 118.5v70h-272v-82h124q14 0 24 3t14 5l4 -10q-7 -2 -16.5 -8t-14.5 -11q-43 -45 -64.5 -103.5t-25.5 -129.5z" />
    <glyph glyph-name="eight.dnom" horiz-adv-x="278" 
d="M139 -5q60 0 96.5 26t36.5 70q0 28 -17 49t-48 23v10q25 5 40.5 24t15.5 44q0 44 -35 72t-88 28q-54 0 -89 -28t-35 -72q0 -26 15.5 -44.5t40.5 -23.5v-10q-32 -2 -48.5 -23t-16.5 -49q0 -45 37 -70.5t95 -25.5zM140 200q-17 0 -28 9t-11 24t11 24.5t28 9.5
q16 0 26.5 -9.5t10.5 -24.5t-10.5 -24t-26.5 -9zM140 69q-21 0 -33 9.5t-12 24.5t12 24.5t33 9.5q20 0 32.5 -9.5t12.5 -24.5t-12.5 -24.5t-32.5 -9.5z" />
    <glyph glyph-name="nine.dnom" horiz-adv-x="301" 
d="M137 -6q69 0 113.5 45t44.5 132q0 76 -37.5 123.5t-114.5 47.5q-58 0 -94.5 -32.5t-36.5 -80.5q0 -46 33.5 -76t89.5 -30q15 0 34 4.5t34 18.5l11 -8q-8 -8 -14 -24q-9 -25 -24.5 -35t-34.5 -10q-38 0 -49 30l-85 -17q10 -43 46.5 -65.5t83.5 -22.5zM149 195
q-26 0 -37.5 10t-11.5 26t13 26t35 10q20 0 36 -13t18 -42q-11 -8 -26 -12.5t-27 -4.5z" />
    <glyph glyph-name="zero.numr" horiz-adv-x="332" 
d="M166 358q74 0 116.5 48t42.5 129q0 79 -42.5 125t-116.5 46q-73 0 -116 -46t-43 -125q0 -81 43 -129t116 -48zM166 437q-32 0 -50.5 26.5t-18.5 71.5q0 42 18.5 67t50.5 25t50.5 -24.5t18.5 -67.5q0 -45 -18.5 -71.5t-50.5 -26.5z" />
    <glyph glyph-name="one.numr" horiz-adv-x="207" 
d="M81 364h91v336h-61l-104 -58v-94l74 39v-223z" />
    </font>
</defs>
</svg>
